%TF.GenerationSoftware,KiCad,Pcbnew,10.0.1*%
%TF.CreationDate,2026-04-27T16:36:54+02:00*%
%TF.ProjectId,usb_pd_pico_controller,7573625f-7064-45f7-9069-636f5f636f6e,1.0*%
%TF.SameCoordinates,PX2faf080PY2faf080*%
%TF.FileFunction,Soldermask,Bot*%
%TF.FilePolarity,Negative*%
%FSLAX46Y46*%
G04 Gerber Fmt 4.6, Leading zero omitted, Abs format (unit mm)*
G04 Created by KiCad (PCBNEW 10.0.1) date 2026-04-27 16:36:54*
%MOMM*%
%LPD*%
G01*
G04 APERTURE LIST*
G04 Aperture macros list*
%AMRoundRect*
0 Rectangle with rounded corners*
0 $1 Rounding radius*
0 $2 $3 $4 $5 $6 $7 $8 $9 X,Y pos of 4 corners*
0 Add a 4 corners polygon primitive as box body*
4,1,4,$2,$3,$4,$5,$6,$7,$8,$9,$2,$3,0*
0 Add four circle primitives for the rounded corners*
1,1,$1+$1,$2,$3*
1,1,$1+$1,$4,$5*
1,1,$1+$1,$6,$7*
1,1,$1+$1,$8,$9*
0 Add four rect primitives between the rounded corners*
20,1,$1+$1,$2,$3,$4,$5,0*
20,1,$1+$1,$4,$5,$6,$7,0*
20,1,$1+$1,$6,$7,$8,$9,0*
20,1,$1+$1,$8,$9,$2,$3,0*%
G04 Aperture macros list end*
%ADD10C,0.010000*%
%ADD11C,1.700000*%
%ADD12RoundRect,0.250000X-0.600000X-0.600000X0.600000X-0.600000X0.600000X0.600000X-0.600000X0.600000X0*%
%ADD13C,0.650000*%
%ADD14O,1.000000X2.100000*%
%ADD15O,1.000000X1.600000*%
%ADD16O,3.700000X1.700000*%
%ADD17RoundRect,0.250000X-1.600000X-0.600000X1.600000X-0.600000X1.600000X0.600000X-1.600000X0.600000X0*%
%ADD18RoundRect,0.250000X1.600000X0.600000X-1.600000X0.600000X-1.600000X-0.600000X1.600000X-0.600000X0*%
G04 APERTURE END LIST*
D10*
%TO.C,G\u002A\u002A\u002A*%
X57423555Y-10526445D02*
X57261278Y-10524852D01*
X57160173Y-10520222D01*
X57019058Y-10493512D01*
X56917225Y-10440257D01*
X56846393Y-10357111D01*
X56845148Y-10354977D01*
X56830376Y-10327184D01*
X56818423Y-10295907D01*
X56808991Y-10255260D01*
X56801783Y-10199360D01*
X56796500Y-10122322D01*
X56792846Y-10018262D01*
X56790522Y-9881295D01*
X56789231Y-9705538D01*
X56788675Y-9485104D01*
X56788555Y-9214111D01*
X56788607Y-9055468D01*
X56789067Y-8811652D01*
X56790221Y-8615193D01*
X56792332Y-8460258D01*
X56795664Y-8341012D01*
X56800478Y-8251622D01*
X56807038Y-8186255D01*
X56815606Y-8139075D01*
X56826446Y-8104249D01*
X56839819Y-8075944D01*
X56860253Y-8043550D01*
X56949578Y-7963752D01*
X57079370Y-7917013D01*
X57253316Y-7901778D01*
X57423555Y-7901778D01*
X57423555Y-10526445D01*
G36*
X57423555Y-10526445D02*
G01*
X57261278Y-10524852D01*
X57160173Y-10520222D01*
X57019058Y-10493512D01*
X56917225Y-10440257D01*
X56846393Y-10357111D01*
X56845148Y-10354977D01*
X56830376Y-10327184D01*
X56818423Y-10295907D01*
X56808991Y-10255260D01*
X56801783Y-10199360D01*
X56796500Y-10122322D01*
X56792846Y-10018262D01*
X56790522Y-9881295D01*
X56789231Y-9705538D01*
X56788675Y-9485104D01*
X56788555Y-9214111D01*
X56788607Y-9055468D01*
X56789067Y-8811652D01*
X56790221Y-8615193D01*
X56792332Y-8460258D01*
X56795664Y-8341012D01*
X56800478Y-8251622D01*
X56807038Y-8186255D01*
X56815606Y-8139075D01*
X56826446Y-8104249D01*
X56839819Y-8075944D01*
X56860253Y-8043550D01*
X56949578Y-7963752D01*
X57079370Y-7917013D01*
X57253316Y-7901778D01*
X57423555Y-7901778D01*
X57423555Y-10526445D01*
G37*
X58625325Y-7600722D02*
X58584071Y-7884341D01*
X58569984Y-8212222D01*
X58572019Y-8369311D01*
X58591390Y-8635894D01*
X58633670Y-8864878D01*
X58701920Y-9066664D01*
X58799202Y-9251653D01*
X58928579Y-9430245D01*
X59059328Y-9589934D01*
X58738358Y-10545023D01*
X58670622Y-10746345D01*
X58600182Y-10955177D01*
X58536786Y-11142576D01*
X58482614Y-11302124D01*
X58439844Y-11427406D01*
X58410657Y-11512003D01*
X58397230Y-11549500D01*
X58395723Y-11552587D01*
X58387861Y-11560766D01*
X58372067Y-11567923D01*
X58344876Y-11574128D01*
X58302824Y-11579448D01*
X58242444Y-11583950D01*
X58160272Y-11587702D01*
X58052843Y-11590772D01*
X57916691Y-11593227D01*
X57748351Y-11595135D01*
X57544358Y-11596564D01*
X57301247Y-11597582D01*
X57015552Y-11598255D01*
X56683808Y-11598652D01*
X56302551Y-11598841D01*
X55868314Y-11598889D01*
X53359555Y-11598889D01*
X53359555Y-10979973D01*
X53901689Y-10979973D01*
X54438799Y-10963889D01*
X54562600Y-10625222D01*
X54649800Y-10386709D01*
X54739084Y-10142900D01*
X54812252Y-9944172D01*
X54871101Y-9786184D01*
X54917431Y-9664599D01*
X54953042Y-9575075D01*
X54979733Y-9513275D01*
X54999304Y-9474859D01*
X55013553Y-9455488D01*
X55024281Y-9450822D01*
X55033286Y-9456522D01*
X55042368Y-9468249D01*
X55049974Y-9479525D01*
X55086163Y-9540486D01*
X55136600Y-9631441D01*
X55192826Y-9737265D01*
X55306889Y-9956508D01*
X55306889Y-10978000D01*
X55786666Y-10978000D01*
X55786666Y-8000556D01*
X56308778Y-8000556D01*
X56308778Y-10399445D01*
X56375656Y-10534075D01*
X56425429Y-10617712D01*
X56544367Y-10754875D01*
X56688283Y-10865817D01*
X56840133Y-10935798D01*
X56852738Y-10939345D01*
X56944965Y-10957008D01*
X57071521Y-10969004D01*
X57239725Y-10975835D01*
X57456900Y-10978000D01*
X57931555Y-10978000D01*
X57931555Y-7450222D01*
X57428583Y-7450222D01*
X57256268Y-7451297D01*
X57073300Y-7456896D01*
X56930383Y-7468915D01*
X56818275Y-7489163D01*
X56727732Y-7519448D01*
X56649508Y-7561578D01*
X56574359Y-7617364D01*
X56530526Y-7659748D01*
X56456481Y-7750585D01*
X56392495Y-7849410D01*
X56308778Y-8000556D01*
X55786666Y-8000556D01*
X55786666Y-7450222D01*
X55306889Y-7450222D01*
X55306889Y-8256221D01*
X55306848Y-8303318D01*
X55305705Y-8505212D01*
X55303148Y-8685152D01*
X55299385Y-8836242D01*
X55294624Y-8951582D01*
X55289074Y-9024275D01*
X55282945Y-9047422D01*
X55278163Y-9041072D01*
X55251782Y-8992381D01*
X55206491Y-8901375D01*
X55145333Y-8774416D01*
X55071353Y-8617863D01*
X54987598Y-8438078D01*
X54897111Y-8241423D01*
X54535220Y-7450222D01*
X54039718Y-7450222D01*
X54366058Y-8120500D01*
X54448252Y-8289893D01*
X54528713Y-8456925D01*
X54597950Y-8601929D01*
X54652563Y-8717738D01*
X54689150Y-8797187D01*
X54704310Y-8833111D01*
X54704118Y-8838853D01*
X54690648Y-8889314D01*
X54659324Y-8984568D01*
X54612263Y-9118757D01*
X54551579Y-9286023D01*
X54479390Y-9480509D01*
X54397810Y-9696357D01*
X54308955Y-9927709D01*
X53901689Y-10979973D01*
X53359555Y-10979973D01*
X53359555Y-6829334D01*
X59036620Y-6829334D01*
X58933815Y-6949278D01*
X58929800Y-6953983D01*
X58796419Y-7141688D01*
X58695518Y-7355219D01*
X58668355Y-7450222D01*
X58625325Y-7600722D01*
G36*
X58625325Y-7600722D02*
G01*
X58584071Y-7884341D01*
X58569984Y-8212222D01*
X58572019Y-8369311D01*
X58591390Y-8635894D01*
X58633670Y-8864878D01*
X58701920Y-9066664D01*
X58799202Y-9251653D01*
X58928579Y-9430245D01*
X59059328Y-9589934D01*
X58738358Y-10545023D01*
X58670622Y-10746345D01*
X58600182Y-10955177D01*
X58536786Y-11142576D01*
X58482614Y-11302124D01*
X58439844Y-11427406D01*
X58410657Y-11512003D01*
X58397230Y-11549500D01*
X58395723Y-11552587D01*
X58387861Y-11560766D01*
X58372067Y-11567923D01*
X58344876Y-11574128D01*
X58302824Y-11579448D01*
X58242444Y-11583950D01*
X58160272Y-11587702D01*
X58052843Y-11590772D01*
X57916691Y-11593227D01*
X57748351Y-11595135D01*
X57544358Y-11596564D01*
X57301247Y-11597582D01*
X57015552Y-11598255D01*
X56683808Y-11598652D01*
X56302551Y-11598841D01*
X55868314Y-11598889D01*
X53359555Y-11598889D01*
X53359555Y-10979973D01*
X53901689Y-10979973D01*
X54438799Y-10963889D01*
X54562600Y-10625222D01*
X54649800Y-10386709D01*
X54739084Y-10142900D01*
X54812252Y-9944172D01*
X54871101Y-9786184D01*
X54917431Y-9664599D01*
X54953042Y-9575075D01*
X54979733Y-9513275D01*
X54999304Y-9474859D01*
X55013553Y-9455488D01*
X55024281Y-9450822D01*
X55033286Y-9456522D01*
X55042368Y-9468249D01*
X55049974Y-9479525D01*
X55086163Y-9540486D01*
X55136600Y-9631441D01*
X55192826Y-9737265D01*
X55306889Y-9956508D01*
X55306889Y-10978000D01*
X55786666Y-10978000D01*
X55786666Y-8000556D01*
X56308778Y-8000556D01*
X56308778Y-10399445D01*
X56375656Y-10534075D01*
X56425429Y-10617712D01*
X56544367Y-10754875D01*
X56688283Y-10865817D01*
X56840133Y-10935798D01*
X56852738Y-10939345D01*
X56944965Y-10957008D01*
X57071521Y-10969004D01*
X57239725Y-10975835D01*
X57456900Y-10978000D01*
X57931555Y-10978000D01*
X57931555Y-7450222D01*
X57428583Y-7450222D01*
X57256268Y-7451297D01*
X57073300Y-7456896D01*
X56930383Y-7468915D01*
X56818275Y-7489163D01*
X56727732Y-7519448D01*
X56649508Y-7561578D01*
X56574359Y-7617364D01*
X56530526Y-7659748D01*
X56456481Y-7750585D01*
X56392495Y-7849410D01*
X56308778Y-8000556D01*
X55786666Y-8000556D01*
X55786666Y-7450222D01*
X55306889Y-7450222D01*
X55306889Y-8256221D01*
X55306848Y-8303318D01*
X55305705Y-8505212D01*
X55303148Y-8685152D01*
X55299385Y-8836242D01*
X55294624Y-8951582D01*
X55289074Y-9024275D01*
X55282945Y-9047422D01*
X55278163Y-9041072D01*
X55251782Y-8992381D01*
X55206491Y-8901375D01*
X55145333Y-8774416D01*
X55071353Y-8617863D01*
X54987598Y-8438078D01*
X54897111Y-8241423D01*
X54535220Y-7450222D01*
X54039718Y-7450222D01*
X54366058Y-8120500D01*
X54448252Y-8289893D01*
X54528713Y-8456925D01*
X54597950Y-8601929D01*
X54652563Y-8717738D01*
X54689150Y-8797187D01*
X54704310Y-8833111D01*
X54704118Y-8838853D01*
X54690648Y-8889314D01*
X54659324Y-8984568D01*
X54612263Y-9118757D01*
X54551579Y-9286023D01*
X54479390Y-9480509D01*
X54397810Y-9696357D01*
X54308955Y-9927709D01*
X53901689Y-10979973D01*
X53359555Y-10979973D01*
X53359555Y-6829334D01*
X59036620Y-6829334D01*
X58933815Y-6949278D01*
X58929800Y-6953983D01*
X58796419Y-7141688D01*
X58695518Y-7355219D01*
X58668355Y-7450222D01*
X58625325Y-7600722D01*
G37*
%TD*%
D11*
%TO.C,J4*%
X113340000Y-5550000D03*
X113340000Y-8090000D03*
D12*
X113340000Y-10630000D03*
X113340000Y-13170000D03*
D11*
X113340000Y-15710000D03*
X113340000Y-18250000D03*
X113340000Y-20790000D03*
X113340000Y-23330000D03*
X113340000Y-25870000D03*
X113340000Y-28410000D03*
X113340000Y-30950000D03*
X113340000Y-33490000D03*
X113340000Y-36030000D03*
X113340000Y-38570000D03*
X113340000Y-41110000D03*
X113340000Y-43650000D03*
X113340000Y-46190000D03*
X113340000Y-48730000D03*
X113340000Y-51270000D03*
X113340000Y-53810000D03*
X113340000Y-56350000D03*
X113340000Y-58890000D03*
X113340000Y-61430000D03*
X113340000Y-63970000D03*
D12*
X113340000Y-66510000D03*
X113340000Y-69050000D03*
%TD*%
D13*
%TO.C,J5*%
X40600000Y-93115000D03*
X46380000Y-93115000D03*
D14*
X39170000Y-92615000D03*
D15*
X39170000Y-96795000D03*
D14*
X47810000Y-92615000D03*
D15*
X47810000Y-96795000D03*
%TD*%
D16*
%TO.C,J7*%
X66620000Y-50000000D03*
X66620000Y-52540000D03*
D17*
X66620000Y-55080000D03*
D16*
X66620000Y-57620000D03*
X66620000Y-60160000D03*
X66620000Y-62700000D03*
X66620000Y-65240000D03*
D17*
X66620000Y-67780000D03*
D16*
X66620000Y-70320000D03*
X66620000Y-72860000D03*
X66620000Y-75400000D03*
X66620000Y-77940000D03*
D17*
X66620000Y-80480000D03*
D16*
X66620000Y-83020000D03*
X66620000Y-85560000D03*
X66620000Y-88100000D03*
X66620000Y-90640000D03*
D17*
X66620000Y-93180000D03*
D16*
X66620000Y-95720000D03*
X66620000Y-98260000D03*
%TD*%
%TO.C,J6*%
X86400000Y-98260000D03*
X86400000Y-95720000D03*
D18*
X86400000Y-93180000D03*
D16*
X86400000Y-90640000D03*
X86400000Y-88100000D03*
X86400000Y-85560000D03*
X86400000Y-83020000D03*
D18*
X86400000Y-80480000D03*
D16*
X86400000Y-77940000D03*
X86400000Y-75400000D03*
X86400000Y-72860000D03*
X86400000Y-70320000D03*
D18*
X86400000Y-67780000D03*
D16*
X86400000Y-65240000D03*
X86400000Y-62700000D03*
X86400000Y-60160000D03*
X86400000Y-57620000D03*
D18*
X86400000Y-55080000D03*
D16*
X86400000Y-52540000D03*
X86400000Y-50000000D03*
%TD*%
D11*
%TO.C,J3*%
X6660000Y-5550000D03*
X6660000Y-8090000D03*
D12*
X6660000Y-10630000D03*
X6660000Y-13170000D03*
D11*
X6660000Y-15710000D03*
X6660000Y-18250000D03*
X6660000Y-20790000D03*
X6660000Y-23330000D03*
X6660000Y-25870000D03*
X6660000Y-28410000D03*
X6660000Y-30950000D03*
X6660000Y-33490000D03*
X6660000Y-36030000D03*
X6660000Y-38570000D03*
X6660000Y-41110000D03*
X6660000Y-43650000D03*
X6660000Y-46190000D03*
X6660000Y-48730000D03*
X6660000Y-51270000D03*
X6660000Y-53810000D03*
X6660000Y-56350000D03*
X6660000Y-58890000D03*
X6660000Y-61430000D03*
X6660000Y-63970000D03*
D12*
X6660000Y-66510000D03*
X6660000Y-69050000D03*
%TD*%
M02*
