%TF.GenerationSoftware,KiCad,Pcbnew,10.0.1*%
%TF.CreationDate,2026-04-27T16:36:54+02:00*%
%TF.ProjectId,usb_pd_pico_controller,7573625f-7064-45f7-9069-636f5f636f6e,1.0*%
%TF.SameCoordinates,PX2faf080PY2faf080*%
%TF.FileFunction,Paste,Top*%
%TF.FilePolarity,Positive*%
%FSLAX46Y46*%
G04 Gerber Fmt 4.6, Leading zero omitted, Abs format (unit mm)*
G04 Created by KiCad (PCBNEW 10.0.1) date 2026-04-27 16:36:54*
%MOMM*%
%LPD*%
G01*
G04 APERTURE LIST*
G04 Aperture macros list*
%AMRoundRect*
0 Rectangle with rounded corners*
0 $1 Rounding radius*
0 $2 $3 $4 $5 $6 $7 $8 $9 X,Y pos of 4 corners*
0 Add a 4 corners polygon primitive as box body*
4,1,4,$2,$3,$4,$5,$6,$7,$8,$9,$2,$3,0*
0 Add four circle primitives for the rounded corners*
1,1,$1+$1,$2,$3*
1,1,$1+$1,$4,$5*
1,1,$1+$1,$6,$7*
1,1,$1+$1,$8,$9*
0 Add four rect primitives between the rounded corners*
20,1,$1+$1,$2,$3,$4,$5,0*
20,1,$1+$1,$4,$5,$6,$7,0*
20,1,$1+$1,$6,$7,$8,$9,0*
20,1,$1+$1,$8,$9,$2,$3,0*%
G04 Aperture macros list end*
%ADD10C,0.010000*%
%ADD11RoundRect,0.172500X0.172500X-0.172500X0.172500X0.172500X-0.172500X0.172500X-0.172500X-0.172500X0*%
%ADD12RoundRect,0.062500X0.062500X-0.350000X0.062500X0.350000X-0.062500X0.350000X-0.062500X-0.350000X0*%
%ADD13RoundRect,0.062500X0.350000X-0.062500X0.350000X0.062500X-0.350000X0.062500X-0.350000X-0.062500X0*%
%ADD14RoundRect,0.225000X0.225000X0.250000X-0.225000X0.250000X-0.225000X-0.250000X0.225000X-0.250000X0*%
%ADD15RoundRect,0.250000X-0.325000X-0.650000X0.325000X-0.650000X0.325000X0.650000X-0.325000X0.650000X0*%
%ADD16RoundRect,0.250002X1.799998X-1.799998X1.799998X1.799998X-1.799998X1.799998X-1.799998X-1.799998X0*%
%ADD17RoundRect,0.250000X-0.650000X0.325000X-0.650000X-0.325000X0.650000X-0.325000X0.650000X0.325000X0*%
%ADD18RoundRect,0.150000X-0.150000X-0.625000X0.150000X-0.625000X0.150000X0.625000X-0.150000X0.625000X0*%
%ADD19RoundRect,0.250000X-0.350000X-0.650000X0.350000X-0.650000X0.350000X0.650000X-0.350000X0.650000X0*%
%ADD20RoundRect,0.087500X0.087500X0.312500X-0.087500X0.312500X-0.087500X-0.312500X0.087500X-0.312500X0*%
%ADD21RoundRect,0.200000X0.200000X0.275000X-0.200000X0.275000X-0.200000X-0.275000X0.200000X-0.275000X0*%
%ADD22RoundRect,0.200000X-0.200000X-0.275000X0.200000X-0.275000X0.200000X0.275000X-0.200000X0.275000X0*%
%ADD23RoundRect,0.225000X-0.250000X0.225000X-0.250000X-0.225000X0.250000X-0.225000X0.250000X0.225000X0*%
%ADD24R,1.700000X1.000000*%
%ADD25RoundRect,0.150000X-0.150000X-0.425000X0.150000X-0.425000X0.150000X0.425000X-0.150000X0.425000X0*%
%ADD26RoundRect,0.075000X-0.075000X-0.500000X0.075000X-0.500000X0.075000X0.500000X-0.075000X0.500000X0*%
%ADD27O,1.000000X2.100000*%
%ADD28O,1.000000X1.600000*%
%ADD29RoundRect,0.250000X0.650000X-0.325000X0.650000X0.325000X-0.650000X0.325000X-0.650000X-0.325000X0*%
%ADD30RoundRect,0.250002X1.799998X1.799998X-1.799998X1.799998X-1.799998X-1.799998X1.799998X-1.799998X0*%
%ADD31RoundRect,0.150000X0.150000X-0.512500X0.150000X0.512500X-0.150000X0.512500X-0.150000X-0.512500X0*%
%ADD32RoundRect,0.150000X-0.512500X-0.150000X0.512500X-0.150000X0.512500X0.150000X-0.512500X0.150000X0*%
%ADD33RoundRect,0.112500X0.112500X-0.350000X0.112500X0.350000X-0.112500X0.350000X-0.112500X-0.350000X0*%
%ADD34R,0.400000X0.750000*%
%ADD35RoundRect,0.225000X0.250000X-0.225000X0.250000X0.225000X-0.250000X0.225000X-0.250000X-0.225000X0*%
%ADD36RoundRect,0.087500X-0.087500X-0.312500X0.087500X-0.312500X0.087500X0.312500X-0.087500X0.312500X0*%
%ADD37RoundRect,0.225000X-0.225000X-0.250000X0.225000X-0.250000X0.225000X0.250000X-0.225000X0.250000X0*%
%ADD38RoundRect,0.225000X0.225000X0.375000X-0.225000X0.375000X-0.225000X-0.375000X0.225000X-0.375000X0*%
%ADD39RoundRect,0.250000X0.325000X0.650000X-0.325000X0.650000X-0.325000X-0.650000X0.325000X-0.650000X0*%
%ADD40RoundRect,0.250000X-0.250000X-0.475000X0.250000X-0.475000X0.250000X0.475000X-0.250000X0.475000X0*%
%ADD41RoundRect,0.250002X-1.799998X-1.799998X1.799998X-1.799998X1.799998X1.799998X-1.799998X1.799998X0*%
%ADD42RoundRect,0.150000X0.512500X0.150000X-0.512500X0.150000X-0.512500X-0.150000X0.512500X-0.150000X0*%
G04 APERTURE END LIST*
D10*
%TO.C,Q1*%
X38770000Y-70200000D02*
X38245000Y-70200000D01*
X38245000Y-69800000D01*
X38770000Y-69800000D01*
X38770000Y-70200000D01*
G36*
X38770000Y-70200000D02*
G01*
X38245000Y-70200000D01*
X38245000Y-69800000D01*
X38770000Y-69800000D01*
X38770000Y-70200000D01*
G37*
X40775000Y-70060000D02*
X39225000Y-70060000D01*
X39225000Y-68540000D01*
X40775000Y-68540000D01*
X40775000Y-70060000D01*
G36*
X40775000Y-70060000D02*
G01*
X39225000Y-70060000D01*
X39225000Y-68540000D01*
X40775000Y-68540000D01*
X40775000Y-70060000D01*
G37*
X41755000Y-70200000D02*
X41230000Y-70200000D01*
X41230000Y-69800000D01*
X41755000Y-69800000D01*
X41755000Y-70200000D01*
G36*
X41755000Y-70200000D02*
G01*
X41230000Y-70200000D01*
X41230000Y-69800000D01*
X41755000Y-69800000D01*
X41755000Y-70200000D01*
G37*
%TD*%
D11*
%TO.C,U1*%
X42975000Y-76425000D03*
X43825000Y-76425000D03*
X42975000Y-75575000D03*
X43825000Y-75575000D03*
D12*
X42650000Y-77462500D03*
X43150000Y-77462500D03*
X43650000Y-77462500D03*
X44150000Y-77462500D03*
D13*
X44862500Y-76750000D03*
X44862500Y-76250000D03*
X44862500Y-75750000D03*
X44862500Y-75250000D03*
D12*
X44150000Y-74537500D03*
X43650000Y-74537500D03*
X43150000Y-74537500D03*
X42650000Y-74537500D03*
D13*
X41937500Y-75250000D03*
X41937500Y-75750000D03*
X41937500Y-76250000D03*
X41937500Y-76750000D03*
%TD*%
D14*
%TO.C,C7*%
X94925000Y-5450000D03*
X93375000Y-5450000D03*
%TD*%
D15*
%TO.C,C14*%
X25645000Y-6830000D03*
X28595000Y-6830000D03*
%TD*%
D16*
%TO.C,L3*%
X9210000Y-85420000D03*
X9210000Y-75920000D03*
%TD*%
D17*
%TO.C,C24*%
X113340000Y-87942500D03*
X113340000Y-90892500D03*
%TD*%
D14*
%TO.C,C4*%
X44575000Y-70400000D03*
X43025000Y-70400000D03*
%TD*%
D18*
%TO.C,J1*%
X22940000Y-94950000D03*
X23940000Y-94950000D03*
X24940000Y-94950000D03*
X25940000Y-94950000D03*
D19*
X21640000Y-98825000D03*
X27240000Y-98825000D03*
%TD*%
D20*
%TO.C,D4*%
X37175000Y-68850000D03*
X36125000Y-68850000D03*
%TD*%
D17*
%TO.C,C19*%
X13010000Y-87895000D03*
X13010000Y-90845000D03*
%TD*%
D21*
%TO.C,R8*%
X44625000Y-72000000D03*
X42975000Y-72000000D03*
%TD*%
D22*
%TO.C,R9*%
X42975000Y-68800000D03*
X44625000Y-68800000D03*
%TD*%
D14*
%TO.C,C21*%
X110315000Y-93617500D03*
X108765000Y-93617500D03*
%TD*%
D23*
%TO.C,C17*%
X5810000Y-87695000D03*
X5810000Y-89245000D03*
%TD*%
D24*
%TO.C,SW1*%
X51727000Y-69159000D03*
X58027000Y-69159000D03*
X51727000Y-72959000D03*
X58027000Y-72959000D03*
%TD*%
D22*
%TO.C,R2*%
X94850000Y-90700000D03*
X96500000Y-90700000D03*
%TD*%
D25*
%TO.C,J5*%
X40290000Y-92050000D03*
X41090000Y-92050000D03*
D26*
X42240000Y-92050000D03*
X43240000Y-92050000D03*
X43740000Y-92050000D03*
X44740000Y-92050000D03*
D25*
X45890000Y-92050000D03*
X46690000Y-92050000D03*
X46690000Y-92050000D03*
X45890000Y-92050000D03*
D26*
X45240000Y-92050000D03*
X44240000Y-92050000D03*
X42740000Y-92050000D03*
X41740000Y-92050000D03*
D25*
X41090000Y-92050000D03*
X40290000Y-92050000D03*
D27*
X39170000Y-92615000D03*
D28*
X39170000Y-96795000D03*
D27*
X47810000Y-92615000D03*
D28*
X47810000Y-96795000D03*
%TD*%
D29*
%TO.C,C10*%
X30920000Y-8005000D03*
X30920000Y-5055000D03*
%TD*%
D15*
%TO.C,C15*%
X11835000Y-93170000D03*
X14785000Y-93170000D03*
%TD*%
%TO.C,C20*%
X112165000Y-93217500D03*
X115115000Y-93217500D03*
%TD*%
D22*
%TO.C,R7*%
X36775000Y-74800000D03*
X38425000Y-74800000D03*
%TD*%
D14*
%TO.C,C16*%
X9985000Y-93570000D03*
X8435000Y-93570000D03*
%TD*%
D17*
%TO.C,C5*%
X89450000Y-11475000D03*
X89450000Y-14425000D03*
%TD*%
D30*
%TO.C,L2*%
X23170000Y-10630000D03*
X13670000Y-10630000D03*
%TD*%
D22*
%TO.C,R3*%
X23600000Y-89025000D03*
X25250000Y-89025000D03*
%TD*%
D31*
%TO.C,U5*%
X108590000Y-91555000D03*
X109540000Y-91555000D03*
X110490000Y-91555000D03*
X110490000Y-89280000D03*
X109540000Y-89280000D03*
X108590000Y-89280000D03*
%TD*%
D17*
%TO.C,C23*%
X115740000Y-87942500D03*
X115740000Y-90892500D03*
%TD*%
D32*
%TO.C,U2*%
X91112500Y-7900000D03*
X91112500Y-8850000D03*
X91112500Y-9800000D03*
X93387500Y-9800000D03*
X93387500Y-8850000D03*
X93387500Y-7900000D03*
%TD*%
D21*
%TO.C,R6*%
X38425000Y-73200000D03*
X36775000Y-73200000D03*
%TD*%
D14*
%TO.C,C3*%
X38375000Y-76400000D03*
X36825000Y-76400000D03*
%TD*%
D15*
%TO.C,C13*%
X25645000Y-4430000D03*
X28595000Y-4430000D03*
%TD*%
D31*
%TO.C,U4*%
X8260000Y-91507500D03*
X9210000Y-91507500D03*
X10160000Y-91507500D03*
X10160000Y-89232500D03*
X9210000Y-89232500D03*
X8260000Y-89232500D03*
%TD*%
D22*
%TO.C,R4*%
X94850000Y-89000000D03*
X96500000Y-89000000D03*
%TD*%
D33*
%TO.C,D3*%
X46750000Y-80087500D03*
X48050000Y-80087500D03*
X47400000Y-78312500D03*
%TD*%
D34*
%TO.C,Q1*%
X39025000Y-71525000D03*
X39675000Y-71525000D03*
X40325000Y-71525000D03*
X40975000Y-71525000D03*
%TD*%
D21*
%TO.C,R5*%
X38425000Y-79600000D03*
X36775000Y-79600000D03*
%TD*%
D35*
%TO.C,C6*%
X89050000Y-9625000D03*
X89050000Y-8075000D03*
%TD*%
D23*
%TO.C,C11*%
X31320000Y-9855000D03*
X31320000Y-11405000D03*
%TD*%
D18*
%TO.C,J2*%
X94060000Y-94950000D03*
X95060000Y-94950000D03*
X96060000Y-94950000D03*
X97060000Y-94950000D03*
D19*
X92760000Y-98825000D03*
X98360000Y-98825000D03*
%TD*%
D36*
%TO.C,D2*%
X41255000Y-85820000D03*
X42305000Y-85820000D03*
%TD*%
D37*
%TO.C,C12*%
X25445000Y-14030000D03*
X26995000Y-14030000D03*
%TD*%
D17*
%TO.C,C18*%
X15410000Y-87895000D03*
X15410000Y-90845000D03*
%TD*%
D14*
%TO.C,C2*%
X38375000Y-78000000D03*
X36825000Y-78000000D03*
%TD*%
D38*
%TO.C,D1*%
X60650000Y-95720000D03*
X57350000Y-95720000D03*
%TD*%
D39*
%TO.C,C9*%
X94725000Y-12650000D03*
X91775000Y-12650000D03*
%TD*%
D23*
%TO.C,C22*%
X106140000Y-87742500D03*
X106140000Y-89292500D03*
%TD*%
D39*
%TO.C,C8*%
X94725000Y-15050000D03*
X91775000Y-15050000D03*
%TD*%
D40*
%TO.C,C1*%
X41480000Y-81310000D03*
X43380000Y-81310000D03*
%TD*%
D22*
%TO.C,R1*%
X23600000Y-90700000D03*
X25250000Y-90700000D03*
%TD*%
D16*
%TO.C,L4*%
X109540000Y-85467500D03*
X109540000Y-75967500D03*
%TD*%
D41*
%TO.C,L1*%
X97200000Y-8850000D03*
X106700000Y-8850000D03*
%TD*%
D42*
%TO.C,U3*%
X29257500Y-11580000D03*
X29257500Y-10630000D03*
X29257500Y-9680000D03*
X26982500Y-9680000D03*
X26982500Y-10630000D03*
X26982500Y-11580000D03*
%TD*%
M02*
