M48
; DRILL file KiCad 10.0.1 date 2026-04-27T16:36:56
; FORMAT={-:-/ absolute / metric / decimal}
; #@! TF.CreationDate,2026-04-27T16:36:56+02:00
; #@! TF.GenerationSoftware,Kicad,Pcbnew,10.0.1
; #@! TF.FileFunction,Plated,1,2,PTH
FMAT,2
METRIC
; #@! TA.AperFunction,Plated,PTH,ViaDrill
T1C0.300
; #@! TA.AperFunction,Plated,PTH,ViaDrill
T2C0.400
; #@! TA.AperFunction,Plated,PTH,ComponentDrill
T3C0.600
; #@! TA.AperFunction,Plated,PTH,ComponentDrill
T4C1.000
%
G90
G05
T1
X4.95Y-72.3
X5.85Y-71.8
X12.0Y-95.53
X24.94Y-93.575
X27.225Y-94.075
X39.81Y-79.6
X39.81Y-85.81
X41.95Y-73.64
X43.65Y-73.64
X56.3Y-75.25
X60.925Y-76.7
X96.05Y-96.225
X113.5Y-72.125
X114.75Y-71.625
T2
X1.12Y-71.2
X1.19Y-65.19
X3.35Y-78.48
X7.35Y-93.55
X7.56Y-90.34
X8.45Y-94.68
X10.18Y-88.07
X10.36Y-95.53
X10.97Y-88.89
X11.41Y-90.78
X11.42Y-91.53
X11.47Y-88.3
X11.85Y-84.82
X12.52Y-89.57
X13.46Y-89.57
X13.73Y-93.63
X13.74Y-92.67
X13.93Y-83.26
X14.91Y-89.62
X15.86Y-89.61
X16.88Y-89.4
X16.91Y-86.8
X17.36Y-81.14
X19.58Y-92.46
X20.31Y-83.4
X20.87Y-77.85
X20.88Y-89.93
X21.01Y-5.91
X21.175Y-92.0
X21.49Y-94.24
X22.43Y-75.99
X22.57Y-7.99
X22.68Y-91.83
X22.87Y-96.62
X23.47Y-80.24
X24.54Y-91.95
X25.03Y-78.63
X25.59Y-98.18
X25.82Y-9.66
X26.05Y-8.37
X26.64Y-8.87
X26.89Y-92.96
X27.32Y-6.38
X27.32Y-7.32
X27.36Y-3.98
X27.37Y-4.93
X27.45Y-96.7
X28.09Y-12.28
X28.53Y-8.43
X28.7Y-97.46
X29.28Y-8.42
X30.42Y-6.1
X31.3Y-12.49
X31.38Y-6.11
X32.28Y-13.66
X32.43Y-11.39
X34.0Y-8.0
X34.0Y-9.825
X35.88Y-9.0
X35.99Y-12.34
X36.0Y-78.82
X36.01Y-77.22
X36.78Y-72.25
X37.59Y-78.82
X37.63Y-34.18
X38.05Y-67.61
X38.17Y-59.69
X38.17Y-82.73
X38.19Y-80.69
X38.2Y-37.25
X38.21Y-64.33
X38.23Y-32.04
X38.24Y-57.53
X38.25Y-49.62
X38.3Y-20.57
X38.39Y-44.46
X38.39Y-47.47
X38.43Y-42.42
X38.46Y-40.8
X39.07Y-73.2
X39.12Y-90.9
X39.34Y-66.0
X39.7Y-73.2
X39.81Y-81.29
X40.0Y-65.34
X40.0Y-66.0
X40.0Y-66.67
X40.32Y-73.2
X40.65Y-66.0
X40.76Y-17.13
X41.09Y-90.01
X41.09Y-90.62
X41.09Y-91.24
X41.26Y-74.47
X41.33Y-77.48
X41.41Y-78.66
X41.42Y-82.75
X41.44Y-72.25
X41.55Y-42.38
X41.6Y-37.35
X41.6Y-40.82
X41.6Y-88.24
X41.64Y-47.45
X41.69Y-31.76
X41.71Y-20.68
X41.71Y-49.64
X41.73Y-64.41
X41.78Y-57.48
X41.78Y-59.56
X41.83Y-67.35
X41.92Y-34.23
X42.51Y-73.0
X42.98Y-78.98
X43.18Y-85.7
X43.6Y-82.98
X43.73Y-79.88
X43.92Y-86.81
X44.36Y-73.1
X44.64Y-80.88
X44.88Y-78.07
X44.92Y-84.08
X45.505Y-80.89
X45.52Y-74.38
X45.86Y-77.04
X45.89Y-89.985
X45.89Y-90.62
X45.89Y-91.25
X46.4Y-78.23
X46.55Y-85.05
X46.66Y-89.06
X47.32Y-81.63
X47.62Y-90.69
X48.33Y-78.22
X48.76Y-85.84
X48.88Y-80.83
X49.76Y-93.33
X50.69Y-96.2
X51.76Y-70.39
X53.64Y-99.26
X53.68Y-95.35
X55.1Y-95.725
X55.65Y-97.0
X56.05Y-87.16
X56.13Y-94.46
X56.38Y-80.96
X57.636Y-77.614
X58.09Y-70.43
X58.09Y-89.25
X58.11Y-82.15
X58.25Y-87.11
X58.726Y-78.704
X59.15Y-77.0
X59.9Y-77.8
X59.95Y-77.0
X60.221Y-80.199
X61.25Y-79.0
X61.45Y-75.15
X62.25Y-79.05
X62.85Y-76.85
X80.71Y-17.07
X80.86Y-20.87
X84.26Y-18.97
X84.31Y-13.23
X86.35Y-9.725
X86.35Y-11.475
X87.81Y-15.53
X87.94Y-8.09
X88.99Y-13.37
X89.07Y-6.99
X89.95Y-13.38
X91.09Y-11.06
X91.84Y-11.05
X92.28Y-7.2
X93.0Y-14.55
X93.01Y-15.5
X93.05Y-12.16
X93.05Y-13.1
X93.73Y-10.61
X94.32Y-11.11
X94.55Y-9.82
X95.76Y-91.97
X97.8Y-11.49
X98.36Y-38.47
X98.55Y-73.2
X98.56Y-66.29
X98.59Y-42.7
X98.59Y-76.27
X98.63Y-69.8
X98.68Y-79.71
X98.7Y-47.68
X98.71Y-50.65
X98.81Y-45.73
X99.36Y-13.57
X101.88Y-36.56
X102.0Y-63.07
X102.01Y-47.43
X102.03Y-39.75
X102.11Y-66.47
X102.14Y-44.39
X102.16Y-76.64
X102.18Y-69.76
X102.22Y-42.55
X102.22Y-73.24
X107.68Y-93.597
X107.89Y-90.388
X108.78Y-94.727
X110.35Y-96.225
X110.51Y-88.117
X111.3Y-88.938
X111.74Y-90.828
X111.75Y-91.578
X111.8Y-88.347
X112.18Y-84.867
X112.3Y-96.225
X112.85Y-89.617
X113.79Y-89.617
X114.06Y-93.677
X114.07Y-92.718
X114.26Y-83.307
X115.24Y-89.667
X115.63Y-77.75
X116.19Y-89.657
X118.68Y-65.3
X118.71Y-70.64
T4
X6.66Y-5.55
X6.66Y-8.09
X6.66Y-10.63
X6.66Y-13.17
X6.66Y-15.71
X6.66Y-18.25
X6.66Y-20.79
X6.66Y-23.33
X6.66Y-25.87
X6.66Y-28.41
X6.66Y-30.95
X6.66Y-33.49
X6.66Y-36.03
X6.66Y-38.57
X6.66Y-41.11
X6.66Y-43.65
X6.66Y-46.19
X6.66Y-48.73
X6.66Y-51.27
X6.66Y-53.81
X6.66Y-56.35
X6.66Y-58.89
X6.66Y-61.43
X6.66Y-63.97
X6.66Y-66.51
X6.66Y-69.05
X67.62Y-50.0
X67.62Y-52.54
X67.62Y-55.08
X67.62Y-57.62
X67.62Y-60.16
X67.62Y-62.7
X67.62Y-65.24
X67.62Y-67.78
X67.62Y-70.32
X67.62Y-72.86
X67.62Y-75.4
X67.62Y-77.94
X67.62Y-80.48
X67.62Y-83.02
X67.62Y-85.56
X67.62Y-88.1
X67.62Y-90.64
X67.62Y-93.18
X67.62Y-95.72
X67.62Y-98.26
X85.4Y-50.0
X85.4Y-52.54
X85.4Y-55.08
X85.4Y-57.62
X85.4Y-60.16
X85.4Y-62.7
X85.4Y-65.24
X85.4Y-67.78
X85.4Y-70.32
X85.4Y-72.86
X85.4Y-75.4
X85.4Y-77.94
X85.4Y-80.48
X85.4Y-83.02
X85.4Y-85.56
X85.4Y-88.1
X85.4Y-90.64
X85.4Y-93.18
X85.4Y-95.72
X85.4Y-98.26
X113.34Y-5.55
X113.34Y-8.09
X113.34Y-10.63
X113.34Y-13.17
X113.34Y-15.71
X113.34Y-18.25
X113.34Y-20.79
X113.34Y-23.33
X113.34Y-25.87
X113.34Y-28.41
X113.34Y-30.95
X113.34Y-33.49
X113.34Y-36.03
X113.34Y-38.57
X113.34Y-41.11
X113.34Y-43.65
X113.34Y-46.19
X113.34Y-48.73
X113.34Y-51.27
X113.34Y-53.81
X113.34Y-56.35
X113.34Y-58.89
X113.34Y-61.43
X113.34Y-63.97
X113.34Y-66.51
X113.34Y-69.05
T3
G00X39.17Y-92.065
M15
G01X39.17Y-93.165
M16
G05
G00X39.17Y-96.495
M15
G01X39.17Y-97.095
M16
G05
G00X47.81Y-92.065
M15
G01X47.81Y-93.165
M16
G05
G00X47.81Y-96.495
M15
G01X47.81Y-97.095
M16
G05
M30
