%TF.GenerationSoftware,KiCad,Pcbnew,10.0.1*%
%TF.CreationDate,2026-04-27T16:35:00+02:00*%
%TF.ProjectId,sao_connector_board,73616f5f-636f-46e6-9e65-63746f725f62,1.0*%
%TF.SameCoordinates,PX3938700PY3938700*%
%TF.FileFunction,Paste,Bot*%
%TF.FilePolarity,Positive*%
%FSLAX46Y46*%
G04 Gerber Fmt 4.6, Leading zero omitted, Abs format (unit mm)*
G04 Created by KiCad (PCBNEW 10.0.1) date 2026-04-27 16:35:00*
%MOMM*%
%LPD*%
G01*
G04 APERTURE LIST*
G04 Aperture macros list*
%AMRoundRect*
0 Rectangle with rounded corners*
0 $1 Rounding radius*
0 $2 $3 $4 $5 $6 $7 $8 $9 X,Y pos of 4 corners*
0 Add a 4 corners polygon primitive as box body*
4,1,4,$2,$3,$4,$5,$6,$7,$8,$9,$2,$3,0*
0 Add four circle primitives for the rounded corners*
1,1,$1+$1,$2,$3*
1,1,$1+$1,$4,$5*
1,1,$1+$1,$6,$7*
1,1,$1+$1,$8,$9*
0 Add four rect primitives between the rounded corners*
20,1,$1+$1,$2,$3,$4,$5,0*
20,1,$1+$1,$4,$5,$6,$7,0*
20,1,$1+$1,$6,$7,$8,$9,0*
20,1,$1+$1,$8,$9,$2,$3,0*%
G04 Aperture macros list end*
%ADD10RoundRect,0.250001X-0.462499X-0.624999X0.462499X-0.624999X0.462499X0.624999X-0.462499X0.624999X0*%
%ADD11R,2.510000X1.000000*%
G04 APERTURE END LIST*
D10*
%TO.C,F16*%
X261012500Y-363500000D03*
X263987500Y-363500000D03*
%TD*%
%TO.C,F4*%
X260512500Y-63500000D03*
X263487500Y-63500000D03*
%TD*%
%TO.C,F5*%
X36012500Y-163500000D03*
X38987500Y-163500000D03*
%TD*%
%TO.C,F15*%
X186012500Y-363500000D03*
X188987500Y-363500000D03*
%TD*%
%TO.C,F7*%
X186012500Y-163500000D03*
X188987500Y-163500000D03*
%TD*%
%TO.C,F10*%
X111012500Y-263500000D03*
X113987500Y-263500000D03*
%TD*%
%TO.C,F13*%
X36012500Y-363500000D03*
X38987500Y-363500000D03*
%TD*%
%TO.C,F11*%
X186012500Y-263500000D03*
X188987500Y-263500000D03*
%TD*%
D11*
%TO.C,J2*%
X204995000Y-225550000D03*
X201685000Y-228090000D03*
X204995000Y-230630000D03*
X201685000Y-233170000D03*
X204995000Y-235710000D03*
X201685000Y-238250000D03*
X204995000Y-240790000D03*
X201685000Y-243330000D03*
X204995000Y-245870000D03*
X201685000Y-248410000D03*
X204995000Y-250950000D03*
X201685000Y-253490000D03*
X204995000Y-256030000D03*
X201685000Y-258570000D03*
X204995000Y-261110000D03*
X201685000Y-263650000D03*
X204995000Y-266190000D03*
X201685000Y-268730000D03*
X204995000Y-271270000D03*
X201685000Y-273810000D03*
X204995000Y-276350000D03*
X201685000Y-278890000D03*
X204995000Y-281430000D03*
X201685000Y-283970000D03*
X204995000Y-286510000D03*
X201685000Y-289050000D03*
%TD*%
%TO.C,J1*%
X98315000Y-225550000D03*
X95005000Y-228090000D03*
X98315000Y-230630000D03*
X95005000Y-233170000D03*
X98315000Y-235710000D03*
X95005000Y-238250000D03*
X98315000Y-240790000D03*
X95005000Y-243330000D03*
X98315000Y-245870000D03*
X95005000Y-248410000D03*
X98315000Y-250950000D03*
X95005000Y-253490000D03*
X98315000Y-256030000D03*
X95005000Y-258570000D03*
X98315000Y-261110000D03*
X95005000Y-263650000D03*
X98315000Y-266190000D03*
X95005000Y-268730000D03*
X98315000Y-271270000D03*
X95005000Y-273810000D03*
X98315000Y-276350000D03*
X95005000Y-278890000D03*
X98315000Y-281430000D03*
X95005000Y-283970000D03*
X98315000Y-286510000D03*
X95005000Y-289050000D03*
%TD*%
D10*
%TO.C,F6*%
X111012500Y-163500000D03*
X113987500Y-163500000D03*
%TD*%
%TO.C,F12*%
X261012500Y-263500000D03*
X263987500Y-263500000D03*
%TD*%
%TO.C,F3*%
X186012500Y-63500000D03*
X188987500Y-63500000D03*
%TD*%
%TO.C,F2*%
X111012500Y-63500000D03*
X113987500Y-63500000D03*
%TD*%
%TO.C,F14*%
X111012500Y-363500000D03*
X113987500Y-363500000D03*
%TD*%
%TO.C,F1*%
X36012500Y-63500000D03*
X38987500Y-63500000D03*
%TD*%
%TO.C,F8*%
X261012500Y-163500000D03*
X263987500Y-163500000D03*
%TD*%
%TO.C,F9*%
X36012500Y-263500000D03*
X38987500Y-263500000D03*
%TD*%
M02*
