%TF.GenerationSoftware,KiCad,Pcbnew,10.0.1*%
%TF.CreationDate,2026-04-27T16:35:01+02:00*%
%TF.ProjectId,sao_connector_board,73616f5f-636f-46e6-9e65-63746f725f62,1.0*%
%TF.SameCoordinates,PX3938700PY3938700*%
%TF.FileFunction,Soldermask,Bot*%
%TF.FilePolarity,Negative*%
%FSLAX46Y46*%
G04 Gerber Fmt 4.6, Leading zero omitted, Abs format (unit mm)*
G04 Created by KiCad (PCBNEW 10.0.1) date 2026-04-27 16:35:01*
%MOMM*%
%LPD*%
G01*
G04 APERTURE LIST*
G04 Aperture macros list*
%AMRoundRect*
0 Rectangle with rounded corners*
0 $1 Rounding radius*
0 $2 $3 $4 $5 $6 $7 $8 $9 X,Y pos of 4 corners*
0 Add a 4 corners polygon primitive as box body*
4,1,4,$2,$3,$4,$5,$6,$7,$8,$9,$2,$3,0*
0 Add four circle primitives for the rounded corners*
1,1,$1+$1,$2,$3*
1,1,$1+$1,$4,$5*
1,1,$1+$1,$6,$7*
1,1,$1+$1,$8,$9*
0 Add four rect primitives between the rounded corners*
20,1,$1+$1,$2,$3,$4,$5,0*
20,1,$1+$1,$4,$5,$6,$7,0*
20,1,$1+$1,$6,$7,$8,$9,0*
20,1,$1+$1,$8,$9,$2,$3,0*%
G04 Aperture macros list end*
%ADD10C,0.010000*%
%ADD11O,1.727200X1.727200*%
%ADD12R,1.727200X1.727200*%
%ADD13C,1.727200*%
%ADD14C,3.200000*%
%ADD15RoundRect,0.250001X-0.462499X-0.624999X0.462499X-0.624999X0.462499X0.624999X-0.462499X0.624999X0*%
%ADD16R,2.510000X1.000000*%
G04 APERTURE END LIST*
D10*
%TO.C,G\u002A\u002A\u002A*%
X74394532Y-341310719D02*
X74638348Y-341311179D01*
X74834807Y-341312333D01*
X74989742Y-341314444D01*
X75108988Y-341317776D01*
X75198378Y-341322590D01*
X75263745Y-341329150D01*
X75310925Y-341337718D01*
X75345751Y-341348558D01*
X75374056Y-341361931D01*
X75406450Y-341382365D01*
X75486248Y-341471690D01*
X75532987Y-341601482D01*
X75548222Y-341775428D01*
X75548222Y-341945667D01*
X72923555Y-341945667D01*
X72925148Y-341783390D01*
X72929778Y-341682285D01*
X72956488Y-341541170D01*
X73009743Y-341439337D01*
X73092889Y-341368505D01*
X73095023Y-341367260D01*
X73122816Y-341352488D01*
X73154093Y-341340535D01*
X73194740Y-341331103D01*
X73250640Y-341323895D01*
X73327678Y-341318612D01*
X73431738Y-341314958D01*
X73568705Y-341312634D01*
X73744462Y-341311343D01*
X73964896Y-341310787D01*
X74235889Y-341310667D01*
X74394532Y-341310719D01*
G36*
X74394532Y-341310719D02*
G01*
X74638348Y-341311179D01*
X74834807Y-341312333D01*
X74989742Y-341314444D01*
X75108988Y-341317776D01*
X75198378Y-341322590D01*
X75263745Y-341329150D01*
X75310925Y-341337718D01*
X75345751Y-341348558D01*
X75374056Y-341361931D01*
X75406450Y-341382365D01*
X75486248Y-341471690D01*
X75532987Y-341601482D01*
X75548222Y-341775428D01*
X75548222Y-341945667D01*
X72923555Y-341945667D01*
X72925148Y-341783390D01*
X72929778Y-341682285D01*
X72956488Y-341541170D01*
X73009743Y-341439337D01*
X73092889Y-341368505D01*
X73095023Y-341367260D01*
X73122816Y-341352488D01*
X73154093Y-341340535D01*
X73194740Y-341331103D01*
X73250640Y-341323895D01*
X73327678Y-341318612D01*
X73431738Y-341314958D01*
X73568705Y-341312634D01*
X73744462Y-341311343D01*
X73964896Y-341310787D01*
X74235889Y-341310667D01*
X74394532Y-341310719D01*
G37*
X76620666Y-343558732D02*
X76500722Y-343455927D01*
X76496017Y-343451912D01*
X76308312Y-343318531D01*
X76094781Y-343217630D01*
X75999778Y-343190467D01*
X75849278Y-343147437D01*
X75565659Y-343106183D01*
X75237778Y-343092096D01*
X75080689Y-343094131D01*
X74814106Y-343113502D01*
X74585122Y-343155782D01*
X74383336Y-343224032D01*
X74198347Y-343321314D01*
X74019755Y-343450691D01*
X73860066Y-343581440D01*
X72904977Y-343260470D01*
X72703655Y-343192734D01*
X72494823Y-343122294D01*
X72307424Y-343058898D01*
X72147876Y-343004726D01*
X72022594Y-342961956D01*
X71937997Y-342932769D01*
X71900500Y-342919342D01*
X71897413Y-342917835D01*
X71889234Y-342909973D01*
X71882077Y-342894179D01*
X71875872Y-342866988D01*
X71870552Y-342824936D01*
X71866050Y-342764556D01*
X71862298Y-342682384D01*
X71859228Y-342574955D01*
X71856773Y-342438803D01*
X71854865Y-342270463D01*
X71853436Y-342066470D01*
X71853070Y-341979012D01*
X72472000Y-341979012D01*
X72472000Y-342453667D01*
X75999778Y-342453667D01*
X75999778Y-341950695D01*
X75998703Y-341778380D01*
X75993104Y-341595412D01*
X75981085Y-341452495D01*
X75960837Y-341340387D01*
X75930552Y-341249844D01*
X75888422Y-341171620D01*
X75832636Y-341096471D01*
X75790252Y-341052638D01*
X75699415Y-340978593D01*
X75600590Y-340914607D01*
X75449444Y-340830890D01*
X73050555Y-340830890D01*
X72915925Y-340897768D01*
X72832288Y-340947541D01*
X72695125Y-341066479D01*
X72584183Y-341210395D01*
X72514202Y-341362245D01*
X72510655Y-341374850D01*
X72492992Y-341467077D01*
X72480996Y-341593633D01*
X72474165Y-341761837D01*
X72472000Y-341979012D01*
X71853070Y-341979012D01*
X71852418Y-341823359D01*
X71851745Y-341537664D01*
X71851348Y-341205920D01*
X71851159Y-340824663D01*
X71851111Y-340390426D01*
X71851111Y-338423801D01*
X72470027Y-338423801D01*
X72486111Y-338960911D01*
X72824778Y-339084712D01*
X73063291Y-339171912D01*
X73307100Y-339261196D01*
X73505828Y-339334364D01*
X73663816Y-339393213D01*
X73785401Y-339439543D01*
X73874925Y-339475154D01*
X73936725Y-339501845D01*
X73975141Y-339521416D01*
X73994512Y-339535665D01*
X73999178Y-339546393D01*
X73993478Y-339555398D01*
X73981751Y-339564480D01*
X73970475Y-339572086D01*
X73909514Y-339608275D01*
X73818559Y-339658712D01*
X73712735Y-339714938D01*
X73493492Y-339829001D01*
X72472000Y-339829001D01*
X72472000Y-340308778D01*
X75999778Y-340308778D01*
X75999778Y-339829001D01*
X75193779Y-339829001D01*
X75146682Y-339828960D01*
X74944788Y-339827817D01*
X74764848Y-339825260D01*
X74613758Y-339821497D01*
X74498418Y-339816736D01*
X74425725Y-339811186D01*
X74402578Y-339805057D01*
X74408928Y-339800275D01*
X74457619Y-339773894D01*
X74548625Y-339728603D01*
X74675584Y-339667445D01*
X74832137Y-339593465D01*
X75011922Y-339509710D01*
X75208577Y-339419223D01*
X75999778Y-339057332D01*
X75999778Y-338561830D01*
X75329500Y-338888170D01*
X75160107Y-338970364D01*
X74993075Y-339050825D01*
X74848071Y-339120062D01*
X74732262Y-339174675D01*
X74652813Y-339211262D01*
X74616889Y-339226422D01*
X74611147Y-339226230D01*
X74560686Y-339212760D01*
X74465432Y-339181436D01*
X74331243Y-339134375D01*
X74163977Y-339073691D01*
X73969491Y-339001502D01*
X73753643Y-338919922D01*
X73522291Y-338831067D01*
X72470027Y-338423801D01*
X71851111Y-338423801D01*
X71851111Y-337881667D01*
X76620666Y-337881667D01*
X76620666Y-343558732D01*
G36*
X76620666Y-343558732D02*
G01*
X76500722Y-343455927D01*
X76496017Y-343451912D01*
X76308312Y-343318531D01*
X76094781Y-343217630D01*
X75999778Y-343190467D01*
X75849278Y-343147437D01*
X75565659Y-343106183D01*
X75237778Y-343092096D01*
X75080689Y-343094131D01*
X74814106Y-343113502D01*
X74585122Y-343155782D01*
X74383336Y-343224032D01*
X74198347Y-343321314D01*
X74019755Y-343450691D01*
X73860066Y-343581440D01*
X72904977Y-343260470D01*
X72703655Y-343192734D01*
X72494823Y-343122294D01*
X72307424Y-343058898D01*
X72147876Y-343004726D01*
X72022594Y-342961956D01*
X71937997Y-342932769D01*
X71900500Y-342919342D01*
X71897413Y-342917835D01*
X71889234Y-342909973D01*
X71882077Y-342894179D01*
X71875872Y-342866988D01*
X71870552Y-342824936D01*
X71866050Y-342764556D01*
X71862298Y-342682384D01*
X71859228Y-342574955D01*
X71856773Y-342438803D01*
X71854865Y-342270463D01*
X71853436Y-342066470D01*
X71853070Y-341979012D01*
X72472000Y-341979012D01*
X72472000Y-342453667D01*
X75999778Y-342453667D01*
X75999778Y-341950695D01*
X75998703Y-341778380D01*
X75993104Y-341595412D01*
X75981085Y-341452495D01*
X75960837Y-341340387D01*
X75930552Y-341249844D01*
X75888422Y-341171620D01*
X75832636Y-341096471D01*
X75790252Y-341052638D01*
X75699415Y-340978593D01*
X75600590Y-340914607D01*
X75449444Y-340830890D01*
X73050555Y-340830890D01*
X72915925Y-340897768D01*
X72832288Y-340947541D01*
X72695125Y-341066479D01*
X72584183Y-341210395D01*
X72514202Y-341362245D01*
X72510655Y-341374850D01*
X72492992Y-341467077D01*
X72480996Y-341593633D01*
X72474165Y-341761837D01*
X72472000Y-341979012D01*
X71853070Y-341979012D01*
X71852418Y-341823359D01*
X71851745Y-341537664D01*
X71851348Y-341205920D01*
X71851159Y-340824663D01*
X71851111Y-340390426D01*
X71851111Y-338423801D01*
X72470027Y-338423801D01*
X72486111Y-338960911D01*
X72824778Y-339084712D01*
X73063291Y-339171912D01*
X73307100Y-339261196D01*
X73505828Y-339334364D01*
X73663816Y-339393213D01*
X73785401Y-339439543D01*
X73874925Y-339475154D01*
X73936725Y-339501845D01*
X73975141Y-339521416D01*
X73994512Y-339535665D01*
X73999178Y-339546393D01*
X73993478Y-339555398D01*
X73981751Y-339564480D01*
X73970475Y-339572086D01*
X73909514Y-339608275D01*
X73818559Y-339658712D01*
X73712735Y-339714938D01*
X73493492Y-339829001D01*
X72472000Y-339829001D01*
X72472000Y-340308778D01*
X75999778Y-340308778D01*
X75999778Y-339829001D01*
X75193779Y-339829001D01*
X75146682Y-339828960D01*
X74944788Y-339827817D01*
X74764848Y-339825260D01*
X74613758Y-339821497D01*
X74498418Y-339816736D01*
X74425725Y-339811186D01*
X74402578Y-339805057D01*
X74408928Y-339800275D01*
X74457619Y-339773894D01*
X74548625Y-339728603D01*
X74675584Y-339667445D01*
X74832137Y-339593465D01*
X75011922Y-339509710D01*
X75208577Y-339419223D01*
X75999778Y-339057332D01*
X75999778Y-338561830D01*
X75329500Y-338888170D01*
X75160107Y-338970364D01*
X74993075Y-339050825D01*
X74848071Y-339120062D01*
X74732262Y-339174675D01*
X74652813Y-339211262D01*
X74616889Y-339226422D01*
X74611147Y-339226230D01*
X74560686Y-339212760D01*
X74465432Y-339181436D01*
X74331243Y-339134375D01*
X74163977Y-339073691D01*
X73969491Y-339001502D01*
X73753643Y-338919922D01*
X73522291Y-338831067D01*
X72470027Y-338423801D01*
X71851111Y-338423801D01*
X71851111Y-337881667D01*
X76620666Y-337881667D01*
X76620666Y-343558732D01*
G37*
%TD*%
D11*
%TO.C,X16*%
X260020000Y-368750000D03*
D12*
X260020000Y-371290000D03*
D11*
X262560000Y-368750000D03*
X262560000Y-371290000D03*
D13*
X265100000Y-368750000D03*
X265100000Y-371290000D03*
%TD*%
D11*
%TO.C,X15*%
X185020000Y-368750000D03*
D12*
X185020000Y-371290000D03*
D11*
X187560000Y-368750000D03*
X187560000Y-371290000D03*
D13*
X190100000Y-368750000D03*
X190100000Y-371290000D03*
%TD*%
D11*
%TO.C,X14*%
X110020000Y-368750000D03*
D12*
X110020000Y-371290000D03*
D11*
X112560000Y-368750000D03*
X112560000Y-371290000D03*
D13*
X115100000Y-368750000D03*
X115100000Y-371290000D03*
%TD*%
D11*
%TO.C,X13*%
X35020000Y-368750000D03*
D12*
X35020000Y-371290000D03*
D11*
X37560000Y-368750000D03*
X37560000Y-371290000D03*
D13*
X40100000Y-368750000D03*
X40100000Y-371290000D03*
%TD*%
D11*
%TO.C,X12*%
X260020000Y-268750000D03*
D12*
X260020000Y-271290000D03*
D11*
X262560000Y-268750000D03*
X262560000Y-271290000D03*
D13*
X265100000Y-268750000D03*
X265100000Y-271290000D03*
%TD*%
D11*
%TO.C,X11*%
X185020000Y-268750000D03*
D12*
X185020000Y-271290000D03*
D11*
X187560000Y-268750000D03*
X187560000Y-271290000D03*
D13*
X190100000Y-268750000D03*
X190100000Y-271290000D03*
%TD*%
D11*
%TO.C,X10*%
X110020000Y-268750000D03*
D12*
X110020000Y-271290000D03*
D11*
X112560000Y-268750000D03*
X112560000Y-271290000D03*
D13*
X115100000Y-268750000D03*
X115100000Y-271290000D03*
%TD*%
D11*
%TO.C,X9*%
X35020000Y-268750000D03*
D12*
X35020000Y-271290000D03*
D11*
X37560000Y-268750000D03*
X37560000Y-271290000D03*
D13*
X40100000Y-268750000D03*
X40100000Y-271290000D03*
%TD*%
D11*
%TO.C,X8*%
X260020000Y-168750000D03*
D12*
X260020000Y-171290000D03*
D11*
X262560000Y-168750000D03*
X262560000Y-171290000D03*
D13*
X265100000Y-168750000D03*
X265100000Y-171290000D03*
%TD*%
D11*
%TO.C,X7*%
X185020000Y-168750000D03*
D12*
X185020000Y-171290000D03*
D11*
X187560000Y-168750000D03*
X187560000Y-171290000D03*
D13*
X190100000Y-168750000D03*
X190100000Y-171290000D03*
%TD*%
D11*
%TO.C,X6*%
X110020000Y-168750000D03*
D12*
X110020000Y-171290000D03*
D11*
X112560000Y-168750000D03*
X112560000Y-171290000D03*
D13*
X115100000Y-168750000D03*
X115100000Y-171290000D03*
%TD*%
D11*
%TO.C,X5*%
X35020000Y-168750000D03*
D12*
X35020000Y-171290000D03*
D11*
X37560000Y-168750000D03*
X37560000Y-171290000D03*
D13*
X40100000Y-168750000D03*
X40100000Y-171290000D03*
%TD*%
D11*
%TO.C,X4*%
X259577852Y-68486815D03*
D12*
X259577852Y-71026815D03*
D11*
X262117852Y-68486815D03*
X262117852Y-71026815D03*
D13*
X264657852Y-68486815D03*
X264657852Y-71026815D03*
%TD*%
D11*
%TO.C,X3*%
X185020000Y-68750000D03*
D12*
X185020000Y-71290000D03*
D11*
X187560000Y-68750000D03*
X187560000Y-71290000D03*
D13*
X190100000Y-68750000D03*
X190100000Y-71290000D03*
%TD*%
D11*
%TO.C,X2*%
X110020000Y-68750000D03*
D12*
X110020000Y-71290000D03*
D11*
X112560000Y-68750000D03*
X112560000Y-71290000D03*
D13*
X115100000Y-68750000D03*
X115100000Y-71290000D03*
%TD*%
D11*
%TO.C,X1*%
X35020000Y-68750000D03*
D12*
X35020000Y-71290000D03*
D11*
X37560000Y-68750000D03*
X37560000Y-71290000D03*
D13*
X40100000Y-68750000D03*
X40100000Y-71290000D03*
%TD*%
D14*
%TO.C,REF\u002A\u002A*%
X5000000Y-5000000D03*
%TD*%
%TO.C,REF\u002A\u002A*%
X295000000Y-395000000D03*
%TD*%
%TO.C,REF\u002A\u002A*%
X5000000Y-395000000D03*
%TD*%
%TO.C,REF\u002A\u002A*%
X5000000Y-200000000D03*
%TD*%
%TO.C,REF\u002A\u002A*%
X295000000Y-5000000D03*
%TD*%
%TO.C,REF\u002A\u002A*%
X295000000Y-200000000D03*
%TD*%
D15*
%TO.C,F16*%
X261012500Y-363500000D03*
X263987500Y-363500000D03*
%TD*%
%TO.C,F4*%
X260512500Y-63500000D03*
X263487500Y-63500000D03*
%TD*%
%TO.C,F5*%
X36012500Y-163500000D03*
X38987500Y-163500000D03*
%TD*%
%TO.C,F15*%
X186012500Y-363500000D03*
X188987500Y-363500000D03*
%TD*%
%TO.C,F7*%
X186012500Y-163500000D03*
X188987500Y-163500000D03*
%TD*%
%TO.C,F10*%
X111012500Y-263500000D03*
X113987500Y-263500000D03*
%TD*%
%TO.C,F13*%
X36012500Y-363500000D03*
X38987500Y-363500000D03*
%TD*%
%TO.C,F11*%
X186012500Y-263500000D03*
X188987500Y-263500000D03*
%TD*%
D16*
%TO.C,J2*%
X204995000Y-225550000D03*
X201685000Y-228090000D03*
X204995000Y-230630000D03*
X201685000Y-233170000D03*
X204995000Y-235710000D03*
X201685000Y-238250000D03*
X204995000Y-240790000D03*
X201685000Y-243330000D03*
X204995000Y-245870000D03*
X201685000Y-248410000D03*
X204995000Y-250950000D03*
X201685000Y-253490000D03*
X204995000Y-256030000D03*
X201685000Y-258570000D03*
X204995000Y-261110000D03*
X201685000Y-263650000D03*
X204995000Y-266190000D03*
X201685000Y-268730000D03*
X204995000Y-271270000D03*
X201685000Y-273810000D03*
X204995000Y-276350000D03*
X201685000Y-278890000D03*
X204995000Y-281430000D03*
X201685000Y-283970000D03*
X204995000Y-286510000D03*
X201685000Y-289050000D03*
%TD*%
%TO.C,J1*%
X98315000Y-225550000D03*
X95005000Y-228090000D03*
X98315000Y-230630000D03*
X95005000Y-233170000D03*
X98315000Y-235710000D03*
X95005000Y-238250000D03*
X98315000Y-240790000D03*
X95005000Y-243330000D03*
X98315000Y-245870000D03*
X95005000Y-248410000D03*
X98315000Y-250950000D03*
X95005000Y-253490000D03*
X98315000Y-256030000D03*
X95005000Y-258570000D03*
X98315000Y-261110000D03*
X95005000Y-263650000D03*
X98315000Y-266190000D03*
X95005000Y-268730000D03*
X98315000Y-271270000D03*
X95005000Y-273810000D03*
X98315000Y-276350000D03*
X95005000Y-278890000D03*
X98315000Y-281430000D03*
X95005000Y-283970000D03*
X98315000Y-286510000D03*
X95005000Y-289050000D03*
%TD*%
D15*
%TO.C,F6*%
X111012500Y-163500000D03*
X113987500Y-163500000D03*
%TD*%
%TO.C,F12*%
X261012500Y-263500000D03*
X263987500Y-263500000D03*
%TD*%
%TO.C,F3*%
X186012500Y-63500000D03*
X188987500Y-63500000D03*
%TD*%
%TO.C,F2*%
X111012500Y-63500000D03*
X113987500Y-63500000D03*
%TD*%
%TO.C,F14*%
X111012500Y-363500000D03*
X113987500Y-363500000D03*
%TD*%
%TO.C,F1*%
X36012500Y-63500000D03*
X38987500Y-63500000D03*
%TD*%
%TO.C,F8*%
X261012500Y-163500000D03*
X263987500Y-163500000D03*
%TD*%
%TO.C,F9*%
X36012500Y-263500000D03*
X38987500Y-263500000D03*
%TD*%
M02*
