%TF.GenerationSoftware,KiCad,Pcbnew,10.0.1*%
%TF.CreationDate,2026-04-27T16:35:00+02:00*%
%TF.ProjectId,sao_connector_board,73616f5f-636f-46e6-9e65-63746f725f62,1.0*%
%TF.SameCoordinates,PX3938700PY3938700*%
%TF.FileFunction,Copper,L1,Top*%
%TF.FilePolarity,Positive*%
%FSLAX46Y46*%
G04 Gerber Fmt 4.6, Leading zero omitted, Abs format (unit mm)*
G04 Created by KiCad (PCBNEW 10.0.1) date 2026-04-27 16:35:00*
%MOMM*%
%LPD*%
G01*
G04 APERTURE LIST*
%TA.AperFunction,ComponentPad*%
%ADD10O,1.727200X1.727200*%
%TD*%
%TA.AperFunction,ComponentPad*%
%ADD11R,1.727200X1.727200*%
%TD*%
%TA.AperFunction,ComponentPad*%
%ADD12C,1.727200*%
%TD*%
%TA.AperFunction,ViaPad*%
%ADD13C,0.600000*%
%TD*%
G04 APERTURE END LIST*
D10*
%TO.P,X16,1,VCC_1*%
%TO.N,Net-(X16-VCC)*%
X260020000Y-368750000D03*
D11*
%TO.P,X16,2,GND_2*%
%TO.N,GND*%
X260020000Y-371290000D03*
D10*
%TO.P,X16,3,SDA_3*%
%TO.N,SDA_RIGHT*%
X262560000Y-368750000D03*
%TO.P,X16,4,SCL_4*%
%TO.N,SCL_RIGHT*%
X262560000Y-371290000D03*
D12*
%TO.P,X16,5,GPIO1_5*%
%TO.N,SAO16_GPIO1*%
X265100000Y-368750000D03*
%TO.P,X16,6,GPIO2_6*%
%TO.N,SAO16_GPIO2*%
X265100000Y-371290000D03*
%TD*%
D10*
%TO.P,X15,1,VCC_1*%
%TO.N,Net-(X15-VCC)*%
X185020000Y-368750000D03*
D11*
%TO.P,X15,2,GND_2*%
%TO.N,GND*%
X185020000Y-371290000D03*
D10*
%TO.P,X15,3,SDA_3*%
%TO.N,SDA_RIGHT*%
X187560000Y-368750000D03*
%TO.P,X15,4,SCL_4*%
%TO.N,SCL_RIGHT*%
X187560000Y-371290000D03*
D12*
%TO.P,X15,5,GPIO1_5*%
%TO.N,SAO15_GPIO1*%
X190100000Y-368750000D03*
%TO.P,X15,6,GPIO2_6*%
%TO.N,SAO15_GPIO2*%
X190100000Y-371290000D03*
%TD*%
D10*
%TO.P,X14,1,VCC_1*%
%TO.N,Net-(X14-VCC)*%
X110020000Y-368750000D03*
D11*
%TO.P,X14,2,GND_2*%
%TO.N,GND*%
X110020000Y-371290000D03*
D10*
%TO.P,X14,3,SDA_3*%
%TO.N,SDA_LEFT*%
X112560000Y-368750000D03*
%TO.P,X14,4,SCL_4*%
%TO.N,SCL_LEFT*%
X112560000Y-371290000D03*
D12*
%TO.P,X14,5,GPIO1_5*%
%TO.N,SAO14_GPIO1*%
X115100000Y-368750000D03*
%TO.P,X14,6,GPIO2_6*%
%TO.N,SAO14_GPIO2*%
X115100000Y-371290000D03*
%TD*%
D10*
%TO.P,X13,1,VCC_1*%
%TO.N,Net-(X13-VCC)*%
X35020000Y-368750000D03*
D11*
%TO.P,X13,2,GND_2*%
%TO.N,GND*%
X35020000Y-371290000D03*
D10*
%TO.P,X13,3,SDA_3*%
%TO.N,SDA_LEFT*%
X37560000Y-368750000D03*
%TO.P,X13,4,SCL_4*%
%TO.N,SCL_LEFT*%
X37560000Y-371290000D03*
D12*
%TO.P,X13,5,GPIO1_5*%
%TO.N,SAO13_GPIO1*%
X40100000Y-368750000D03*
%TO.P,X13,6,GPIO2_6*%
%TO.N,SAO13_GPIO2*%
X40100000Y-371290000D03*
%TD*%
D10*
%TO.P,X12,1,VCC_1*%
%TO.N,Net-(X12-VCC)*%
X260020000Y-268750000D03*
D11*
%TO.P,X12,2,GND_2*%
%TO.N,GND*%
X260020000Y-271290000D03*
D10*
%TO.P,X12,3,SDA_3*%
%TO.N,SDA_RIGHT*%
X262560000Y-268750000D03*
%TO.P,X12,4,SCL_4*%
%TO.N,SCL_RIGHT*%
X262560000Y-271290000D03*
D12*
%TO.P,X12,5,GPIO1_5*%
%TO.N,SAO12_GPIO1*%
X265100000Y-268750000D03*
%TO.P,X12,6,GPIO2_6*%
%TO.N,SAO12_GPIO2*%
X265100000Y-271290000D03*
%TD*%
D10*
%TO.P,X11,1,VCC_1*%
%TO.N,Net-(X11-VCC)*%
X185020000Y-268750000D03*
D11*
%TO.P,X11,2,GND_2*%
%TO.N,GND*%
X185020000Y-271290000D03*
D10*
%TO.P,X11,3,SDA_3*%
%TO.N,SDA_RIGHT*%
X187560000Y-268750000D03*
%TO.P,X11,4,SCL_4*%
%TO.N,SCL_RIGHT*%
X187560000Y-271290000D03*
D12*
%TO.P,X11,5,GPIO1_5*%
%TO.N,SAO11_GPIO1*%
X190100000Y-268750000D03*
%TO.P,X11,6,GPIO2_6*%
%TO.N,SAO11_GPIO2*%
X190100000Y-271290000D03*
%TD*%
D10*
%TO.P,X10,1,VCC_1*%
%TO.N,Net-(X10-VCC)*%
X110020000Y-268750000D03*
D11*
%TO.P,X10,2,GND_2*%
%TO.N,GND*%
X110020000Y-271290000D03*
D10*
%TO.P,X10,3,SDA_3*%
%TO.N,SDA_LEFT*%
X112560000Y-268750000D03*
%TO.P,X10,4,SCL_4*%
%TO.N,SCL_LEFT*%
X112560000Y-271290000D03*
D12*
%TO.P,X10,5,GPIO1_5*%
%TO.N,SAO10_GPIO1*%
X115100000Y-268750000D03*
%TO.P,X10,6,GPIO2_6*%
%TO.N,SAO10_GPIO2*%
X115100000Y-271290000D03*
%TD*%
D10*
%TO.P,X9,1,VCC_1*%
%TO.N,Net-(X9-VCC)*%
X35020000Y-268750000D03*
D11*
%TO.P,X9,2,GND_2*%
%TO.N,GND*%
X35020000Y-271290000D03*
D10*
%TO.P,X9,3,SDA_3*%
%TO.N,SDA_LEFT*%
X37560000Y-268750000D03*
%TO.P,X9,4,SCL_4*%
%TO.N,SCL_LEFT*%
X37560000Y-271290000D03*
D12*
%TO.P,X9,5,GPIO1_5*%
%TO.N,SAO9_GPIO1*%
X40100000Y-268750000D03*
%TO.P,X9,6,GPIO2_6*%
%TO.N,SAO9_GPIO2*%
X40100000Y-271290000D03*
%TD*%
D10*
%TO.P,X8,1,VCC_1*%
%TO.N,Net-(X8-VCC)*%
X260020000Y-168750000D03*
D11*
%TO.P,X8,2,GND_2*%
%TO.N,GND*%
X260020000Y-171290000D03*
D10*
%TO.P,X8,3,SDA_3*%
%TO.N,SDA_RIGHT*%
X262560000Y-168750000D03*
%TO.P,X8,4,SCL_4*%
%TO.N,SCL_RIGHT*%
X262560000Y-171290000D03*
D12*
%TO.P,X8,5,GPIO1_5*%
%TO.N,SAO8_GPIO1*%
X265100000Y-168750000D03*
%TO.P,X8,6,GPIO2_6*%
%TO.N,SAO8_GPIO2*%
X265100000Y-171290000D03*
%TD*%
D10*
%TO.P,X7,1,VCC_1*%
%TO.N,Net-(X7-VCC)*%
X185020000Y-168750000D03*
D11*
%TO.P,X7,2,GND_2*%
%TO.N,GND*%
X185020000Y-171290000D03*
D10*
%TO.P,X7,3,SDA_3*%
%TO.N,SDA_RIGHT*%
X187560000Y-168750000D03*
%TO.P,X7,4,SCL_4*%
%TO.N,SCL_RIGHT*%
X187560000Y-171290000D03*
D12*
%TO.P,X7,5,GPIO1_5*%
%TO.N,SAO7_GPIO1*%
X190100000Y-168750000D03*
%TO.P,X7,6,GPIO2_6*%
%TO.N,SAO7_GPIO2*%
X190100000Y-171290000D03*
%TD*%
D10*
%TO.P,X6,1,VCC_1*%
%TO.N,Net-(X6-VCC)*%
X110020000Y-168750000D03*
D11*
%TO.P,X6,2,GND_2*%
%TO.N,GND*%
X110020000Y-171290000D03*
D10*
%TO.P,X6,3,SDA_3*%
%TO.N,SDA_LEFT*%
X112560000Y-168750000D03*
%TO.P,X6,4,SCL_4*%
%TO.N,SCL_LEFT*%
X112560000Y-171290000D03*
D12*
%TO.P,X6,5,GPIO1_5*%
%TO.N,SAO6_GPIO1*%
X115100000Y-168750000D03*
%TO.P,X6,6,GPIO2_6*%
%TO.N,SAO6_GPIO2*%
X115100000Y-171290000D03*
%TD*%
D10*
%TO.P,X5,1,VCC_1*%
%TO.N,Net-(X5-VCC)*%
X35020000Y-168750000D03*
D11*
%TO.P,X5,2,GND_2*%
%TO.N,GND*%
X35020000Y-171290000D03*
D10*
%TO.P,X5,3,SDA_3*%
%TO.N,SDA_LEFT*%
X37560000Y-168750000D03*
%TO.P,X5,4,SCL_4*%
%TO.N,SCL_LEFT*%
X37560000Y-171290000D03*
D12*
%TO.P,X5,5,GPIO1_5*%
%TO.N,SAO5_GPIO1*%
X40100000Y-168750000D03*
%TO.P,X5,6,GPIO2_6*%
%TO.N,SAO5_GPIO2*%
X40100000Y-171290000D03*
%TD*%
D10*
%TO.P,X4,1,VCC_1*%
%TO.N,Net-(X4-VCC)*%
X259577852Y-68486815D03*
D11*
%TO.P,X4,2,GND_2*%
%TO.N,GND*%
X259577852Y-71026815D03*
D10*
%TO.P,X4,3,SDA_3*%
%TO.N,SDA_RIGHT*%
X262117852Y-68486815D03*
%TO.P,X4,4,SCL_4*%
%TO.N,SCL_RIGHT*%
X262117852Y-71026815D03*
D12*
%TO.P,X4,5,GPIO1_5*%
%TO.N,SAO4_GPIO1*%
X264657852Y-68486815D03*
%TO.P,X4,6,GPIO2_6*%
%TO.N,SAO4_GPIO2*%
X264657852Y-71026815D03*
%TD*%
D10*
%TO.P,X3,1,VCC_1*%
%TO.N,Net-(X3-VCC)*%
X185020000Y-68750000D03*
D11*
%TO.P,X3,2,GND_2*%
%TO.N,GND*%
X185020000Y-71290000D03*
D10*
%TO.P,X3,3,SDA_3*%
%TO.N,SDA_RIGHT*%
X187560000Y-68750000D03*
%TO.P,X3,4,SCL_4*%
%TO.N,SCL_RIGHT*%
X187560000Y-71290000D03*
D12*
%TO.P,X3,5,GPIO1_5*%
%TO.N,SAO3_GPIO1*%
X190100000Y-68750000D03*
%TO.P,X3,6,GPIO2_6*%
%TO.N,SAO3_GPIO2*%
X190100000Y-71290000D03*
%TD*%
D10*
%TO.P,X2,1,VCC_1*%
%TO.N,Net-(X2-VCC)*%
X110020000Y-68750000D03*
D11*
%TO.P,X2,2,GND_2*%
%TO.N,GND*%
X110020000Y-71290000D03*
D10*
%TO.P,X2,3,SDA_3*%
%TO.N,SDA_LEFT*%
X112560000Y-68750000D03*
%TO.P,X2,4,SCL_4*%
%TO.N,SCL_LEFT*%
X112560000Y-71290000D03*
D12*
%TO.P,X2,5,GPIO1_5*%
%TO.N,SAO2_GPIO1*%
X115100000Y-68750000D03*
%TO.P,X2,6,GPIO2_6*%
%TO.N,SAO2_GPIO2*%
X115100000Y-71290000D03*
%TD*%
D10*
%TO.P,X1,1,VCC_1*%
%TO.N,Net-(X1-VCC)*%
X35020000Y-68750000D03*
D11*
%TO.P,X1,2,GND_2*%
%TO.N,GND*%
X35020000Y-71290000D03*
D10*
%TO.P,X1,3,SDA_3*%
%TO.N,SDA_LEFT*%
X37560000Y-68750000D03*
%TO.P,X1,4,SCL_4*%
%TO.N,SCL_LEFT*%
X37560000Y-71290000D03*
D12*
%TO.P,X1,5,GPIO1_5*%
%TO.N,SAO1_GPIO1*%
X40100000Y-68750000D03*
%TO.P,X1,6,GPIO2_6*%
%TO.N,SAO1_GPIO2*%
X40100000Y-71290000D03*
%TD*%
D13*
%TO.N,GND*%
X203790000Y-233180000D03*
X202900000Y-230690000D03*
X203670000Y-289090000D03*
X203010000Y-286530000D03*
X96990000Y-289090000D03*
X96300000Y-286560000D03*
X96180000Y-230660000D03*
X97130000Y-233220000D03*
X36650000Y-367500000D03*
X41650000Y-372050000D03*
X38900000Y-372250000D03*
X41700000Y-369800000D03*
X33200000Y-370900000D03*
X33150000Y-369350000D03*
X117950000Y-371400000D03*
X117950000Y-369500000D03*
X111800000Y-367350000D03*
X108250000Y-370700000D03*
X108250000Y-369150000D03*
X191800000Y-367750000D03*
X191750000Y-369900000D03*
X191750000Y-372200000D03*
X188900000Y-367650000D03*
X183000000Y-370900000D03*
X183000000Y-369100000D03*
X261700000Y-367500000D03*
X267850000Y-370900000D03*
X267800000Y-369400000D03*
X258150000Y-370600000D03*
X258100000Y-369250000D03*
X261650000Y-267450000D03*
X263950000Y-272350000D03*
X267950000Y-271100000D03*
X267850000Y-269400000D03*
X258150000Y-270750000D03*
X258150000Y-269400000D03*
X191500000Y-269950000D03*
X183100000Y-270950000D03*
X183100000Y-269550000D03*
X113800000Y-270050000D03*
X114350000Y-272900000D03*
X117100000Y-270900000D03*
X117150000Y-269300000D03*
X108200000Y-270850000D03*
X108200000Y-269200000D03*
X41500000Y-267900000D03*
X41800000Y-270650000D03*
X38900000Y-272350000D03*
X33250000Y-270750000D03*
X33300000Y-269350000D03*
X41550000Y-168100000D03*
X37600000Y-172950000D03*
X43200000Y-171200000D03*
X43200000Y-169250000D03*
X33350000Y-170900000D03*
X33300000Y-169250000D03*
X108350000Y-170500000D03*
X108350000Y-169000000D03*
X113900000Y-172350000D03*
X117750000Y-170900000D03*
X117800000Y-169350000D03*
X187400000Y-172800000D03*
X183300000Y-170600000D03*
X183300000Y-169000000D03*
X191800000Y-171450000D03*
X191800000Y-169400000D03*
X190800000Y-72600000D03*
X188800000Y-72350000D03*
X263850000Y-172550000D03*
X258350000Y-170700000D03*
X258350000Y-169350000D03*
X267800000Y-170650000D03*
X267800000Y-169000000D03*
X267500000Y-70600000D03*
X267500000Y-68950000D03*
X257700000Y-70500000D03*
X257650000Y-68900000D03*
X192200000Y-70700000D03*
X191900000Y-69250000D03*
X183350000Y-70550000D03*
X183350000Y-69350000D03*
X116750000Y-72200000D03*
X108300000Y-70550000D03*
X108350000Y-69500000D03*
X116650000Y-70000000D03*
X42100000Y-70400000D03*
X41550000Y-69600000D03*
X33400000Y-70550000D03*
X33400000Y-69600000D03*
%TD*%
%TA.AperFunction,Conductor*%
%TO.N,GND*%
G36*
X299708691Y-269407D02*
G01*
X299744655Y-318907D01*
X299749500Y-349500D01*
X299749500Y-399650500D01*
X299730593Y-399708691D01*
X299681093Y-399744655D01*
X299650500Y-399749500D01*
X349500Y-399749500D01*
X291309Y-399730593D01*
X255345Y-399681093D01*
X250500Y-399650500D01*
X250500Y-394885265D01*
X3249500Y-394885265D01*
X3249500Y-395114734D01*
X3279452Y-395342238D01*
X3338841Y-395563885D01*
X3426653Y-395775883D01*
X3426656Y-395775888D01*
X3541389Y-395974612D01*
X3681081Y-396156661D01*
X3843339Y-396318919D01*
X4025388Y-396458611D01*
X4224112Y-396573344D01*
X4224113Y-396573344D01*
X4224116Y-396573346D01*
X4320167Y-396613131D01*
X4436113Y-396661158D01*
X4657762Y-396720548D01*
X4885266Y-396750500D01*
X4885267Y-396750500D01*
X5114733Y-396750500D01*
X5114734Y-396750500D01*
X5342238Y-396720548D01*
X5563887Y-396661158D01*
X5775888Y-396573344D01*
X5974612Y-396458611D01*
X6156661Y-396318919D01*
X6318919Y-396156661D01*
X6458611Y-395974612D01*
X6573344Y-395775888D01*
X6661158Y-395563887D01*
X6720548Y-395342238D01*
X6750500Y-395114734D01*
X6750500Y-394885266D01*
X6750500Y-394885265D01*
X293249500Y-394885265D01*
X293249500Y-395114734D01*
X293279452Y-395342238D01*
X293338841Y-395563885D01*
X293426653Y-395775883D01*
X293426656Y-395775888D01*
X293541389Y-395974612D01*
X293681081Y-396156661D01*
X293843339Y-396318919D01*
X294025388Y-396458611D01*
X294224112Y-396573344D01*
X294224113Y-396573344D01*
X294224116Y-396573346D01*
X294320167Y-396613131D01*
X294436113Y-396661158D01*
X294657762Y-396720548D01*
X294885266Y-396750500D01*
X294885267Y-396750500D01*
X295114733Y-396750500D01*
X295114734Y-396750500D01*
X295342238Y-396720548D01*
X295563887Y-396661158D01*
X295775888Y-396573344D01*
X295974612Y-396458611D01*
X296156661Y-396318919D01*
X296318919Y-396156661D01*
X296458611Y-395974612D01*
X296573344Y-395775888D01*
X296661158Y-395563887D01*
X296720548Y-395342238D01*
X296750500Y-395114734D01*
X296750500Y-394885266D01*
X296720548Y-394657762D01*
X296661158Y-394436113D01*
X296573344Y-394224112D01*
X296458611Y-394025388D01*
X296318919Y-393843339D01*
X296156661Y-393681081D01*
X295974612Y-393541389D01*
X295974613Y-393541389D01*
X295974611Y-393541388D01*
X295775883Y-393426653D01*
X295563885Y-393338841D01*
X295342238Y-393279452D01*
X295114734Y-393249500D01*
X294885266Y-393249500D01*
X294885265Y-393249500D01*
X294657761Y-393279452D01*
X294436114Y-393338841D01*
X294224116Y-393426653D01*
X294025388Y-393541388D01*
X293843342Y-393681078D01*
X293681078Y-393843342D01*
X293541388Y-394025388D01*
X293426653Y-394224116D01*
X293338841Y-394436114D01*
X293279452Y-394657761D01*
X293249500Y-394885265D01*
X6750500Y-394885265D01*
X6720548Y-394657762D01*
X6661158Y-394436113D01*
X6573344Y-394224112D01*
X6458611Y-394025388D01*
X6318919Y-393843339D01*
X6156661Y-393681081D01*
X5974612Y-393541389D01*
X5974613Y-393541389D01*
X5974611Y-393541388D01*
X5775883Y-393426653D01*
X5563885Y-393338841D01*
X5342238Y-393279452D01*
X5114734Y-393249500D01*
X4885266Y-393249500D01*
X4885265Y-393249500D01*
X4657761Y-393279452D01*
X4436114Y-393338841D01*
X4224116Y-393426653D01*
X4025388Y-393541388D01*
X3843342Y-393681078D01*
X3681078Y-393843342D01*
X3541388Y-394025388D01*
X3426653Y-394224116D01*
X3338841Y-394436114D01*
X3279452Y-394657761D01*
X3249500Y-394885265D01*
X250500Y-394885265D01*
X250500Y-371690001D01*
X33956400Y-371690001D01*
X33956400Y-372173300D01*
X33968003Y-372231636D01*
X34012206Y-372297789D01*
X34012210Y-372297793D01*
X34078363Y-372341996D01*
X34136699Y-372353599D01*
X34136703Y-372353600D01*
X34619999Y-372353600D01*
X34620000Y-372353599D01*
X34620000Y-371690001D01*
X34619999Y-371690000D01*
X33956401Y-371690000D01*
X33956400Y-371690001D01*
X250500Y-371690001D01*
X250500Y-371223120D01*
X34512000Y-371223120D01*
X34512000Y-371356880D01*
X34546619Y-371486081D01*
X34613498Y-371601920D01*
X34708080Y-371696502D01*
X34823919Y-371763381D01*
X34953120Y-371798000D01*
X35086880Y-371798000D01*
X35216081Y-371763381D01*
X35331920Y-371696502D01*
X35338421Y-371690001D01*
X35420000Y-371690001D01*
X35420000Y-372353599D01*
X35420001Y-372353600D01*
X35903297Y-372353600D01*
X35903300Y-372353599D01*
X35961636Y-372341996D01*
X36027789Y-372297793D01*
X36027793Y-372297789D01*
X36071996Y-372231636D01*
X36083599Y-372173300D01*
X36083600Y-372173297D01*
X36083600Y-371690001D01*
X36083599Y-371690000D01*
X35420001Y-371690000D01*
X35420000Y-371690001D01*
X35338421Y-371690001D01*
X35426502Y-371601920D01*
X35493381Y-371486081D01*
X35528000Y-371356880D01*
X35528000Y-371223120D01*
X35517837Y-371185192D01*
X36495900Y-371185192D01*
X36495900Y-371394807D01*
X36536792Y-371600385D01*
X36617006Y-371794039D01*
X36617007Y-371794040D01*
X36733459Y-371968324D01*
X36881676Y-372116541D01*
X37055960Y-372232993D01*
X37249613Y-372313207D01*
X37455195Y-372354100D01*
X37455196Y-372354100D01*
X37664804Y-372354100D01*
X37664805Y-372354100D01*
X37870387Y-372313207D01*
X38064040Y-372232993D01*
X38238324Y-372116541D01*
X38386541Y-371968324D01*
X38502993Y-371794040D01*
X38583207Y-371600387D01*
X38624100Y-371394805D01*
X38624100Y-371185195D01*
X38624099Y-371185192D01*
X39035900Y-371185192D01*
X39035900Y-371394807D01*
X39076792Y-371600385D01*
X39157006Y-371794039D01*
X39157007Y-371794040D01*
X39273459Y-371968324D01*
X39421676Y-372116541D01*
X39595960Y-372232993D01*
X39789613Y-372313207D01*
X39995195Y-372354100D01*
X39995196Y-372354100D01*
X40204804Y-372354100D01*
X40204805Y-372354100D01*
X40410387Y-372313207D01*
X40604040Y-372232993D01*
X40778324Y-372116541D01*
X40926541Y-371968324D01*
X41042993Y-371794040D01*
X41086088Y-371690001D01*
X108956400Y-371690001D01*
X108956400Y-372173300D01*
X108968003Y-372231636D01*
X109012206Y-372297789D01*
X109012210Y-372297793D01*
X109078363Y-372341996D01*
X109136699Y-372353599D01*
X109136703Y-372353600D01*
X109619999Y-372353600D01*
X109620000Y-372353599D01*
X109620000Y-371690001D01*
X109619999Y-371690000D01*
X108956401Y-371690000D01*
X108956400Y-371690001D01*
X41086088Y-371690001D01*
X41123207Y-371600387D01*
X41164100Y-371394805D01*
X41164100Y-371223120D01*
X109512000Y-371223120D01*
X109512000Y-371356880D01*
X109546619Y-371486081D01*
X109613498Y-371601920D01*
X109708080Y-371696502D01*
X109823919Y-371763381D01*
X109953120Y-371798000D01*
X110086880Y-371798000D01*
X110216081Y-371763381D01*
X110331920Y-371696502D01*
X110338421Y-371690001D01*
X110420000Y-371690001D01*
X110420000Y-372353599D01*
X110420001Y-372353600D01*
X110903297Y-372353600D01*
X110903300Y-372353599D01*
X110961636Y-372341996D01*
X111027789Y-372297793D01*
X111027793Y-372297789D01*
X111071996Y-372231636D01*
X111083599Y-372173300D01*
X111083600Y-372173297D01*
X111083600Y-371690001D01*
X111083599Y-371690000D01*
X110420001Y-371690000D01*
X110420000Y-371690001D01*
X110338421Y-371690001D01*
X110426502Y-371601920D01*
X110493381Y-371486081D01*
X110528000Y-371356880D01*
X110528000Y-371223120D01*
X110517837Y-371185192D01*
X111495900Y-371185192D01*
X111495900Y-371394807D01*
X111536792Y-371600385D01*
X111617006Y-371794039D01*
X111617007Y-371794040D01*
X111733459Y-371968324D01*
X111881676Y-372116541D01*
X112055960Y-372232993D01*
X112249613Y-372313207D01*
X112455195Y-372354100D01*
X112455196Y-372354100D01*
X112664804Y-372354100D01*
X112664805Y-372354100D01*
X112870387Y-372313207D01*
X113064040Y-372232993D01*
X113238324Y-372116541D01*
X113386541Y-371968324D01*
X113502993Y-371794040D01*
X113583207Y-371600387D01*
X113624100Y-371394805D01*
X113624100Y-371185195D01*
X113624099Y-371185192D01*
X114035900Y-371185192D01*
X114035900Y-371394807D01*
X114076792Y-371600385D01*
X114157006Y-371794039D01*
X114157007Y-371794040D01*
X114273459Y-371968324D01*
X114421676Y-372116541D01*
X114595960Y-372232993D01*
X114789613Y-372313207D01*
X114995195Y-372354100D01*
X114995196Y-372354100D01*
X115204804Y-372354100D01*
X115204805Y-372354100D01*
X115410387Y-372313207D01*
X115604040Y-372232993D01*
X115778324Y-372116541D01*
X115926541Y-371968324D01*
X116042993Y-371794040D01*
X116086088Y-371690001D01*
X183956400Y-371690001D01*
X183956400Y-372173300D01*
X183968003Y-372231636D01*
X184012206Y-372297789D01*
X184012210Y-372297793D01*
X184078363Y-372341996D01*
X184136699Y-372353599D01*
X184136703Y-372353600D01*
X184619999Y-372353600D01*
X184620000Y-372353599D01*
X184620000Y-371690001D01*
X184619999Y-371690000D01*
X183956401Y-371690000D01*
X183956400Y-371690001D01*
X116086088Y-371690001D01*
X116123207Y-371600387D01*
X116164100Y-371394805D01*
X116164100Y-371223120D01*
X184512000Y-371223120D01*
X184512000Y-371356880D01*
X184546619Y-371486081D01*
X184613498Y-371601920D01*
X184708080Y-371696502D01*
X184823919Y-371763381D01*
X184953120Y-371798000D01*
X185086880Y-371798000D01*
X185216081Y-371763381D01*
X185331920Y-371696502D01*
X185338421Y-371690001D01*
X185420000Y-371690001D01*
X185420000Y-372353599D01*
X185420001Y-372353600D01*
X185903297Y-372353600D01*
X185903300Y-372353599D01*
X185961636Y-372341996D01*
X186027789Y-372297793D01*
X186027793Y-372297789D01*
X186071996Y-372231636D01*
X186083599Y-372173300D01*
X186083600Y-372173297D01*
X186083600Y-371690001D01*
X186083599Y-371690000D01*
X185420001Y-371690000D01*
X185420000Y-371690001D01*
X185338421Y-371690001D01*
X185426502Y-371601920D01*
X185493381Y-371486081D01*
X185528000Y-371356880D01*
X185528000Y-371223120D01*
X185517837Y-371185192D01*
X186495900Y-371185192D01*
X186495900Y-371394807D01*
X186536792Y-371600385D01*
X186617006Y-371794039D01*
X186617007Y-371794040D01*
X186733459Y-371968324D01*
X186881676Y-372116541D01*
X187055960Y-372232993D01*
X187249613Y-372313207D01*
X187455195Y-372354100D01*
X187455196Y-372354100D01*
X187664804Y-372354100D01*
X187664805Y-372354100D01*
X187870387Y-372313207D01*
X188064040Y-372232993D01*
X188238324Y-372116541D01*
X188386541Y-371968324D01*
X188502993Y-371794040D01*
X188583207Y-371600387D01*
X188624100Y-371394805D01*
X188624100Y-371185195D01*
X188624099Y-371185192D01*
X189035900Y-371185192D01*
X189035900Y-371394807D01*
X189076792Y-371600385D01*
X189157006Y-371794039D01*
X189157007Y-371794040D01*
X189273459Y-371968324D01*
X189421676Y-372116541D01*
X189595960Y-372232993D01*
X189789613Y-372313207D01*
X189995195Y-372354100D01*
X189995196Y-372354100D01*
X190204804Y-372354100D01*
X190204805Y-372354100D01*
X190410387Y-372313207D01*
X190604040Y-372232993D01*
X190778324Y-372116541D01*
X190926541Y-371968324D01*
X191042993Y-371794040D01*
X191086088Y-371690001D01*
X258956400Y-371690001D01*
X258956400Y-372173300D01*
X258968003Y-372231636D01*
X259012206Y-372297789D01*
X259012210Y-372297793D01*
X259078363Y-372341996D01*
X259136699Y-372353599D01*
X259136703Y-372353600D01*
X259619999Y-372353600D01*
X259620000Y-372353599D01*
X259620000Y-371690001D01*
X259619999Y-371690000D01*
X258956401Y-371690000D01*
X258956400Y-371690001D01*
X191086088Y-371690001D01*
X191123207Y-371600387D01*
X191164100Y-371394805D01*
X191164100Y-371223120D01*
X259512000Y-371223120D01*
X259512000Y-371356880D01*
X259546619Y-371486081D01*
X259613498Y-371601920D01*
X259708080Y-371696502D01*
X259823919Y-371763381D01*
X259953120Y-371798000D01*
X260086880Y-371798000D01*
X260216081Y-371763381D01*
X260331920Y-371696502D01*
X260338421Y-371690001D01*
X260420000Y-371690001D01*
X260420000Y-372353599D01*
X260420001Y-372353600D01*
X260903297Y-372353600D01*
X260903300Y-372353599D01*
X260961636Y-372341996D01*
X261027789Y-372297793D01*
X261027793Y-372297789D01*
X261071996Y-372231636D01*
X261083599Y-372173300D01*
X261083600Y-372173297D01*
X261083600Y-371690001D01*
X261083599Y-371690000D01*
X260420001Y-371690000D01*
X260420000Y-371690001D01*
X260338421Y-371690001D01*
X260426502Y-371601920D01*
X260493381Y-371486081D01*
X260528000Y-371356880D01*
X260528000Y-371223120D01*
X260517837Y-371185192D01*
X261495900Y-371185192D01*
X261495900Y-371394807D01*
X261536792Y-371600385D01*
X261617006Y-371794039D01*
X261617007Y-371794040D01*
X261733459Y-371968324D01*
X261881676Y-372116541D01*
X262055960Y-372232993D01*
X262249613Y-372313207D01*
X262455195Y-372354100D01*
X262455196Y-372354100D01*
X262664804Y-372354100D01*
X262664805Y-372354100D01*
X262870387Y-372313207D01*
X263064040Y-372232993D01*
X263238324Y-372116541D01*
X263386541Y-371968324D01*
X263502993Y-371794040D01*
X263583207Y-371600387D01*
X263624100Y-371394805D01*
X263624100Y-371185195D01*
X263624099Y-371185192D01*
X264035900Y-371185192D01*
X264035900Y-371394807D01*
X264076792Y-371600385D01*
X264157006Y-371794039D01*
X264157007Y-371794040D01*
X264273459Y-371968324D01*
X264421676Y-372116541D01*
X264595960Y-372232993D01*
X264789613Y-372313207D01*
X264995195Y-372354100D01*
X264995196Y-372354100D01*
X265204804Y-372354100D01*
X265204805Y-372354100D01*
X265410387Y-372313207D01*
X265604040Y-372232993D01*
X265778324Y-372116541D01*
X265926541Y-371968324D01*
X266042993Y-371794040D01*
X266123207Y-371600387D01*
X266164100Y-371394805D01*
X266164100Y-371185195D01*
X266123207Y-370979613D01*
X266042993Y-370785960D01*
X265926541Y-370611676D01*
X265778324Y-370463459D01*
X265693381Y-370406702D01*
X265604039Y-370347006D01*
X265410385Y-370266792D01*
X265204807Y-370225900D01*
X265204805Y-370225900D01*
X264995195Y-370225900D01*
X264995192Y-370225900D01*
X264789614Y-370266792D01*
X264595960Y-370347006D01*
X264421679Y-370463456D01*
X264273456Y-370611679D01*
X264157006Y-370785960D01*
X264076792Y-370979614D01*
X264035900Y-371185192D01*
X263624099Y-371185192D01*
X263583207Y-370979613D01*
X263502993Y-370785960D01*
X263386541Y-370611676D01*
X263238324Y-370463459D01*
X263153381Y-370406702D01*
X263064039Y-370347006D01*
X262870385Y-370266792D01*
X262664807Y-370225900D01*
X262664805Y-370225900D01*
X262455195Y-370225900D01*
X262455192Y-370225900D01*
X262249614Y-370266792D01*
X262055960Y-370347006D01*
X261881679Y-370463456D01*
X261733456Y-370611679D01*
X261617006Y-370785960D01*
X261536792Y-370979614D01*
X261495900Y-371185192D01*
X260517837Y-371185192D01*
X260493381Y-371093919D01*
X260426502Y-370978080D01*
X260331920Y-370883498D01*
X260216081Y-370816619D01*
X260086880Y-370782000D01*
X259953120Y-370782000D01*
X259823919Y-370816619D01*
X259708080Y-370883498D01*
X259613498Y-370978080D01*
X259546619Y-371093919D01*
X259512000Y-371223120D01*
X191164100Y-371223120D01*
X191164100Y-371185195D01*
X191123207Y-370979613D01*
X191042993Y-370785960D01*
X190926541Y-370611676D01*
X190778324Y-370463459D01*
X190693381Y-370406702D01*
X190693377Y-370406699D01*
X258956400Y-370406699D01*
X258956400Y-370889999D01*
X258956401Y-370890000D01*
X259619999Y-370890000D01*
X259620000Y-370889999D01*
X259620000Y-370226401D01*
X260420000Y-370226401D01*
X260420000Y-370889999D01*
X260420001Y-370890000D01*
X261083599Y-370890000D01*
X261083600Y-370889999D01*
X261083600Y-370406702D01*
X261083599Y-370406699D01*
X261071996Y-370348363D01*
X261027793Y-370282210D01*
X261027789Y-370282206D01*
X260961636Y-370238003D01*
X260903300Y-370226400D01*
X260420001Y-370226400D01*
X260420000Y-370226401D01*
X259620000Y-370226401D01*
X259619999Y-370226400D01*
X259136699Y-370226400D01*
X259078363Y-370238003D01*
X259012210Y-370282206D01*
X259012206Y-370282210D01*
X258968003Y-370348363D01*
X258956400Y-370406699D01*
X190693377Y-370406699D01*
X190604039Y-370347006D01*
X190410385Y-370266792D01*
X190204807Y-370225900D01*
X190204805Y-370225900D01*
X189995195Y-370225900D01*
X189995192Y-370225900D01*
X189789614Y-370266792D01*
X189595960Y-370347006D01*
X189421679Y-370463456D01*
X189273456Y-370611679D01*
X189157006Y-370785960D01*
X189076792Y-370979614D01*
X189035900Y-371185192D01*
X188624099Y-371185192D01*
X188583207Y-370979613D01*
X188502993Y-370785960D01*
X188386541Y-370611676D01*
X188238324Y-370463459D01*
X188153381Y-370406702D01*
X188064039Y-370347006D01*
X187870385Y-370266792D01*
X187664807Y-370225900D01*
X187664805Y-370225900D01*
X187455195Y-370225900D01*
X187455192Y-370225900D01*
X187249614Y-370266792D01*
X187055960Y-370347006D01*
X186881679Y-370463456D01*
X186733456Y-370611679D01*
X186617006Y-370785960D01*
X186536792Y-370979614D01*
X186495900Y-371185192D01*
X185517837Y-371185192D01*
X185493381Y-371093919D01*
X185426502Y-370978080D01*
X185331920Y-370883498D01*
X185216081Y-370816619D01*
X185086880Y-370782000D01*
X184953120Y-370782000D01*
X184823919Y-370816619D01*
X184708080Y-370883498D01*
X184613498Y-370978080D01*
X184546619Y-371093919D01*
X184512000Y-371223120D01*
X116164100Y-371223120D01*
X116164100Y-371185195D01*
X116123207Y-370979613D01*
X116042993Y-370785960D01*
X115926541Y-370611676D01*
X115778324Y-370463459D01*
X115693381Y-370406702D01*
X115693377Y-370406699D01*
X183956400Y-370406699D01*
X183956400Y-370889999D01*
X183956401Y-370890000D01*
X184619999Y-370890000D01*
X184620000Y-370889999D01*
X184620000Y-370226401D01*
X185420000Y-370226401D01*
X185420000Y-370889999D01*
X185420001Y-370890000D01*
X186083599Y-370890000D01*
X186083600Y-370889999D01*
X186083600Y-370406702D01*
X186083599Y-370406699D01*
X186071996Y-370348363D01*
X186027793Y-370282210D01*
X186027789Y-370282206D01*
X185961636Y-370238003D01*
X185903300Y-370226400D01*
X185420001Y-370226400D01*
X185420000Y-370226401D01*
X184620000Y-370226401D01*
X184619999Y-370226400D01*
X184136699Y-370226400D01*
X184078363Y-370238003D01*
X184012210Y-370282206D01*
X184012206Y-370282210D01*
X183968003Y-370348363D01*
X183956400Y-370406699D01*
X115693377Y-370406699D01*
X115604039Y-370347006D01*
X115410385Y-370266792D01*
X115204807Y-370225900D01*
X115204805Y-370225900D01*
X114995195Y-370225900D01*
X114995192Y-370225900D01*
X114789614Y-370266792D01*
X114595960Y-370347006D01*
X114421679Y-370463456D01*
X114273456Y-370611679D01*
X114157006Y-370785960D01*
X114076792Y-370979614D01*
X114035900Y-371185192D01*
X113624099Y-371185192D01*
X113583207Y-370979613D01*
X113502993Y-370785960D01*
X113386541Y-370611676D01*
X113238324Y-370463459D01*
X113153381Y-370406702D01*
X113064039Y-370347006D01*
X112870385Y-370266792D01*
X112664807Y-370225900D01*
X112664805Y-370225900D01*
X112455195Y-370225900D01*
X112455192Y-370225900D01*
X112249614Y-370266792D01*
X112055960Y-370347006D01*
X111881679Y-370463456D01*
X111733456Y-370611679D01*
X111617006Y-370785960D01*
X111536792Y-370979614D01*
X111495900Y-371185192D01*
X110517837Y-371185192D01*
X110493381Y-371093919D01*
X110426502Y-370978080D01*
X110331920Y-370883498D01*
X110216081Y-370816619D01*
X110086880Y-370782000D01*
X109953120Y-370782000D01*
X109823919Y-370816619D01*
X109708080Y-370883498D01*
X109613498Y-370978080D01*
X109546619Y-371093919D01*
X109512000Y-371223120D01*
X41164100Y-371223120D01*
X41164100Y-371185195D01*
X41123207Y-370979613D01*
X41042993Y-370785960D01*
X40926541Y-370611676D01*
X40778324Y-370463459D01*
X40693381Y-370406702D01*
X40693377Y-370406699D01*
X108956400Y-370406699D01*
X108956400Y-370889999D01*
X108956401Y-370890000D01*
X109619999Y-370890000D01*
X109620000Y-370889999D01*
X109620000Y-370226401D01*
X110420000Y-370226401D01*
X110420000Y-370889999D01*
X110420001Y-370890000D01*
X111083599Y-370890000D01*
X111083600Y-370889999D01*
X111083600Y-370406702D01*
X111083599Y-370406699D01*
X111071996Y-370348363D01*
X111027793Y-370282210D01*
X111027789Y-370282206D01*
X110961636Y-370238003D01*
X110903300Y-370226400D01*
X110420001Y-370226400D01*
X110420000Y-370226401D01*
X109620000Y-370226401D01*
X109619999Y-370226400D01*
X109136699Y-370226400D01*
X109078363Y-370238003D01*
X109012210Y-370282206D01*
X109012206Y-370282210D01*
X108968003Y-370348363D01*
X108956400Y-370406699D01*
X40693377Y-370406699D01*
X40604039Y-370347006D01*
X40410385Y-370266792D01*
X40204807Y-370225900D01*
X40204805Y-370225900D01*
X39995195Y-370225900D01*
X39995192Y-370225900D01*
X39789614Y-370266792D01*
X39595960Y-370347006D01*
X39421679Y-370463456D01*
X39273456Y-370611679D01*
X39157006Y-370785960D01*
X39076792Y-370979614D01*
X39035900Y-371185192D01*
X38624099Y-371185192D01*
X38583207Y-370979613D01*
X38502993Y-370785960D01*
X38386541Y-370611676D01*
X38238324Y-370463459D01*
X38153381Y-370406702D01*
X38064039Y-370347006D01*
X37870385Y-370266792D01*
X37664807Y-370225900D01*
X37664805Y-370225900D01*
X37455195Y-370225900D01*
X37455192Y-370225900D01*
X37249614Y-370266792D01*
X37055960Y-370347006D01*
X36881679Y-370463456D01*
X36733456Y-370611679D01*
X36617006Y-370785960D01*
X36536792Y-370979614D01*
X36495900Y-371185192D01*
X35517837Y-371185192D01*
X35493381Y-371093919D01*
X35426502Y-370978080D01*
X35331920Y-370883498D01*
X35216081Y-370816619D01*
X35086880Y-370782000D01*
X34953120Y-370782000D01*
X34823919Y-370816619D01*
X34708080Y-370883498D01*
X34613498Y-370978080D01*
X34546619Y-371093919D01*
X34512000Y-371223120D01*
X250500Y-371223120D01*
X250500Y-370406699D01*
X33956400Y-370406699D01*
X33956400Y-370889999D01*
X33956401Y-370890000D01*
X34619999Y-370890000D01*
X34620000Y-370889999D01*
X34620000Y-370226401D01*
X35420000Y-370226401D01*
X35420000Y-370889999D01*
X35420001Y-370890000D01*
X36083599Y-370890000D01*
X36083600Y-370889999D01*
X36083600Y-370406702D01*
X36083599Y-370406699D01*
X36071996Y-370348363D01*
X36027793Y-370282210D01*
X36027789Y-370282206D01*
X35961636Y-370238003D01*
X35903300Y-370226400D01*
X35420001Y-370226400D01*
X35420000Y-370226401D01*
X34620000Y-370226401D01*
X34619999Y-370226400D01*
X34136699Y-370226400D01*
X34078363Y-370238003D01*
X34012210Y-370282206D01*
X34012206Y-370282210D01*
X33968003Y-370348363D01*
X33956400Y-370406699D01*
X250500Y-370406699D01*
X250500Y-368645192D01*
X33955900Y-368645192D01*
X33955900Y-368854807D01*
X33996792Y-369060385D01*
X34077006Y-369254039D01*
X34077007Y-369254040D01*
X34193459Y-369428324D01*
X34341676Y-369576541D01*
X34515960Y-369692993D01*
X34709613Y-369773207D01*
X34915195Y-369814100D01*
X34915196Y-369814100D01*
X35124804Y-369814100D01*
X35124805Y-369814100D01*
X35330387Y-369773207D01*
X35524040Y-369692993D01*
X35698324Y-369576541D01*
X35846541Y-369428324D01*
X35962993Y-369254040D01*
X36043207Y-369060387D01*
X36084100Y-368854805D01*
X36084100Y-368645195D01*
X36084099Y-368645192D01*
X36495900Y-368645192D01*
X36495900Y-368854807D01*
X36536792Y-369060385D01*
X36617006Y-369254039D01*
X36617007Y-369254040D01*
X36733459Y-369428324D01*
X36881676Y-369576541D01*
X37055960Y-369692993D01*
X37249613Y-369773207D01*
X37455195Y-369814100D01*
X37455196Y-369814100D01*
X37664804Y-369814100D01*
X37664805Y-369814100D01*
X37870387Y-369773207D01*
X38064040Y-369692993D01*
X38238324Y-369576541D01*
X38386541Y-369428324D01*
X38502993Y-369254040D01*
X38583207Y-369060387D01*
X38624100Y-368854805D01*
X38624100Y-368645195D01*
X38624099Y-368645192D01*
X39035900Y-368645192D01*
X39035900Y-368854807D01*
X39076792Y-369060385D01*
X39157006Y-369254039D01*
X39157007Y-369254040D01*
X39273459Y-369428324D01*
X39421676Y-369576541D01*
X39595960Y-369692993D01*
X39789613Y-369773207D01*
X39995195Y-369814100D01*
X39995196Y-369814100D01*
X40204804Y-369814100D01*
X40204805Y-369814100D01*
X40410387Y-369773207D01*
X40604040Y-369692993D01*
X40778324Y-369576541D01*
X40926541Y-369428324D01*
X41042993Y-369254040D01*
X41123207Y-369060387D01*
X41164100Y-368854805D01*
X41164100Y-368645195D01*
X41164099Y-368645192D01*
X108955900Y-368645192D01*
X108955900Y-368854807D01*
X108996792Y-369060385D01*
X109077006Y-369254039D01*
X109077007Y-369254040D01*
X109193459Y-369428324D01*
X109341676Y-369576541D01*
X109515960Y-369692993D01*
X109709613Y-369773207D01*
X109915195Y-369814100D01*
X109915196Y-369814100D01*
X110124804Y-369814100D01*
X110124805Y-369814100D01*
X110330387Y-369773207D01*
X110524040Y-369692993D01*
X110698324Y-369576541D01*
X110846541Y-369428324D01*
X110962993Y-369254040D01*
X111043207Y-369060387D01*
X111084100Y-368854805D01*
X111084100Y-368645195D01*
X111084099Y-368645192D01*
X111495900Y-368645192D01*
X111495900Y-368854807D01*
X111536792Y-369060385D01*
X111617006Y-369254039D01*
X111617007Y-369254040D01*
X111733459Y-369428324D01*
X111881676Y-369576541D01*
X112055960Y-369692993D01*
X112249613Y-369773207D01*
X112455195Y-369814100D01*
X112455196Y-369814100D01*
X112664804Y-369814100D01*
X112664805Y-369814100D01*
X112870387Y-369773207D01*
X113064040Y-369692993D01*
X113238324Y-369576541D01*
X113386541Y-369428324D01*
X113502993Y-369254040D01*
X113583207Y-369060387D01*
X113624100Y-368854805D01*
X113624100Y-368645195D01*
X113624099Y-368645192D01*
X114035900Y-368645192D01*
X114035900Y-368854807D01*
X114076792Y-369060385D01*
X114157006Y-369254039D01*
X114157007Y-369254040D01*
X114273459Y-369428324D01*
X114421676Y-369576541D01*
X114595960Y-369692993D01*
X114789613Y-369773207D01*
X114995195Y-369814100D01*
X114995196Y-369814100D01*
X115204804Y-369814100D01*
X115204805Y-369814100D01*
X115410387Y-369773207D01*
X115604040Y-369692993D01*
X115778324Y-369576541D01*
X115926541Y-369428324D01*
X116042993Y-369254040D01*
X116123207Y-369060387D01*
X116164100Y-368854805D01*
X116164100Y-368645195D01*
X116164099Y-368645192D01*
X183955900Y-368645192D01*
X183955900Y-368854807D01*
X183996792Y-369060385D01*
X184077006Y-369254039D01*
X184077007Y-369254040D01*
X184193459Y-369428324D01*
X184341676Y-369576541D01*
X184515960Y-369692993D01*
X184709613Y-369773207D01*
X184915195Y-369814100D01*
X184915196Y-369814100D01*
X185124804Y-369814100D01*
X185124805Y-369814100D01*
X185330387Y-369773207D01*
X185524040Y-369692993D01*
X185698324Y-369576541D01*
X185846541Y-369428324D01*
X185962993Y-369254040D01*
X186043207Y-369060387D01*
X186084100Y-368854805D01*
X186084100Y-368645195D01*
X186084099Y-368645192D01*
X186495900Y-368645192D01*
X186495900Y-368854807D01*
X186536792Y-369060385D01*
X186617006Y-369254039D01*
X186617007Y-369254040D01*
X186733459Y-369428324D01*
X186881676Y-369576541D01*
X187055960Y-369692993D01*
X187249613Y-369773207D01*
X187455195Y-369814100D01*
X187455196Y-369814100D01*
X187664804Y-369814100D01*
X187664805Y-369814100D01*
X187870387Y-369773207D01*
X188064040Y-369692993D01*
X188238324Y-369576541D01*
X188386541Y-369428324D01*
X188502993Y-369254040D01*
X188583207Y-369060387D01*
X188624100Y-368854805D01*
X188624100Y-368645195D01*
X188624099Y-368645192D01*
X189035900Y-368645192D01*
X189035900Y-368854807D01*
X189076792Y-369060385D01*
X189157006Y-369254039D01*
X189157007Y-369254040D01*
X189273459Y-369428324D01*
X189421676Y-369576541D01*
X189595960Y-369692993D01*
X189789613Y-369773207D01*
X189995195Y-369814100D01*
X189995196Y-369814100D01*
X190204804Y-369814100D01*
X190204805Y-369814100D01*
X190410387Y-369773207D01*
X190604040Y-369692993D01*
X190778324Y-369576541D01*
X190926541Y-369428324D01*
X191042993Y-369254040D01*
X191123207Y-369060387D01*
X191164100Y-368854805D01*
X191164100Y-368645195D01*
X191164099Y-368645192D01*
X258955900Y-368645192D01*
X258955900Y-368854807D01*
X258996792Y-369060385D01*
X259077006Y-369254039D01*
X259077007Y-369254040D01*
X259193459Y-369428324D01*
X259341676Y-369576541D01*
X259515960Y-369692993D01*
X259709613Y-369773207D01*
X259915195Y-369814100D01*
X259915196Y-369814100D01*
X260124804Y-369814100D01*
X260124805Y-369814100D01*
X260330387Y-369773207D01*
X260524040Y-369692993D01*
X260698324Y-369576541D01*
X260846541Y-369428324D01*
X260962993Y-369254040D01*
X261043207Y-369060387D01*
X261084100Y-368854805D01*
X261084100Y-368645195D01*
X261084099Y-368645192D01*
X261495900Y-368645192D01*
X261495900Y-368854807D01*
X261536792Y-369060385D01*
X261617006Y-369254039D01*
X261617007Y-369254040D01*
X261733459Y-369428324D01*
X261881676Y-369576541D01*
X262055960Y-369692993D01*
X262249613Y-369773207D01*
X262455195Y-369814100D01*
X262455196Y-369814100D01*
X262664804Y-369814100D01*
X262664805Y-369814100D01*
X262870387Y-369773207D01*
X263064040Y-369692993D01*
X263238324Y-369576541D01*
X263386541Y-369428324D01*
X263502993Y-369254040D01*
X263583207Y-369060387D01*
X263624100Y-368854805D01*
X263624100Y-368645195D01*
X263624099Y-368645192D01*
X264035900Y-368645192D01*
X264035900Y-368854807D01*
X264076792Y-369060385D01*
X264157006Y-369254039D01*
X264157007Y-369254040D01*
X264273459Y-369428324D01*
X264421676Y-369576541D01*
X264595960Y-369692993D01*
X264789613Y-369773207D01*
X264995195Y-369814100D01*
X264995196Y-369814100D01*
X265204804Y-369814100D01*
X265204805Y-369814100D01*
X265410387Y-369773207D01*
X265604040Y-369692993D01*
X265778324Y-369576541D01*
X265926541Y-369428324D01*
X266042993Y-369254040D01*
X266123207Y-369060387D01*
X266164100Y-368854805D01*
X266164100Y-368645195D01*
X266123207Y-368439613D01*
X266042993Y-368245960D01*
X265926541Y-368071676D01*
X265778324Y-367923459D01*
X265604040Y-367807007D01*
X265604041Y-367807007D01*
X265604039Y-367807006D01*
X265410385Y-367726792D01*
X265204807Y-367685900D01*
X265204805Y-367685900D01*
X264995195Y-367685900D01*
X264995192Y-367685900D01*
X264789614Y-367726792D01*
X264595960Y-367807006D01*
X264421679Y-367923456D01*
X264273456Y-368071679D01*
X264157006Y-368245960D01*
X264076792Y-368439614D01*
X264035900Y-368645192D01*
X263624099Y-368645192D01*
X263583207Y-368439613D01*
X263502993Y-368245960D01*
X263386541Y-368071676D01*
X263238324Y-367923459D01*
X263064040Y-367807007D01*
X263064041Y-367807007D01*
X263064039Y-367807006D01*
X262870385Y-367726792D01*
X262664807Y-367685900D01*
X262664805Y-367685900D01*
X262455195Y-367685900D01*
X262455192Y-367685900D01*
X262249614Y-367726792D01*
X262055960Y-367807006D01*
X261881679Y-367923456D01*
X261733456Y-368071679D01*
X261617006Y-368245960D01*
X261536792Y-368439614D01*
X261495900Y-368645192D01*
X261084099Y-368645192D01*
X261043207Y-368439613D01*
X260962993Y-368245960D01*
X260846541Y-368071676D01*
X260698324Y-367923459D01*
X260524040Y-367807007D01*
X260524041Y-367807007D01*
X260524039Y-367807006D01*
X260330385Y-367726792D01*
X260124807Y-367685900D01*
X260124805Y-367685900D01*
X259915195Y-367685900D01*
X259915192Y-367685900D01*
X259709614Y-367726792D01*
X259515960Y-367807006D01*
X259341679Y-367923456D01*
X259193456Y-368071679D01*
X259077006Y-368245960D01*
X258996792Y-368439614D01*
X258955900Y-368645192D01*
X191164099Y-368645192D01*
X191123207Y-368439613D01*
X191042993Y-368245960D01*
X190926541Y-368071676D01*
X190778324Y-367923459D01*
X190604040Y-367807007D01*
X190604041Y-367807007D01*
X190604039Y-367807006D01*
X190410385Y-367726792D01*
X190204807Y-367685900D01*
X190204805Y-367685900D01*
X189995195Y-367685900D01*
X189995192Y-367685900D01*
X189789614Y-367726792D01*
X189595960Y-367807006D01*
X189421679Y-367923456D01*
X189273456Y-368071679D01*
X189157006Y-368245960D01*
X189076792Y-368439614D01*
X189035900Y-368645192D01*
X188624099Y-368645192D01*
X188583207Y-368439613D01*
X188502993Y-368245960D01*
X188386541Y-368071676D01*
X188238324Y-367923459D01*
X188064040Y-367807007D01*
X188064041Y-367807007D01*
X188064039Y-367807006D01*
X187870385Y-367726792D01*
X187664807Y-367685900D01*
X187664805Y-367685900D01*
X187455195Y-367685900D01*
X187455192Y-367685900D01*
X187249614Y-367726792D01*
X187055960Y-367807006D01*
X186881679Y-367923456D01*
X186733456Y-368071679D01*
X186617006Y-368245960D01*
X186536792Y-368439614D01*
X186495900Y-368645192D01*
X186084099Y-368645192D01*
X186043207Y-368439613D01*
X185962993Y-368245960D01*
X185846541Y-368071676D01*
X185698324Y-367923459D01*
X185524040Y-367807007D01*
X185524041Y-367807007D01*
X185524039Y-367807006D01*
X185330385Y-367726792D01*
X185124807Y-367685900D01*
X185124805Y-367685900D01*
X184915195Y-367685900D01*
X184915192Y-367685900D01*
X184709614Y-367726792D01*
X184515960Y-367807006D01*
X184341679Y-367923456D01*
X184193456Y-368071679D01*
X184077006Y-368245960D01*
X183996792Y-368439614D01*
X183955900Y-368645192D01*
X116164099Y-368645192D01*
X116123207Y-368439613D01*
X116042993Y-368245960D01*
X115926541Y-368071676D01*
X115778324Y-367923459D01*
X115604040Y-367807007D01*
X115604041Y-367807007D01*
X115604039Y-367807006D01*
X115410385Y-367726792D01*
X115204807Y-367685900D01*
X115204805Y-367685900D01*
X114995195Y-367685900D01*
X114995192Y-367685900D01*
X114789614Y-367726792D01*
X114595960Y-367807006D01*
X114421679Y-367923456D01*
X114273456Y-368071679D01*
X114157006Y-368245960D01*
X114076792Y-368439614D01*
X114035900Y-368645192D01*
X113624099Y-368645192D01*
X113583207Y-368439613D01*
X113502993Y-368245960D01*
X113386541Y-368071676D01*
X113238324Y-367923459D01*
X113064040Y-367807007D01*
X113064041Y-367807007D01*
X113064039Y-367807006D01*
X112870385Y-367726792D01*
X112664807Y-367685900D01*
X112664805Y-367685900D01*
X112455195Y-367685900D01*
X112455192Y-367685900D01*
X112249614Y-367726792D01*
X112055960Y-367807006D01*
X111881679Y-367923456D01*
X111733456Y-368071679D01*
X111617006Y-368245960D01*
X111536792Y-368439614D01*
X111495900Y-368645192D01*
X111084099Y-368645192D01*
X111043207Y-368439613D01*
X110962993Y-368245960D01*
X110846541Y-368071676D01*
X110698324Y-367923459D01*
X110524040Y-367807007D01*
X110524041Y-367807007D01*
X110524039Y-367807006D01*
X110330385Y-367726792D01*
X110124807Y-367685900D01*
X110124805Y-367685900D01*
X109915195Y-367685900D01*
X109915192Y-367685900D01*
X109709614Y-367726792D01*
X109515960Y-367807006D01*
X109341679Y-367923456D01*
X109193456Y-368071679D01*
X109077006Y-368245960D01*
X108996792Y-368439614D01*
X108955900Y-368645192D01*
X41164099Y-368645192D01*
X41123207Y-368439613D01*
X41042993Y-368245960D01*
X40926541Y-368071676D01*
X40778324Y-367923459D01*
X40604040Y-367807007D01*
X40604041Y-367807007D01*
X40604039Y-367807006D01*
X40410385Y-367726792D01*
X40204807Y-367685900D01*
X40204805Y-367685900D01*
X39995195Y-367685900D01*
X39995192Y-367685900D01*
X39789614Y-367726792D01*
X39595960Y-367807006D01*
X39421679Y-367923456D01*
X39273456Y-368071679D01*
X39157006Y-368245960D01*
X39076792Y-368439614D01*
X39035900Y-368645192D01*
X38624099Y-368645192D01*
X38583207Y-368439613D01*
X38502993Y-368245960D01*
X38386541Y-368071676D01*
X38238324Y-367923459D01*
X38064040Y-367807007D01*
X38064041Y-367807007D01*
X38064039Y-367807006D01*
X37870385Y-367726792D01*
X37664807Y-367685900D01*
X37664805Y-367685900D01*
X37455195Y-367685900D01*
X37455192Y-367685900D01*
X37249614Y-367726792D01*
X37055960Y-367807006D01*
X36881679Y-367923456D01*
X36733456Y-368071679D01*
X36617006Y-368245960D01*
X36536792Y-368439614D01*
X36495900Y-368645192D01*
X36084099Y-368645192D01*
X36043207Y-368439613D01*
X35962993Y-368245960D01*
X35846541Y-368071676D01*
X35698324Y-367923459D01*
X35524040Y-367807007D01*
X35524041Y-367807007D01*
X35524039Y-367807006D01*
X35330385Y-367726792D01*
X35124807Y-367685900D01*
X35124805Y-367685900D01*
X34915195Y-367685900D01*
X34915192Y-367685900D01*
X34709614Y-367726792D01*
X34515960Y-367807006D01*
X34341679Y-367923456D01*
X34193456Y-368071679D01*
X34077006Y-368245960D01*
X33996792Y-368439614D01*
X33955900Y-368645192D01*
X250500Y-368645192D01*
X250500Y-271690001D01*
X33956400Y-271690001D01*
X33956400Y-272173300D01*
X33968003Y-272231636D01*
X34012206Y-272297789D01*
X34012210Y-272297793D01*
X34078363Y-272341996D01*
X34136699Y-272353599D01*
X34136703Y-272353600D01*
X34619999Y-272353600D01*
X34620000Y-272353599D01*
X34620000Y-271690001D01*
X34619999Y-271690000D01*
X33956401Y-271690000D01*
X33956400Y-271690001D01*
X250500Y-271690001D01*
X250500Y-271223120D01*
X34512000Y-271223120D01*
X34512000Y-271356880D01*
X34546619Y-271486081D01*
X34613498Y-271601920D01*
X34708080Y-271696502D01*
X34823919Y-271763381D01*
X34953120Y-271798000D01*
X35086880Y-271798000D01*
X35216081Y-271763381D01*
X35331920Y-271696502D01*
X35338421Y-271690001D01*
X35420000Y-271690001D01*
X35420000Y-272353599D01*
X35420001Y-272353600D01*
X35903297Y-272353600D01*
X35903300Y-272353599D01*
X35961636Y-272341996D01*
X36027789Y-272297793D01*
X36027793Y-272297789D01*
X36071996Y-272231636D01*
X36083599Y-272173300D01*
X36083600Y-272173297D01*
X36083600Y-271690001D01*
X36083599Y-271690000D01*
X35420001Y-271690000D01*
X35420000Y-271690001D01*
X35338421Y-271690001D01*
X35426502Y-271601920D01*
X35493381Y-271486081D01*
X35528000Y-271356880D01*
X35528000Y-271223120D01*
X35517837Y-271185192D01*
X36495900Y-271185192D01*
X36495900Y-271394807D01*
X36536792Y-271600385D01*
X36617006Y-271794039D01*
X36617007Y-271794040D01*
X36733459Y-271968324D01*
X36881676Y-272116541D01*
X37055960Y-272232993D01*
X37249613Y-272313207D01*
X37455195Y-272354100D01*
X37455196Y-272354100D01*
X37664804Y-272354100D01*
X37664805Y-272354100D01*
X37870387Y-272313207D01*
X38064040Y-272232993D01*
X38238324Y-272116541D01*
X38386541Y-271968324D01*
X38502993Y-271794040D01*
X38583207Y-271600387D01*
X38624100Y-271394805D01*
X38624100Y-271185195D01*
X38624099Y-271185192D01*
X39035900Y-271185192D01*
X39035900Y-271394807D01*
X39076792Y-271600385D01*
X39157006Y-271794039D01*
X39157007Y-271794040D01*
X39273459Y-271968324D01*
X39421676Y-272116541D01*
X39595960Y-272232993D01*
X39789613Y-272313207D01*
X39995195Y-272354100D01*
X39995196Y-272354100D01*
X40204804Y-272354100D01*
X40204805Y-272354100D01*
X40410387Y-272313207D01*
X40604040Y-272232993D01*
X40778324Y-272116541D01*
X40926541Y-271968324D01*
X41042993Y-271794040D01*
X41086088Y-271690001D01*
X108956400Y-271690001D01*
X108956400Y-272173300D01*
X108968003Y-272231636D01*
X109012206Y-272297789D01*
X109012210Y-272297793D01*
X109078363Y-272341996D01*
X109136699Y-272353599D01*
X109136703Y-272353600D01*
X109619999Y-272353600D01*
X109620000Y-272353599D01*
X109620000Y-271690001D01*
X109619999Y-271690000D01*
X108956401Y-271690000D01*
X108956400Y-271690001D01*
X41086088Y-271690001D01*
X41123207Y-271600387D01*
X41164100Y-271394805D01*
X41164100Y-271223120D01*
X109512000Y-271223120D01*
X109512000Y-271356880D01*
X109546619Y-271486081D01*
X109613498Y-271601920D01*
X109708080Y-271696502D01*
X109823919Y-271763381D01*
X109953120Y-271798000D01*
X110086880Y-271798000D01*
X110216081Y-271763381D01*
X110331920Y-271696502D01*
X110338421Y-271690001D01*
X110420000Y-271690001D01*
X110420000Y-272353599D01*
X110420001Y-272353600D01*
X110903297Y-272353600D01*
X110903300Y-272353599D01*
X110961636Y-272341996D01*
X111027789Y-272297793D01*
X111027793Y-272297789D01*
X111071996Y-272231636D01*
X111083599Y-272173300D01*
X111083600Y-272173297D01*
X111083600Y-271690001D01*
X111083599Y-271690000D01*
X110420001Y-271690000D01*
X110420000Y-271690001D01*
X110338421Y-271690001D01*
X110426502Y-271601920D01*
X110493381Y-271486081D01*
X110528000Y-271356880D01*
X110528000Y-271223120D01*
X110517837Y-271185192D01*
X111495900Y-271185192D01*
X111495900Y-271394807D01*
X111536792Y-271600385D01*
X111617006Y-271794039D01*
X111617007Y-271794040D01*
X111733459Y-271968324D01*
X111881676Y-272116541D01*
X112055960Y-272232993D01*
X112249613Y-272313207D01*
X112455195Y-272354100D01*
X112455196Y-272354100D01*
X112664804Y-272354100D01*
X112664805Y-272354100D01*
X112870387Y-272313207D01*
X113064040Y-272232993D01*
X113238324Y-272116541D01*
X113386541Y-271968324D01*
X113502993Y-271794040D01*
X113583207Y-271600387D01*
X113624100Y-271394805D01*
X113624100Y-271185195D01*
X113624099Y-271185192D01*
X114035900Y-271185192D01*
X114035900Y-271394807D01*
X114076792Y-271600385D01*
X114157006Y-271794039D01*
X114157007Y-271794040D01*
X114273459Y-271968324D01*
X114421676Y-272116541D01*
X114595960Y-272232993D01*
X114789613Y-272313207D01*
X114995195Y-272354100D01*
X114995196Y-272354100D01*
X115204804Y-272354100D01*
X115204805Y-272354100D01*
X115410387Y-272313207D01*
X115604040Y-272232993D01*
X115778324Y-272116541D01*
X115926541Y-271968324D01*
X116042993Y-271794040D01*
X116086088Y-271690001D01*
X183956400Y-271690001D01*
X183956400Y-272173300D01*
X183968003Y-272231636D01*
X184012206Y-272297789D01*
X184012210Y-272297793D01*
X184078363Y-272341996D01*
X184136699Y-272353599D01*
X184136703Y-272353600D01*
X184619999Y-272353600D01*
X184620000Y-272353599D01*
X184620000Y-271690001D01*
X184619999Y-271690000D01*
X183956401Y-271690000D01*
X183956400Y-271690001D01*
X116086088Y-271690001D01*
X116123207Y-271600387D01*
X116164100Y-271394805D01*
X116164100Y-271223120D01*
X184512000Y-271223120D01*
X184512000Y-271356880D01*
X184546619Y-271486081D01*
X184613498Y-271601920D01*
X184708080Y-271696502D01*
X184823919Y-271763381D01*
X184953120Y-271798000D01*
X185086880Y-271798000D01*
X185216081Y-271763381D01*
X185331920Y-271696502D01*
X185338421Y-271690001D01*
X185420000Y-271690001D01*
X185420000Y-272353599D01*
X185420001Y-272353600D01*
X185903297Y-272353600D01*
X185903300Y-272353599D01*
X185961636Y-272341996D01*
X186027789Y-272297793D01*
X186027793Y-272297789D01*
X186071996Y-272231636D01*
X186083599Y-272173300D01*
X186083600Y-272173297D01*
X186083600Y-271690001D01*
X186083599Y-271690000D01*
X185420001Y-271690000D01*
X185420000Y-271690001D01*
X185338421Y-271690001D01*
X185426502Y-271601920D01*
X185493381Y-271486081D01*
X185528000Y-271356880D01*
X185528000Y-271223120D01*
X185517837Y-271185192D01*
X186495900Y-271185192D01*
X186495900Y-271394807D01*
X186536792Y-271600385D01*
X186617006Y-271794039D01*
X186617007Y-271794040D01*
X186733459Y-271968324D01*
X186881676Y-272116541D01*
X187055960Y-272232993D01*
X187249613Y-272313207D01*
X187455195Y-272354100D01*
X187455196Y-272354100D01*
X187664804Y-272354100D01*
X187664805Y-272354100D01*
X187870387Y-272313207D01*
X188064040Y-272232993D01*
X188238324Y-272116541D01*
X188386541Y-271968324D01*
X188502993Y-271794040D01*
X188583207Y-271600387D01*
X188624100Y-271394805D01*
X188624100Y-271185195D01*
X188624099Y-271185192D01*
X189035900Y-271185192D01*
X189035900Y-271394807D01*
X189076792Y-271600385D01*
X189157006Y-271794039D01*
X189157007Y-271794040D01*
X189273459Y-271968324D01*
X189421676Y-272116541D01*
X189595960Y-272232993D01*
X189789613Y-272313207D01*
X189995195Y-272354100D01*
X189995196Y-272354100D01*
X190204804Y-272354100D01*
X190204805Y-272354100D01*
X190410387Y-272313207D01*
X190604040Y-272232993D01*
X190778324Y-272116541D01*
X190926541Y-271968324D01*
X191042993Y-271794040D01*
X191086088Y-271690001D01*
X258956400Y-271690001D01*
X258956400Y-272173300D01*
X258968003Y-272231636D01*
X259012206Y-272297789D01*
X259012210Y-272297793D01*
X259078363Y-272341996D01*
X259136699Y-272353599D01*
X259136703Y-272353600D01*
X259619999Y-272353600D01*
X259620000Y-272353599D01*
X259620000Y-271690001D01*
X259619999Y-271690000D01*
X258956401Y-271690000D01*
X258956400Y-271690001D01*
X191086088Y-271690001D01*
X191123207Y-271600387D01*
X191164100Y-271394805D01*
X191164100Y-271223120D01*
X259512000Y-271223120D01*
X259512000Y-271356880D01*
X259546619Y-271486081D01*
X259613498Y-271601920D01*
X259708080Y-271696502D01*
X259823919Y-271763381D01*
X259953120Y-271798000D01*
X260086880Y-271798000D01*
X260216081Y-271763381D01*
X260331920Y-271696502D01*
X260338421Y-271690001D01*
X260420000Y-271690001D01*
X260420000Y-272353599D01*
X260420001Y-272353600D01*
X260903297Y-272353600D01*
X260903300Y-272353599D01*
X260961636Y-272341996D01*
X261027789Y-272297793D01*
X261027793Y-272297789D01*
X261071996Y-272231636D01*
X261083599Y-272173300D01*
X261083600Y-272173297D01*
X261083600Y-271690001D01*
X261083599Y-271690000D01*
X260420001Y-271690000D01*
X260420000Y-271690001D01*
X260338421Y-271690001D01*
X260426502Y-271601920D01*
X260493381Y-271486081D01*
X260528000Y-271356880D01*
X260528000Y-271223120D01*
X260517837Y-271185192D01*
X261495900Y-271185192D01*
X261495900Y-271394807D01*
X261536792Y-271600385D01*
X261617006Y-271794039D01*
X261617007Y-271794040D01*
X261733459Y-271968324D01*
X261881676Y-272116541D01*
X262055960Y-272232993D01*
X262249613Y-272313207D01*
X262455195Y-272354100D01*
X262455196Y-272354100D01*
X262664804Y-272354100D01*
X262664805Y-272354100D01*
X262870387Y-272313207D01*
X263064040Y-272232993D01*
X263238324Y-272116541D01*
X263386541Y-271968324D01*
X263502993Y-271794040D01*
X263583207Y-271600387D01*
X263624100Y-271394805D01*
X263624100Y-271185195D01*
X263624099Y-271185192D01*
X264035900Y-271185192D01*
X264035900Y-271394807D01*
X264076792Y-271600385D01*
X264157006Y-271794039D01*
X264157007Y-271794040D01*
X264273459Y-271968324D01*
X264421676Y-272116541D01*
X264595960Y-272232993D01*
X264789613Y-272313207D01*
X264995195Y-272354100D01*
X264995196Y-272354100D01*
X265204804Y-272354100D01*
X265204805Y-272354100D01*
X265410387Y-272313207D01*
X265604040Y-272232993D01*
X265778324Y-272116541D01*
X265926541Y-271968324D01*
X266042993Y-271794040D01*
X266123207Y-271600387D01*
X266164100Y-271394805D01*
X266164100Y-271185195D01*
X266123207Y-270979613D01*
X266042993Y-270785960D01*
X265926541Y-270611676D01*
X265778324Y-270463459D01*
X265693381Y-270406702D01*
X265604039Y-270347006D01*
X265410385Y-270266792D01*
X265204807Y-270225900D01*
X265204805Y-270225900D01*
X264995195Y-270225900D01*
X264995192Y-270225900D01*
X264789614Y-270266792D01*
X264595960Y-270347006D01*
X264421679Y-270463456D01*
X264273456Y-270611679D01*
X264157006Y-270785960D01*
X264076792Y-270979614D01*
X264035900Y-271185192D01*
X263624099Y-271185192D01*
X263583207Y-270979613D01*
X263502993Y-270785960D01*
X263386541Y-270611676D01*
X263238324Y-270463459D01*
X263153381Y-270406702D01*
X263064039Y-270347006D01*
X262870385Y-270266792D01*
X262664807Y-270225900D01*
X262664805Y-270225900D01*
X262455195Y-270225900D01*
X262455192Y-270225900D01*
X262249614Y-270266792D01*
X262055960Y-270347006D01*
X261881679Y-270463456D01*
X261733456Y-270611679D01*
X261617006Y-270785960D01*
X261536792Y-270979614D01*
X261495900Y-271185192D01*
X260517837Y-271185192D01*
X260493381Y-271093919D01*
X260426502Y-270978080D01*
X260331920Y-270883498D01*
X260216081Y-270816619D01*
X260086880Y-270782000D01*
X259953120Y-270782000D01*
X259823919Y-270816619D01*
X259708080Y-270883498D01*
X259613498Y-270978080D01*
X259546619Y-271093919D01*
X259512000Y-271223120D01*
X191164100Y-271223120D01*
X191164100Y-271185195D01*
X191123207Y-270979613D01*
X191042993Y-270785960D01*
X190926541Y-270611676D01*
X190778324Y-270463459D01*
X190693381Y-270406702D01*
X190693377Y-270406699D01*
X258956400Y-270406699D01*
X258956400Y-270889999D01*
X258956401Y-270890000D01*
X259619999Y-270890000D01*
X259620000Y-270889999D01*
X259620000Y-270226401D01*
X260420000Y-270226401D01*
X260420000Y-270889999D01*
X260420001Y-270890000D01*
X261083599Y-270890000D01*
X261083600Y-270889999D01*
X261083600Y-270406702D01*
X261083599Y-270406699D01*
X261071996Y-270348363D01*
X261027793Y-270282210D01*
X261027789Y-270282206D01*
X260961636Y-270238003D01*
X260903300Y-270226400D01*
X260420001Y-270226400D01*
X260420000Y-270226401D01*
X259620000Y-270226401D01*
X259619999Y-270226400D01*
X259136699Y-270226400D01*
X259078363Y-270238003D01*
X259012210Y-270282206D01*
X259012206Y-270282210D01*
X258968003Y-270348363D01*
X258956400Y-270406699D01*
X190693377Y-270406699D01*
X190604039Y-270347006D01*
X190410385Y-270266792D01*
X190204807Y-270225900D01*
X190204805Y-270225900D01*
X189995195Y-270225900D01*
X189995192Y-270225900D01*
X189789614Y-270266792D01*
X189595960Y-270347006D01*
X189421679Y-270463456D01*
X189273456Y-270611679D01*
X189157006Y-270785960D01*
X189076792Y-270979614D01*
X189035900Y-271185192D01*
X188624099Y-271185192D01*
X188583207Y-270979613D01*
X188502993Y-270785960D01*
X188386541Y-270611676D01*
X188238324Y-270463459D01*
X188153381Y-270406702D01*
X188064039Y-270347006D01*
X187870385Y-270266792D01*
X187664807Y-270225900D01*
X187664805Y-270225900D01*
X187455195Y-270225900D01*
X187455192Y-270225900D01*
X187249614Y-270266792D01*
X187055960Y-270347006D01*
X186881679Y-270463456D01*
X186733456Y-270611679D01*
X186617006Y-270785960D01*
X186536792Y-270979614D01*
X186495900Y-271185192D01*
X185517837Y-271185192D01*
X185493381Y-271093919D01*
X185426502Y-270978080D01*
X185331920Y-270883498D01*
X185216081Y-270816619D01*
X185086880Y-270782000D01*
X184953120Y-270782000D01*
X184823919Y-270816619D01*
X184708080Y-270883498D01*
X184613498Y-270978080D01*
X184546619Y-271093919D01*
X184512000Y-271223120D01*
X116164100Y-271223120D01*
X116164100Y-271185195D01*
X116123207Y-270979613D01*
X116042993Y-270785960D01*
X115926541Y-270611676D01*
X115778324Y-270463459D01*
X115693381Y-270406702D01*
X115693377Y-270406699D01*
X183956400Y-270406699D01*
X183956400Y-270889999D01*
X183956401Y-270890000D01*
X184619999Y-270890000D01*
X184620000Y-270889999D01*
X184620000Y-270226401D01*
X185420000Y-270226401D01*
X185420000Y-270889999D01*
X185420001Y-270890000D01*
X186083599Y-270890000D01*
X186083600Y-270889999D01*
X186083600Y-270406702D01*
X186083599Y-270406699D01*
X186071996Y-270348363D01*
X186027793Y-270282210D01*
X186027789Y-270282206D01*
X185961636Y-270238003D01*
X185903300Y-270226400D01*
X185420001Y-270226400D01*
X185420000Y-270226401D01*
X184620000Y-270226401D01*
X184619999Y-270226400D01*
X184136699Y-270226400D01*
X184078363Y-270238003D01*
X184012210Y-270282206D01*
X184012206Y-270282210D01*
X183968003Y-270348363D01*
X183956400Y-270406699D01*
X115693377Y-270406699D01*
X115604039Y-270347006D01*
X115410385Y-270266792D01*
X115204807Y-270225900D01*
X115204805Y-270225900D01*
X114995195Y-270225900D01*
X114995192Y-270225900D01*
X114789614Y-270266792D01*
X114595960Y-270347006D01*
X114421679Y-270463456D01*
X114273456Y-270611679D01*
X114157006Y-270785960D01*
X114076792Y-270979614D01*
X114035900Y-271185192D01*
X113624099Y-271185192D01*
X113583207Y-270979613D01*
X113502993Y-270785960D01*
X113386541Y-270611676D01*
X113238324Y-270463459D01*
X113153381Y-270406702D01*
X113064039Y-270347006D01*
X112870385Y-270266792D01*
X112664807Y-270225900D01*
X112664805Y-270225900D01*
X112455195Y-270225900D01*
X112455192Y-270225900D01*
X112249614Y-270266792D01*
X112055960Y-270347006D01*
X111881679Y-270463456D01*
X111733456Y-270611679D01*
X111617006Y-270785960D01*
X111536792Y-270979614D01*
X111495900Y-271185192D01*
X110517837Y-271185192D01*
X110493381Y-271093919D01*
X110426502Y-270978080D01*
X110331920Y-270883498D01*
X110216081Y-270816619D01*
X110086880Y-270782000D01*
X109953120Y-270782000D01*
X109823919Y-270816619D01*
X109708080Y-270883498D01*
X109613498Y-270978080D01*
X109546619Y-271093919D01*
X109512000Y-271223120D01*
X41164100Y-271223120D01*
X41164100Y-271185195D01*
X41123207Y-270979613D01*
X41042993Y-270785960D01*
X40926541Y-270611676D01*
X40778324Y-270463459D01*
X40693381Y-270406702D01*
X40693377Y-270406699D01*
X108956400Y-270406699D01*
X108956400Y-270889999D01*
X108956401Y-270890000D01*
X109619999Y-270890000D01*
X109620000Y-270889999D01*
X109620000Y-270226401D01*
X110420000Y-270226401D01*
X110420000Y-270889999D01*
X110420001Y-270890000D01*
X111083599Y-270890000D01*
X111083600Y-270889999D01*
X111083600Y-270406702D01*
X111083599Y-270406699D01*
X111071996Y-270348363D01*
X111027793Y-270282210D01*
X111027789Y-270282206D01*
X110961636Y-270238003D01*
X110903300Y-270226400D01*
X110420001Y-270226400D01*
X110420000Y-270226401D01*
X109620000Y-270226401D01*
X109619999Y-270226400D01*
X109136699Y-270226400D01*
X109078363Y-270238003D01*
X109012210Y-270282206D01*
X109012206Y-270282210D01*
X108968003Y-270348363D01*
X108956400Y-270406699D01*
X40693377Y-270406699D01*
X40604039Y-270347006D01*
X40410385Y-270266792D01*
X40204807Y-270225900D01*
X40204805Y-270225900D01*
X39995195Y-270225900D01*
X39995192Y-270225900D01*
X39789614Y-270266792D01*
X39595960Y-270347006D01*
X39421679Y-270463456D01*
X39273456Y-270611679D01*
X39157006Y-270785960D01*
X39076792Y-270979614D01*
X39035900Y-271185192D01*
X38624099Y-271185192D01*
X38583207Y-270979613D01*
X38502993Y-270785960D01*
X38386541Y-270611676D01*
X38238324Y-270463459D01*
X38153381Y-270406702D01*
X38064039Y-270347006D01*
X37870385Y-270266792D01*
X37664807Y-270225900D01*
X37664805Y-270225900D01*
X37455195Y-270225900D01*
X37455192Y-270225900D01*
X37249614Y-270266792D01*
X37055960Y-270347006D01*
X36881679Y-270463456D01*
X36733456Y-270611679D01*
X36617006Y-270785960D01*
X36536792Y-270979614D01*
X36495900Y-271185192D01*
X35517837Y-271185192D01*
X35493381Y-271093919D01*
X35426502Y-270978080D01*
X35331920Y-270883498D01*
X35216081Y-270816619D01*
X35086880Y-270782000D01*
X34953120Y-270782000D01*
X34823919Y-270816619D01*
X34708080Y-270883498D01*
X34613498Y-270978080D01*
X34546619Y-271093919D01*
X34512000Y-271223120D01*
X250500Y-271223120D01*
X250500Y-270406699D01*
X33956400Y-270406699D01*
X33956400Y-270889999D01*
X33956401Y-270890000D01*
X34619999Y-270890000D01*
X34620000Y-270889999D01*
X34620000Y-270226401D01*
X35420000Y-270226401D01*
X35420000Y-270889999D01*
X35420001Y-270890000D01*
X36083599Y-270890000D01*
X36083600Y-270889999D01*
X36083600Y-270406702D01*
X36083599Y-270406699D01*
X36071996Y-270348363D01*
X36027793Y-270282210D01*
X36027789Y-270282206D01*
X35961636Y-270238003D01*
X35903300Y-270226400D01*
X35420001Y-270226400D01*
X35420000Y-270226401D01*
X34620000Y-270226401D01*
X34619999Y-270226400D01*
X34136699Y-270226400D01*
X34078363Y-270238003D01*
X34012210Y-270282206D01*
X34012206Y-270282210D01*
X33968003Y-270348363D01*
X33956400Y-270406699D01*
X250500Y-270406699D01*
X250500Y-268645192D01*
X33955900Y-268645192D01*
X33955900Y-268854807D01*
X33996792Y-269060385D01*
X34077006Y-269254039D01*
X34077007Y-269254040D01*
X34193459Y-269428324D01*
X34341676Y-269576541D01*
X34515960Y-269692993D01*
X34709613Y-269773207D01*
X34915195Y-269814100D01*
X34915196Y-269814100D01*
X35124804Y-269814100D01*
X35124805Y-269814100D01*
X35330387Y-269773207D01*
X35524040Y-269692993D01*
X35698324Y-269576541D01*
X35846541Y-269428324D01*
X35962993Y-269254040D01*
X36043207Y-269060387D01*
X36084100Y-268854805D01*
X36084100Y-268645195D01*
X36084099Y-268645192D01*
X36495900Y-268645192D01*
X36495900Y-268854807D01*
X36536792Y-269060385D01*
X36617006Y-269254039D01*
X36617007Y-269254040D01*
X36733459Y-269428324D01*
X36881676Y-269576541D01*
X37055960Y-269692993D01*
X37249613Y-269773207D01*
X37455195Y-269814100D01*
X37455196Y-269814100D01*
X37664804Y-269814100D01*
X37664805Y-269814100D01*
X37870387Y-269773207D01*
X38064040Y-269692993D01*
X38238324Y-269576541D01*
X38386541Y-269428324D01*
X38502993Y-269254040D01*
X38583207Y-269060387D01*
X38624100Y-268854805D01*
X38624100Y-268645195D01*
X38624099Y-268645192D01*
X39035900Y-268645192D01*
X39035900Y-268854807D01*
X39076792Y-269060385D01*
X39157006Y-269254039D01*
X39157007Y-269254040D01*
X39273459Y-269428324D01*
X39421676Y-269576541D01*
X39595960Y-269692993D01*
X39789613Y-269773207D01*
X39995195Y-269814100D01*
X39995196Y-269814100D01*
X40204804Y-269814100D01*
X40204805Y-269814100D01*
X40410387Y-269773207D01*
X40604040Y-269692993D01*
X40778324Y-269576541D01*
X40926541Y-269428324D01*
X41042993Y-269254040D01*
X41123207Y-269060387D01*
X41164100Y-268854805D01*
X41164100Y-268645195D01*
X41164099Y-268645192D01*
X108955900Y-268645192D01*
X108955900Y-268854807D01*
X108996792Y-269060385D01*
X109077006Y-269254039D01*
X109077007Y-269254040D01*
X109193459Y-269428324D01*
X109341676Y-269576541D01*
X109515960Y-269692993D01*
X109709613Y-269773207D01*
X109915195Y-269814100D01*
X109915196Y-269814100D01*
X110124804Y-269814100D01*
X110124805Y-269814100D01*
X110330387Y-269773207D01*
X110524040Y-269692993D01*
X110698324Y-269576541D01*
X110846541Y-269428324D01*
X110962993Y-269254040D01*
X111043207Y-269060387D01*
X111084100Y-268854805D01*
X111084100Y-268645195D01*
X111084099Y-268645192D01*
X111495900Y-268645192D01*
X111495900Y-268854807D01*
X111536792Y-269060385D01*
X111617006Y-269254039D01*
X111617007Y-269254040D01*
X111733459Y-269428324D01*
X111881676Y-269576541D01*
X112055960Y-269692993D01*
X112249613Y-269773207D01*
X112455195Y-269814100D01*
X112455196Y-269814100D01*
X112664804Y-269814100D01*
X112664805Y-269814100D01*
X112870387Y-269773207D01*
X113064040Y-269692993D01*
X113238324Y-269576541D01*
X113386541Y-269428324D01*
X113502993Y-269254040D01*
X113583207Y-269060387D01*
X113624100Y-268854805D01*
X113624100Y-268645195D01*
X113624099Y-268645192D01*
X114035900Y-268645192D01*
X114035900Y-268854807D01*
X114076792Y-269060385D01*
X114157006Y-269254039D01*
X114157007Y-269254040D01*
X114273459Y-269428324D01*
X114421676Y-269576541D01*
X114595960Y-269692993D01*
X114789613Y-269773207D01*
X114995195Y-269814100D01*
X114995196Y-269814100D01*
X115204804Y-269814100D01*
X115204805Y-269814100D01*
X115410387Y-269773207D01*
X115604040Y-269692993D01*
X115778324Y-269576541D01*
X115926541Y-269428324D01*
X116042993Y-269254040D01*
X116123207Y-269060387D01*
X116164100Y-268854805D01*
X116164100Y-268645195D01*
X116164099Y-268645192D01*
X183955900Y-268645192D01*
X183955900Y-268854807D01*
X183996792Y-269060385D01*
X184077006Y-269254039D01*
X184077007Y-269254040D01*
X184193459Y-269428324D01*
X184341676Y-269576541D01*
X184515960Y-269692993D01*
X184709613Y-269773207D01*
X184915195Y-269814100D01*
X184915196Y-269814100D01*
X185124804Y-269814100D01*
X185124805Y-269814100D01*
X185330387Y-269773207D01*
X185524040Y-269692993D01*
X185698324Y-269576541D01*
X185846541Y-269428324D01*
X185962993Y-269254040D01*
X186043207Y-269060387D01*
X186084100Y-268854805D01*
X186084100Y-268645195D01*
X186084099Y-268645192D01*
X186495900Y-268645192D01*
X186495900Y-268854807D01*
X186536792Y-269060385D01*
X186617006Y-269254039D01*
X186617007Y-269254040D01*
X186733459Y-269428324D01*
X186881676Y-269576541D01*
X187055960Y-269692993D01*
X187249613Y-269773207D01*
X187455195Y-269814100D01*
X187455196Y-269814100D01*
X187664804Y-269814100D01*
X187664805Y-269814100D01*
X187870387Y-269773207D01*
X188064040Y-269692993D01*
X188238324Y-269576541D01*
X188386541Y-269428324D01*
X188502993Y-269254040D01*
X188583207Y-269060387D01*
X188624100Y-268854805D01*
X188624100Y-268645195D01*
X188624099Y-268645192D01*
X189035900Y-268645192D01*
X189035900Y-268854807D01*
X189076792Y-269060385D01*
X189157006Y-269254039D01*
X189157007Y-269254040D01*
X189273459Y-269428324D01*
X189421676Y-269576541D01*
X189595960Y-269692993D01*
X189789613Y-269773207D01*
X189995195Y-269814100D01*
X189995196Y-269814100D01*
X190204804Y-269814100D01*
X190204805Y-269814100D01*
X190410387Y-269773207D01*
X190604040Y-269692993D01*
X190778324Y-269576541D01*
X190926541Y-269428324D01*
X191042993Y-269254040D01*
X191123207Y-269060387D01*
X191164100Y-268854805D01*
X191164100Y-268645195D01*
X191164099Y-268645192D01*
X258955900Y-268645192D01*
X258955900Y-268854807D01*
X258996792Y-269060385D01*
X259077006Y-269254039D01*
X259077007Y-269254040D01*
X259193459Y-269428324D01*
X259341676Y-269576541D01*
X259515960Y-269692993D01*
X259709613Y-269773207D01*
X259915195Y-269814100D01*
X259915196Y-269814100D01*
X260124804Y-269814100D01*
X260124805Y-269814100D01*
X260330387Y-269773207D01*
X260524040Y-269692993D01*
X260698324Y-269576541D01*
X260846541Y-269428324D01*
X260962993Y-269254040D01*
X261043207Y-269060387D01*
X261084100Y-268854805D01*
X261084100Y-268645195D01*
X261084099Y-268645192D01*
X261495900Y-268645192D01*
X261495900Y-268854807D01*
X261536792Y-269060385D01*
X261617006Y-269254039D01*
X261617007Y-269254040D01*
X261733459Y-269428324D01*
X261881676Y-269576541D01*
X262055960Y-269692993D01*
X262249613Y-269773207D01*
X262455195Y-269814100D01*
X262455196Y-269814100D01*
X262664804Y-269814100D01*
X262664805Y-269814100D01*
X262870387Y-269773207D01*
X263064040Y-269692993D01*
X263238324Y-269576541D01*
X263386541Y-269428324D01*
X263502993Y-269254040D01*
X263583207Y-269060387D01*
X263624100Y-268854805D01*
X263624100Y-268645195D01*
X263624099Y-268645192D01*
X264035900Y-268645192D01*
X264035900Y-268854807D01*
X264076792Y-269060385D01*
X264157006Y-269254039D01*
X264157007Y-269254040D01*
X264273459Y-269428324D01*
X264421676Y-269576541D01*
X264595960Y-269692993D01*
X264789613Y-269773207D01*
X264995195Y-269814100D01*
X264995196Y-269814100D01*
X265204804Y-269814100D01*
X265204805Y-269814100D01*
X265410387Y-269773207D01*
X265604040Y-269692993D01*
X265778324Y-269576541D01*
X265926541Y-269428324D01*
X266042993Y-269254040D01*
X266123207Y-269060387D01*
X266164100Y-268854805D01*
X266164100Y-268645195D01*
X266123207Y-268439613D01*
X266042993Y-268245960D01*
X265926541Y-268071676D01*
X265778324Y-267923459D01*
X265604040Y-267807007D01*
X265604041Y-267807007D01*
X265604039Y-267807006D01*
X265410385Y-267726792D01*
X265204807Y-267685900D01*
X265204805Y-267685900D01*
X264995195Y-267685900D01*
X264995192Y-267685900D01*
X264789614Y-267726792D01*
X264595960Y-267807006D01*
X264421679Y-267923456D01*
X264273456Y-268071679D01*
X264157006Y-268245960D01*
X264076792Y-268439614D01*
X264035900Y-268645192D01*
X263624099Y-268645192D01*
X263583207Y-268439613D01*
X263502993Y-268245960D01*
X263386541Y-268071676D01*
X263238324Y-267923459D01*
X263064040Y-267807007D01*
X263064041Y-267807007D01*
X263064039Y-267807006D01*
X262870385Y-267726792D01*
X262664807Y-267685900D01*
X262664805Y-267685900D01*
X262455195Y-267685900D01*
X262455192Y-267685900D01*
X262249614Y-267726792D01*
X262055960Y-267807006D01*
X261881679Y-267923456D01*
X261733456Y-268071679D01*
X261617006Y-268245960D01*
X261536792Y-268439614D01*
X261495900Y-268645192D01*
X261084099Y-268645192D01*
X261043207Y-268439613D01*
X260962993Y-268245960D01*
X260846541Y-268071676D01*
X260698324Y-267923459D01*
X260524040Y-267807007D01*
X260524041Y-267807007D01*
X260524039Y-267807006D01*
X260330385Y-267726792D01*
X260124807Y-267685900D01*
X260124805Y-267685900D01*
X259915195Y-267685900D01*
X259915192Y-267685900D01*
X259709614Y-267726792D01*
X259515960Y-267807006D01*
X259341679Y-267923456D01*
X259193456Y-268071679D01*
X259077006Y-268245960D01*
X258996792Y-268439614D01*
X258955900Y-268645192D01*
X191164099Y-268645192D01*
X191123207Y-268439613D01*
X191042993Y-268245960D01*
X190926541Y-268071676D01*
X190778324Y-267923459D01*
X190604040Y-267807007D01*
X190604041Y-267807007D01*
X190604039Y-267807006D01*
X190410385Y-267726792D01*
X190204807Y-267685900D01*
X190204805Y-267685900D01*
X189995195Y-267685900D01*
X189995192Y-267685900D01*
X189789614Y-267726792D01*
X189595960Y-267807006D01*
X189421679Y-267923456D01*
X189273456Y-268071679D01*
X189157006Y-268245960D01*
X189076792Y-268439614D01*
X189035900Y-268645192D01*
X188624099Y-268645192D01*
X188583207Y-268439613D01*
X188502993Y-268245960D01*
X188386541Y-268071676D01*
X188238324Y-267923459D01*
X188064040Y-267807007D01*
X188064041Y-267807007D01*
X188064039Y-267807006D01*
X187870385Y-267726792D01*
X187664807Y-267685900D01*
X187664805Y-267685900D01*
X187455195Y-267685900D01*
X187455192Y-267685900D01*
X187249614Y-267726792D01*
X187055960Y-267807006D01*
X186881679Y-267923456D01*
X186733456Y-268071679D01*
X186617006Y-268245960D01*
X186536792Y-268439614D01*
X186495900Y-268645192D01*
X186084099Y-268645192D01*
X186043207Y-268439613D01*
X185962993Y-268245960D01*
X185846541Y-268071676D01*
X185698324Y-267923459D01*
X185524040Y-267807007D01*
X185524041Y-267807007D01*
X185524039Y-267807006D01*
X185330385Y-267726792D01*
X185124807Y-267685900D01*
X185124805Y-267685900D01*
X184915195Y-267685900D01*
X184915192Y-267685900D01*
X184709614Y-267726792D01*
X184515960Y-267807006D01*
X184341679Y-267923456D01*
X184193456Y-268071679D01*
X184077006Y-268245960D01*
X183996792Y-268439614D01*
X183955900Y-268645192D01*
X116164099Y-268645192D01*
X116123207Y-268439613D01*
X116042993Y-268245960D01*
X115926541Y-268071676D01*
X115778324Y-267923459D01*
X115604040Y-267807007D01*
X115604041Y-267807007D01*
X115604039Y-267807006D01*
X115410385Y-267726792D01*
X115204807Y-267685900D01*
X115204805Y-267685900D01*
X114995195Y-267685900D01*
X114995192Y-267685900D01*
X114789614Y-267726792D01*
X114595960Y-267807006D01*
X114421679Y-267923456D01*
X114273456Y-268071679D01*
X114157006Y-268245960D01*
X114076792Y-268439614D01*
X114035900Y-268645192D01*
X113624099Y-268645192D01*
X113583207Y-268439613D01*
X113502993Y-268245960D01*
X113386541Y-268071676D01*
X113238324Y-267923459D01*
X113064040Y-267807007D01*
X113064041Y-267807007D01*
X113064039Y-267807006D01*
X112870385Y-267726792D01*
X112664807Y-267685900D01*
X112664805Y-267685900D01*
X112455195Y-267685900D01*
X112455192Y-267685900D01*
X112249614Y-267726792D01*
X112055960Y-267807006D01*
X111881679Y-267923456D01*
X111733456Y-268071679D01*
X111617006Y-268245960D01*
X111536792Y-268439614D01*
X111495900Y-268645192D01*
X111084099Y-268645192D01*
X111043207Y-268439613D01*
X110962993Y-268245960D01*
X110846541Y-268071676D01*
X110698324Y-267923459D01*
X110524040Y-267807007D01*
X110524041Y-267807007D01*
X110524039Y-267807006D01*
X110330385Y-267726792D01*
X110124807Y-267685900D01*
X110124805Y-267685900D01*
X109915195Y-267685900D01*
X109915192Y-267685900D01*
X109709614Y-267726792D01*
X109515960Y-267807006D01*
X109341679Y-267923456D01*
X109193456Y-268071679D01*
X109077006Y-268245960D01*
X108996792Y-268439614D01*
X108955900Y-268645192D01*
X41164099Y-268645192D01*
X41123207Y-268439613D01*
X41042993Y-268245960D01*
X40926541Y-268071676D01*
X40778324Y-267923459D01*
X40604040Y-267807007D01*
X40604041Y-267807007D01*
X40604039Y-267807006D01*
X40410385Y-267726792D01*
X40204807Y-267685900D01*
X40204805Y-267685900D01*
X39995195Y-267685900D01*
X39995192Y-267685900D01*
X39789614Y-267726792D01*
X39595960Y-267807006D01*
X39421679Y-267923456D01*
X39273456Y-268071679D01*
X39157006Y-268245960D01*
X39076792Y-268439614D01*
X39035900Y-268645192D01*
X38624099Y-268645192D01*
X38583207Y-268439613D01*
X38502993Y-268245960D01*
X38386541Y-268071676D01*
X38238324Y-267923459D01*
X38064040Y-267807007D01*
X38064041Y-267807007D01*
X38064039Y-267807006D01*
X37870385Y-267726792D01*
X37664807Y-267685900D01*
X37664805Y-267685900D01*
X37455195Y-267685900D01*
X37455192Y-267685900D01*
X37249614Y-267726792D01*
X37055960Y-267807006D01*
X36881679Y-267923456D01*
X36733456Y-268071679D01*
X36617006Y-268245960D01*
X36536792Y-268439614D01*
X36495900Y-268645192D01*
X36084099Y-268645192D01*
X36043207Y-268439613D01*
X35962993Y-268245960D01*
X35846541Y-268071676D01*
X35698324Y-267923459D01*
X35524040Y-267807007D01*
X35524041Y-267807007D01*
X35524039Y-267807006D01*
X35330385Y-267726792D01*
X35124807Y-267685900D01*
X35124805Y-267685900D01*
X34915195Y-267685900D01*
X34915192Y-267685900D01*
X34709614Y-267726792D01*
X34515960Y-267807006D01*
X34341679Y-267923456D01*
X34193456Y-268071679D01*
X34077006Y-268245960D01*
X33996792Y-268439614D01*
X33955900Y-268645192D01*
X250500Y-268645192D01*
X250500Y-199885265D01*
X3249500Y-199885265D01*
X3249500Y-200114734D01*
X3279452Y-200342238D01*
X3338841Y-200563885D01*
X3426653Y-200775883D01*
X3426656Y-200775888D01*
X3541389Y-200974612D01*
X3681081Y-201156661D01*
X3843339Y-201318919D01*
X4025388Y-201458611D01*
X4224112Y-201573344D01*
X4224113Y-201573344D01*
X4224116Y-201573346D01*
X4320167Y-201613131D01*
X4436113Y-201661158D01*
X4657762Y-201720548D01*
X4885266Y-201750500D01*
X4885267Y-201750500D01*
X5114733Y-201750500D01*
X5114734Y-201750500D01*
X5342238Y-201720548D01*
X5563887Y-201661158D01*
X5775888Y-201573344D01*
X5974612Y-201458611D01*
X6156661Y-201318919D01*
X6318919Y-201156661D01*
X6458611Y-200974612D01*
X6573344Y-200775888D01*
X6661158Y-200563887D01*
X6720548Y-200342238D01*
X6750500Y-200114734D01*
X6750500Y-199885266D01*
X6750500Y-199885265D01*
X293249500Y-199885265D01*
X293249500Y-200114734D01*
X293279452Y-200342238D01*
X293338841Y-200563885D01*
X293426653Y-200775883D01*
X293426656Y-200775888D01*
X293541389Y-200974612D01*
X293681081Y-201156661D01*
X293843339Y-201318919D01*
X294025388Y-201458611D01*
X294224112Y-201573344D01*
X294224113Y-201573344D01*
X294224116Y-201573346D01*
X294320167Y-201613131D01*
X294436113Y-201661158D01*
X294657762Y-201720548D01*
X294885266Y-201750500D01*
X294885267Y-201750500D01*
X295114733Y-201750500D01*
X295114734Y-201750500D01*
X295342238Y-201720548D01*
X295563887Y-201661158D01*
X295775888Y-201573344D01*
X295974612Y-201458611D01*
X296156661Y-201318919D01*
X296318919Y-201156661D01*
X296458611Y-200974612D01*
X296573344Y-200775888D01*
X296661158Y-200563887D01*
X296720548Y-200342238D01*
X296750500Y-200114734D01*
X296750500Y-199885266D01*
X296720548Y-199657762D01*
X296661158Y-199436113D01*
X296573344Y-199224112D01*
X296458611Y-199025388D01*
X296318919Y-198843339D01*
X296156661Y-198681081D01*
X295974612Y-198541389D01*
X295974613Y-198541389D01*
X295974611Y-198541388D01*
X295775883Y-198426653D01*
X295563885Y-198338841D01*
X295342238Y-198279452D01*
X295114734Y-198249500D01*
X294885266Y-198249500D01*
X294885265Y-198249500D01*
X294657761Y-198279452D01*
X294436114Y-198338841D01*
X294224116Y-198426653D01*
X294025388Y-198541388D01*
X293843342Y-198681078D01*
X293681078Y-198843342D01*
X293541388Y-199025388D01*
X293426653Y-199224116D01*
X293338841Y-199436114D01*
X293279452Y-199657761D01*
X293249500Y-199885265D01*
X6750500Y-199885265D01*
X6720548Y-199657762D01*
X6661158Y-199436113D01*
X6573344Y-199224112D01*
X6458611Y-199025388D01*
X6318919Y-198843339D01*
X6156661Y-198681081D01*
X5974612Y-198541389D01*
X5974613Y-198541389D01*
X5974611Y-198541388D01*
X5775883Y-198426653D01*
X5563885Y-198338841D01*
X5342238Y-198279452D01*
X5114734Y-198249500D01*
X4885266Y-198249500D01*
X4885265Y-198249500D01*
X4657761Y-198279452D01*
X4436114Y-198338841D01*
X4224116Y-198426653D01*
X4025388Y-198541388D01*
X3843342Y-198681078D01*
X3681078Y-198843342D01*
X3541388Y-199025388D01*
X3426653Y-199224116D01*
X3338841Y-199436114D01*
X3279452Y-199657761D01*
X3249500Y-199885265D01*
X250500Y-199885265D01*
X250500Y-171690001D01*
X33956400Y-171690001D01*
X33956400Y-172173300D01*
X33968003Y-172231636D01*
X34012206Y-172297789D01*
X34012210Y-172297793D01*
X34078363Y-172341996D01*
X34136699Y-172353599D01*
X34136703Y-172353600D01*
X34619999Y-172353600D01*
X34620000Y-172353599D01*
X34620000Y-171690001D01*
X34619999Y-171690000D01*
X33956401Y-171690000D01*
X33956400Y-171690001D01*
X250500Y-171690001D01*
X250500Y-171223120D01*
X34512000Y-171223120D01*
X34512000Y-171356880D01*
X34546619Y-171486081D01*
X34613498Y-171601920D01*
X34708080Y-171696502D01*
X34823919Y-171763381D01*
X34953120Y-171798000D01*
X35086880Y-171798000D01*
X35216081Y-171763381D01*
X35331920Y-171696502D01*
X35338421Y-171690001D01*
X35420000Y-171690001D01*
X35420000Y-172353599D01*
X35420001Y-172353600D01*
X35903297Y-172353600D01*
X35903300Y-172353599D01*
X35961636Y-172341996D01*
X36027789Y-172297793D01*
X36027793Y-172297789D01*
X36071996Y-172231636D01*
X36083599Y-172173300D01*
X36083600Y-172173297D01*
X36083600Y-171690001D01*
X36083599Y-171690000D01*
X35420001Y-171690000D01*
X35420000Y-171690001D01*
X35338421Y-171690001D01*
X35426502Y-171601920D01*
X35493381Y-171486081D01*
X35528000Y-171356880D01*
X35528000Y-171223120D01*
X35517837Y-171185192D01*
X36495900Y-171185192D01*
X36495900Y-171394807D01*
X36536792Y-171600385D01*
X36617006Y-171794039D01*
X36617007Y-171794040D01*
X36733459Y-171968324D01*
X36881676Y-172116541D01*
X37055960Y-172232993D01*
X37249613Y-172313207D01*
X37455195Y-172354100D01*
X37455196Y-172354100D01*
X37664804Y-172354100D01*
X37664805Y-172354100D01*
X37870387Y-172313207D01*
X38064040Y-172232993D01*
X38238324Y-172116541D01*
X38386541Y-171968324D01*
X38502993Y-171794040D01*
X38583207Y-171600387D01*
X38624100Y-171394805D01*
X38624100Y-171185195D01*
X38624099Y-171185192D01*
X39035900Y-171185192D01*
X39035900Y-171394807D01*
X39076792Y-171600385D01*
X39157006Y-171794039D01*
X39157007Y-171794040D01*
X39273459Y-171968324D01*
X39421676Y-172116541D01*
X39595960Y-172232993D01*
X39789613Y-172313207D01*
X39995195Y-172354100D01*
X39995196Y-172354100D01*
X40204804Y-172354100D01*
X40204805Y-172354100D01*
X40410387Y-172313207D01*
X40604040Y-172232993D01*
X40778324Y-172116541D01*
X40926541Y-171968324D01*
X41042993Y-171794040D01*
X41086088Y-171690001D01*
X108956400Y-171690001D01*
X108956400Y-172173300D01*
X108968003Y-172231636D01*
X109012206Y-172297789D01*
X109012210Y-172297793D01*
X109078363Y-172341996D01*
X109136699Y-172353599D01*
X109136703Y-172353600D01*
X109619999Y-172353600D01*
X109620000Y-172353599D01*
X109620000Y-171690001D01*
X109619999Y-171690000D01*
X108956401Y-171690000D01*
X108956400Y-171690001D01*
X41086088Y-171690001D01*
X41123207Y-171600387D01*
X41164100Y-171394805D01*
X41164100Y-171223120D01*
X109512000Y-171223120D01*
X109512000Y-171356880D01*
X109546619Y-171486081D01*
X109613498Y-171601920D01*
X109708080Y-171696502D01*
X109823919Y-171763381D01*
X109953120Y-171798000D01*
X110086880Y-171798000D01*
X110216081Y-171763381D01*
X110331920Y-171696502D01*
X110338421Y-171690001D01*
X110420000Y-171690001D01*
X110420000Y-172353599D01*
X110420001Y-172353600D01*
X110903297Y-172353600D01*
X110903300Y-172353599D01*
X110961636Y-172341996D01*
X111027789Y-172297793D01*
X111027793Y-172297789D01*
X111071996Y-172231636D01*
X111083599Y-172173300D01*
X111083600Y-172173297D01*
X111083600Y-171690001D01*
X111083599Y-171690000D01*
X110420001Y-171690000D01*
X110420000Y-171690001D01*
X110338421Y-171690001D01*
X110426502Y-171601920D01*
X110493381Y-171486081D01*
X110528000Y-171356880D01*
X110528000Y-171223120D01*
X110517837Y-171185192D01*
X111495900Y-171185192D01*
X111495900Y-171394807D01*
X111536792Y-171600385D01*
X111617006Y-171794039D01*
X111617007Y-171794040D01*
X111733459Y-171968324D01*
X111881676Y-172116541D01*
X112055960Y-172232993D01*
X112249613Y-172313207D01*
X112455195Y-172354100D01*
X112455196Y-172354100D01*
X112664804Y-172354100D01*
X112664805Y-172354100D01*
X112870387Y-172313207D01*
X113064040Y-172232993D01*
X113238324Y-172116541D01*
X113386541Y-171968324D01*
X113502993Y-171794040D01*
X113583207Y-171600387D01*
X113624100Y-171394805D01*
X113624100Y-171185195D01*
X113624099Y-171185192D01*
X114035900Y-171185192D01*
X114035900Y-171394807D01*
X114076792Y-171600385D01*
X114157006Y-171794039D01*
X114157007Y-171794040D01*
X114273459Y-171968324D01*
X114421676Y-172116541D01*
X114595960Y-172232993D01*
X114789613Y-172313207D01*
X114995195Y-172354100D01*
X114995196Y-172354100D01*
X115204804Y-172354100D01*
X115204805Y-172354100D01*
X115410387Y-172313207D01*
X115604040Y-172232993D01*
X115778324Y-172116541D01*
X115926541Y-171968324D01*
X116042993Y-171794040D01*
X116086088Y-171690001D01*
X183956400Y-171690001D01*
X183956400Y-172173300D01*
X183968003Y-172231636D01*
X184012206Y-172297789D01*
X184012210Y-172297793D01*
X184078363Y-172341996D01*
X184136699Y-172353599D01*
X184136703Y-172353600D01*
X184619999Y-172353600D01*
X184620000Y-172353599D01*
X184620000Y-171690001D01*
X184619999Y-171690000D01*
X183956401Y-171690000D01*
X183956400Y-171690001D01*
X116086088Y-171690001D01*
X116123207Y-171600387D01*
X116164100Y-171394805D01*
X116164100Y-171223120D01*
X184512000Y-171223120D01*
X184512000Y-171356880D01*
X184546619Y-171486081D01*
X184613498Y-171601920D01*
X184708080Y-171696502D01*
X184823919Y-171763381D01*
X184953120Y-171798000D01*
X185086880Y-171798000D01*
X185216081Y-171763381D01*
X185331920Y-171696502D01*
X185338421Y-171690001D01*
X185420000Y-171690001D01*
X185420000Y-172353599D01*
X185420001Y-172353600D01*
X185903297Y-172353600D01*
X185903300Y-172353599D01*
X185961636Y-172341996D01*
X186027789Y-172297793D01*
X186027793Y-172297789D01*
X186071996Y-172231636D01*
X186083599Y-172173300D01*
X186083600Y-172173297D01*
X186083600Y-171690001D01*
X186083599Y-171690000D01*
X185420001Y-171690000D01*
X185420000Y-171690001D01*
X185338421Y-171690001D01*
X185426502Y-171601920D01*
X185493381Y-171486081D01*
X185528000Y-171356880D01*
X185528000Y-171223120D01*
X185517837Y-171185192D01*
X186495900Y-171185192D01*
X186495900Y-171394807D01*
X186536792Y-171600385D01*
X186617006Y-171794039D01*
X186617007Y-171794040D01*
X186733459Y-171968324D01*
X186881676Y-172116541D01*
X187055960Y-172232993D01*
X187249613Y-172313207D01*
X187455195Y-172354100D01*
X187455196Y-172354100D01*
X187664804Y-172354100D01*
X187664805Y-172354100D01*
X187870387Y-172313207D01*
X188064040Y-172232993D01*
X188238324Y-172116541D01*
X188386541Y-171968324D01*
X188502993Y-171794040D01*
X188583207Y-171600387D01*
X188624100Y-171394805D01*
X188624100Y-171185195D01*
X188624099Y-171185192D01*
X189035900Y-171185192D01*
X189035900Y-171394807D01*
X189076792Y-171600385D01*
X189157006Y-171794039D01*
X189157007Y-171794040D01*
X189273459Y-171968324D01*
X189421676Y-172116541D01*
X189595960Y-172232993D01*
X189789613Y-172313207D01*
X189995195Y-172354100D01*
X189995196Y-172354100D01*
X190204804Y-172354100D01*
X190204805Y-172354100D01*
X190410387Y-172313207D01*
X190604040Y-172232993D01*
X190778324Y-172116541D01*
X190926541Y-171968324D01*
X191042993Y-171794040D01*
X191086088Y-171690001D01*
X258956400Y-171690001D01*
X258956400Y-172173300D01*
X258968003Y-172231636D01*
X259012206Y-172297789D01*
X259012210Y-172297793D01*
X259078363Y-172341996D01*
X259136699Y-172353599D01*
X259136703Y-172353600D01*
X259619999Y-172353600D01*
X259620000Y-172353599D01*
X259620000Y-171690001D01*
X259619999Y-171690000D01*
X258956401Y-171690000D01*
X258956400Y-171690001D01*
X191086088Y-171690001D01*
X191123207Y-171600387D01*
X191164100Y-171394805D01*
X191164100Y-171223120D01*
X259512000Y-171223120D01*
X259512000Y-171356880D01*
X259546619Y-171486081D01*
X259613498Y-171601920D01*
X259708080Y-171696502D01*
X259823919Y-171763381D01*
X259953120Y-171798000D01*
X260086880Y-171798000D01*
X260216081Y-171763381D01*
X260331920Y-171696502D01*
X260338421Y-171690001D01*
X260420000Y-171690001D01*
X260420000Y-172353599D01*
X260420001Y-172353600D01*
X260903297Y-172353600D01*
X260903300Y-172353599D01*
X260961636Y-172341996D01*
X261027789Y-172297793D01*
X261027793Y-172297789D01*
X261071996Y-172231636D01*
X261083599Y-172173300D01*
X261083600Y-172173297D01*
X261083600Y-171690001D01*
X261083599Y-171690000D01*
X260420001Y-171690000D01*
X260420000Y-171690001D01*
X260338421Y-171690001D01*
X260426502Y-171601920D01*
X260493381Y-171486081D01*
X260528000Y-171356880D01*
X260528000Y-171223120D01*
X260517837Y-171185192D01*
X261495900Y-171185192D01*
X261495900Y-171394807D01*
X261536792Y-171600385D01*
X261617006Y-171794039D01*
X261617007Y-171794040D01*
X261733459Y-171968324D01*
X261881676Y-172116541D01*
X262055960Y-172232993D01*
X262249613Y-172313207D01*
X262455195Y-172354100D01*
X262455196Y-172354100D01*
X262664804Y-172354100D01*
X262664805Y-172354100D01*
X262870387Y-172313207D01*
X263064040Y-172232993D01*
X263238324Y-172116541D01*
X263386541Y-171968324D01*
X263502993Y-171794040D01*
X263583207Y-171600387D01*
X263624100Y-171394805D01*
X263624100Y-171185195D01*
X263624099Y-171185192D01*
X264035900Y-171185192D01*
X264035900Y-171394807D01*
X264076792Y-171600385D01*
X264157006Y-171794039D01*
X264157007Y-171794040D01*
X264273459Y-171968324D01*
X264421676Y-172116541D01*
X264595960Y-172232993D01*
X264789613Y-172313207D01*
X264995195Y-172354100D01*
X264995196Y-172354100D01*
X265204804Y-172354100D01*
X265204805Y-172354100D01*
X265410387Y-172313207D01*
X265604040Y-172232993D01*
X265778324Y-172116541D01*
X265926541Y-171968324D01*
X266042993Y-171794040D01*
X266123207Y-171600387D01*
X266164100Y-171394805D01*
X266164100Y-171185195D01*
X266123207Y-170979613D01*
X266042993Y-170785960D01*
X265926541Y-170611676D01*
X265778324Y-170463459D01*
X265693381Y-170406702D01*
X265604039Y-170347006D01*
X265410385Y-170266792D01*
X265204807Y-170225900D01*
X265204805Y-170225900D01*
X264995195Y-170225900D01*
X264995192Y-170225900D01*
X264789614Y-170266792D01*
X264595960Y-170347006D01*
X264421679Y-170463456D01*
X264273456Y-170611679D01*
X264157006Y-170785960D01*
X264076792Y-170979614D01*
X264035900Y-171185192D01*
X263624099Y-171185192D01*
X263583207Y-170979613D01*
X263502993Y-170785960D01*
X263386541Y-170611676D01*
X263238324Y-170463459D01*
X263153381Y-170406702D01*
X263064039Y-170347006D01*
X262870385Y-170266792D01*
X262664807Y-170225900D01*
X262664805Y-170225900D01*
X262455195Y-170225900D01*
X262455192Y-170225900D01*
X262249614Y-170266792D01*
X262055960Y-170347006D01*
X261881679Y-170463456D01*
X261733456Y-170611679D01*
X261617006Y-170785960D01*
X261536792Y-170979614D01*
X261495900Y-171185192D01*
X260517837Y-171185192D01*
X260493381Y-171093919D01*
X260426502Y-170978080D01*
X260331920Y-170883498D01*
X260216081Y-170816619D01*
X260086880Y-170782000D01*
X259953120Y-170782000D01*
X259823919Y-170816619D01*
X259708080Y-170883498D01*
X259613498Y-170978080D01*
X259546619Y-171093919D01*
X259512000Y-171223120D01*
X191164100Y-171223120D01*
X191164100Y-171185195D01*
X191123207Y-170979613D01*
X191042993Y-170785960D01*
X190926541Y-170611676D01*
X190778324Y-170463459D01*
X190693381Y-170406702D01*
X190693377Y-170406699D01*
X258956400Y-170406699D01*
X258956400Y-170889999D01*
X258956401Y-170890000D01*
X259619999Y-170890000D01*
X259620000Y-170889999D01*
X259620000Y-170226401D01*
X260420000Y-170226401D01*
X260420000Y-170889999D01*
X260420001Y-170890000D01*
X261083599Y-170890000D01*
X261083600Y-170889999D01*
X261083600Y-170406702D01*
X261083599Y-170406699D01*
X261071996Y-170348363D01*
X261027793Y-170282210D01*
X261027789Y-170282206D01*
X260961636Y-170238003D01*
X260903300Y-170226400D01*
X260420001Y-170226400D01*
X260420000Y-170226401D01*
X259620000Y-170226401D01*
X259619999Y-170226400D01*
X259136699Y-170226400D01*
X259078363Y-170238003D01*
X259012210Y-170282206D01*
X259012206Y-170282210D01*
X258968003Y-170348363D01*
X258956400Y-170406699D01*
X190693377Y-170406699D01*
X190604039Y-170347006D01*
X190410385Y-170266792D01*
X190204807Y-170225900D01*
X190204805Y-170225900D01*
X189995195Y-170225900D01*
X189995192Y-170225900D01*
X189789614Y-170266792D01*
X189595960Y-170347006D01*
X189421679Y-170463456D01*
X189273456Y-170611679D01*
X189157006Y-170785960D01*
X189076792Y-170979614D01*
X189035900Y-171185192D01*
X188624099Y-171185192D01*
X188583207Y-170979613D01*
X188502993Y-170785960D01*
X188386541Y-170611676D01*
X188238324Y-170463459D01*
X188153381Y-170406702D01*
X188064039Y-170347006D01*
X187870385Y-170266792D01*
X187664807Y-170225900D01*
X187664805Y-170225900D01*
X187455195Y-170225900D01*
X187455192Y-170225900D01*
X187249614Y-170266792D01*
X187055960Y-170347006D01*
X186881679Y-170463456D01*
X186733456Y-170611679D01*
X186617006Y-170785960D01*
X186536792Y-170979614D01*
X186495900Y-171185192D01*
X185517837Y-171185192D01*
X185493381Y-171093919D01*
X185426502Y-170978080D01*
X185331920Y-170883498D01*
X185216081Y-170816619D01*
X185086880Y-170782000D01*
X184953120Y-170782000D01*
X184823919Y-170816619D01*
X184708080Y-170883498D01*
X184613498Y-170978080D01*
X184546619Y-171093919D01*
X184512000Y-171223120D01*
X116164100Y-171223120D01*
X116164100Y-171185195D01*
X116123207Y-170979613D01*
X116042993Y-170785960D01*
X115926541Y-170611676D01*
X115778324Y-170463459D01*
X115693381Y-170406702D01*
X115693377Y-170406699D01*
X183956400Y-170406699D01*
X183956400Y-170889999D01*
X183956401Y-170890000D01*
X184619999Y-170890000D01*
X184620000Y-170889999D01*
X184620000Y-170226401D01*
X185420000Y-170226401D01*
X185420000Y-170889999D01*
X185420001Y-170890000D01*
X186083599Y-170890000D01*
X186083600Y-170889999D01*
X186083600Y-170406702D01*
X186083599Y-170406699D01*
X186071996Y-170348363D01*
X186027793Y-170282210D01*
X186027789Y-170282206D01*
X185961636Y-170238003D01*
X185903300Y-170226400D01*
X185420001Y-170226400D01*
X185420000Y-170226401D01*
X184620000Y-170226401D01*
X184619999Y-170226400D01*
X184136699Y-170226400D01*
X184078363Y-170238003D01*
X184012210Y-170282206D01*
X184012206Y-170282210D01*
X183968003Y-170348363D01*
X183956400Y-170406699D01*
X115693377Y-170406699D01*
X115604039Y-170347006D01*
X115410385Y-170266792D01*
X115204807Y-170225900D01*
X115204805Y-170225900D01*
X114995195Y-170225900D01*
X114995192Y-170225900D01*
X114789614Y-170266792D01*
X114595960Y-170347006D01*
X114421679Y-170463456D01*
X114273456Y-170611679D01*
X114157006Y-170785960D01*
X114076792Y-170979614D01*
X114035900Y-171185192D01*
X113624099Y-171185192D01*
X113583207Y-170979613D01*
X113502993Y-170785960D01*
X113386541Y-170611676D01*
X113238324Y-170463459D01*
X113153381Y-170406702D01*
X113064039Y-170347006D01*
X112870385Y-170266792D01*
X112664807Y-170225900D01*
X112664805Y-170225900D01*
X112455195Y-170225900D01*
X112455192Y-170225900D01*
X112249614Y-170266792D01*
X112055960Y-170347006D01*
X111881679Y-170463456D01*
X111733456Y-170611679D01*
X111617006Y-170785960D01*
X111536792Y-170979614D01*
X111495900Y-171185192D01*
X110517837Y-171185192D01*
X110493381Y-171093919D01*
X110426502Y-170978080D01*
X110331920Y-170883498D01*
X110216081Y-170816619D01*
X110086880Y-170782000D01*
X109953120Y-170782000D01*
X109823919Y-170816619D01*
X109708080Y-170883498D01*
X109613498Y-170978080D01*
X109546619Y-171093919D01*
X109512000Y-171223120D01*
X41164100Y-171223120D01*
X41164100Y-171185195D01*
X41123207Y-170979613D01*
X41042993Y-170785960D01*
X40926541Y-170611676D01*
X40778324Y-170463459D01*
X40693381Y-170406702D01*
X40693377Y-170406699D01*
X108956400Y-170406699D01*
X108956400Y-170889999D01*
X108956401Y-170890000D01*
X109619999Y-170890000D01*
X109620000Y-170889999D01*
X109620000Y-170226401D01*
X110420000Y-170226401D01*
X110420000Y-170889999D01*
X110420001Y-170890000D01*
X111083599Y-170890000D01*
X111083600Y-170889999D01*
X111083600Y-170406702D01*
X111083599Y-170406699D01*
X111071996Y-170348363D01*
X111027793Y-170282210D01*
X111027789Y-170282206D01*
X110961636Y-170238003D01*
X110903300Y-170226400D01*
X110420001Y-170226400D01*
X110420000Y-170226401D01*
X109620000Y-170226401D01*
X109619999Y-170226400D01*
X109136699Y-170226400D01*
X109078363Y-170238003D01*
X109012210Y-170282206D01*
X109012206Y-170282210D01*
X108968003Y-170348363D01*
X108956400Y-170406699D01*
X40693377Y-170406699D01*
X40604039Y-170347006D01*
X40410385Y-170266792D01*
X40204807Y-170225900D01*
X40204805Y-170225900D01*
X39995195Y-170225900D01*
X39995192Y-170225900D01*
X39789614Y-170266792D01*
X39595960Y-170347006D01*
X39421679Y-170463456D01*
X39273456Y-170611679D01*
X39157006Y-170785960D01*
X39076792Y-170979614D01*
X39035900Y-171185192D01*
X38624099Y-171185192D01*
X38583207Y-170979613D01*
X38502993Y-170785960D01*
X38386541Y-170611676D01*
X38238324Y-170463459D01*
X38153381Y-170406702D01*
X38064039Y-170347006D01*
X37870385Y-170266792D01*
X37664807Y-170225900D01*
X37664805Y-170225900D01*
X37455195Y-170225900D01*
X37455192Y-170225900D01*
X37249614Y-170266792D01*
X37055960Y-170347006D01*
X36881679Y-170463456D01*
X36733456Y-170611679D01*
X36617006Y-170785960D01*
X36536792Y-170979614D01*
X36495900Y-171185192D01*
X35517837Y-171185192D01*
X35493381Y-171093919D01*
X35426502Y-170978080D01*
X35331920Y-170883498D01*
X35216081Y-170816619D01*
X35086880Y-170782000D01*
X34953120Y-170782000D01*
X34823919Y-170816619D01*
X34708080Y-170883498D01*
X34613498Y-170978080D01*
X34546619Y-171093919D01*
X34512000Y-171223120D01*
X250500Y-171223120D01*
X250500Y-170406699D01*
X33956400Y-170406699D01*
X33956400Y-170889999D01*
X33956401Y-170890000D01*
X34619999Y-170890000D01*
X34620000Y-170889999D01*
X34620000Y-170226401D01*
X35420000Y-170226401D01*
X35420000Y-170889999D01*
X35420001Y-170890000D01*
X36083599Y-170890000D01*
X36083600Y-170889999D01*
X36083600Y-170406702D01*
X36083599Y-170406699D01*
X36071996Y-170348363D01*
X36027793Y-170282210D01*
X36027789Y-170282206D01*
X35961636Y-170238003D01*
X35903300Y-170226400D01*
X35420001Y-170226400D01*
X35420000Y-170226401D01*
X34620000Y-170226401D01*
X34619999Y-170226400D01*
X34136699Y-170226400D01*
X34078363Y-170238003D01*
X34012210Y-170282206D01*
X34012206Y-170282210D01*
X33968003Y-170348363D01*
X33956400Y-170406699D01*
X250500Y-170406699D01*
X250500Y-168645192D01*
X33955900Y-168645192D01*
X33955900Y-168854807D01*
X33996792Y-169060385D01*
X34077006Y-169254039D01*
X34077007Y-169254040D01*
X34193459Y-169428324D01*
X34341676Y-169576541D01*
X34515960Y-169692993D01*
X34709613Y-169773207D01*
X34915195Y-169814100D01*
X34915196Y-169814100D01*
X35124804Y-169814100D01*
X35124805Y-169814100D01*
X35330387Y-169773207D01*
X35524040Y-169692993D01*
X35698324Y-169576541D01*
X35846541Y-169428324D01*
X35962993Y-169254040D01*
X36043207Y-169060387D01*
X36084100Y-168854805D01*
X36084100Y-168645195D01*
X36084099Y-168645192D01*
X36495900Y-168645192D01*
X36495900Y-168854807D01*
X36536792Y-169060385D01*
X36617006Y-169254039D01*
X36617007Y-169254040D01*
X36733459Y-169428324D01*
X36881676Y-169576541D01*
X37055960Y-169692993D01*
X37249613Y-169773207D01*
X37455195Y-169814100D01*
X37455196Y-169814100D01*
X37664804Y-169814100D01*
X37664805Y-169814100D01*
X37870387Y-169773207D01*
X38064040Y-169692993D01*
X38238324Y-169576541D01*
X38386541Y-169428324D01*
X38502993Y-169254040D01*
X38583207Y-169060387D01*
X38624100Y-168854805D01*
X38624100Y-168645195D01*
X38624099Y-168645192D01*
X39035900Y-168645192D01*
X39035900Y-168854807D01*
X39076792Y-169060385D01*
X39157006Y-169254039D01*
X39157007Y-169254040D01*
X39273459Y-169428324D01*
X39421676Y-169576541D01*
X39595960Y-169692993D01*
X39789613Y-169773207D01*
X39995195Y-169814100D01*
X39995196Y-169814100D01*
X40204804Y-169814100D01*
X40204805Y-169814100D01*
X40410387Y-169773207D01*
X40604040Y-169692993D01*
X40778324Y-169576541D01*
X40926541Y-169428324D01*
X41042993Y-169254040D01*
X41123207Y-169060387D01*
X41164100Y-168854805D01*
X41164100Y-168645195D01*
X41164099Y-168645192D01*
X108955900Y-168645192D01*
X108955900Y-168854807D01*
X108996792Y-169060385D01*
X109077006Y-169254039D01*
X109077007Y-169254040D01*
X109193459Y-169428324D01*
X109341676Y-169576541D01*
X109515960Y-169692993D01*
X109709613Y-169773207D01*
X109915195Y-169814100D01*
X109915196Y-169814100D01*
X110124804Y-169814100D01*
X110124805Y-169814100D01*
X110330387Y-169773207D01*
X110524040Y-169692993D01*
X110698324Y-169576541D01*
X110846541Y-169428324D01*
X110962993Y-169254040D01*
X111043207Y-169060387D01*
X111084100Y-168854805D01*
X111084100Y-168645195D01*
X111084099Y-168645192D01*
X111495900Y-168645192D01*
X111495900Y-168854807D01*
X111536792Y-169060385D01*
X111617006Y-169254039D01*
X111617007Y-169254040D01*
X111733459Y-169428324D01*
X111881676Y-169576541D01*
X112055960Y-169692993D01*
X112249613Y-169773207D01*
X112455195Y-169814100D01*
X112455196Y-169814100D01*
X112664804Y-169814100D01*
X112664805Y-169814100D01*
X112870387Y-169773207D01*
X113064040Y-169692993D01*
X113238324Y-169576541D01*
X113386541Y-169428324D01*
X113502993Y-169254040D01*
X113583207Y-169060387D01*
X113624100Y-168854805D01*
X113624100Y-168645195D01*
X113624099Y-168645192D01*
X114035900Y-168645192D01*
X114035900Y-168854807D01*
X114076792Y-169060385D01*
X114157006Y-169254039D01*
X114157007Y-169254040D01*
X114273459Y-169428324D01*
X114421676Y-169576541D01*
X114595960Y-169692993D01*
X114789613Y-169773207D01*
X114995195Y-169814100D01*
X114995196Y-169814100D01*
X115204804Y-169814100D01*
X115204805Y-169814100D01*
X115410387Y-169773207D01*
X115604040Y-169692993D01*
X115778324Y-169576541D01*
X115926541Y-169428324D01*
X116042993Y-169254040D01*
X116123207Y-169060387D01*
X116164100Y-168854805D01*
X116164100Y-168645195D01*
X116164099Y-168645192D01*
X183955900Y-168645192D01*
X183955900Y-168854807D01*
X183996792Y-169060385D01*
X184077006Y-169254039D01*
X184077007Y-169254040D01*
X184193459Y-169428324D01*
X184341676Y-169576541D01*
X184515960Y-169692993D01*
X184709613Y-169773207D01*
X184915195Y-169814100D01*
X184915196Y-169814100D01*
X185124804Y-169814100D01*
X185124805Y-169814100D01*
X185330387Y-169773207D01*
X185524040Y-169692993D01*
X185698324Y-169576541D01*
X185846541Y-169428324D01*
X185962993Y-169254040D01*
X186043207Y-169060387D01*
X186084100Y-168854805D01*
X186084100Y-168645195D01*
X186084099Y-168645192D01*
X186495900Y-168645192D01*
X186495900Y-168854807D01*
X186536792Y-169060385D01*
X186617006Y-169254039D01*
X186617007Y-169254040D01*
X186733459Y-169428324D01*
X186881676Y-169576541D01*
X187055960Y-169692993D01*
X187249613Y-169773207D01*
X187455195Y-169814100D01*
X187455196Y-169814100D01*
X187664804Y-169814100D01*
X187664805Y-169814100D01*
X187870387Y-169773207D01*
X188064040Y-169692993D01*
X188238324Y-169576541D01*
X188386541Y-169428324D01*
X188502993Y-169254040D01*
X188583207Y-169060387D01*
X188624100Y-168854805D01*
X188624100Y-168645195D01*
X188624099Y-168645192D01*
X189035900Y-168645192D01*
X189035900Y-168854807D01*
X189076792Y-169060385D01*
X189157006Y-169254039D01*
X189157007Y-169254040D01*
X189273459Y-169428324D01*
X189421676Y-169576541D01*
X189595960Y-169692993D01*
X189789613Y-169773207D01*
X189995195Y-169814100D01*
X189995196Y-169814100D01*
X190204804Y-169814100D01*
X190204805Y-169814100D01*
X190410387Y-169773207D01*
X190604040Y-169692993D01*
X190778324Y-169576541D01*
X190926541Y-169428324D01*
X191042993Y-169254040D01*
X191123207Y-169060387D01*
X191164100Y-168854805D01*
X191164100Y-168645195D01*
X191164099Y-168645192D01*
X258955900Y-168645192D01*
X258955900Y-168854807D01*
X258996792Y-169060385D01*
X259077006Y-169254039D01*
X259077007Y-169254040D01*
X259193459Y-169428324D01*
X259341676Y-169576541D01*
X259515960Y-169692993D01*
X259709613Y-169773207D01*
X259915195Y-169814100D01*
X259915196Y-169814100D01*
X260124804Y-169814100D01*
X260124805Y-169814100D01*
X260330387Y-169773207D01*
X260524040Y-169692993D01*
X260698324Y-169576541D01*
X260846541Y-169428324D01*
X260962993Y-169254040D01*
X261043207Y-169060387D01*
X261084100Y-168854805D01*
X261084100Y-168645195D01*
X261084099Y-168645192D01*
X261495900Y-168645192D01*
X261495900Y-168854807D01*
X261536792Y-169060385D01*
X261617006Y-169254039D01*
X261617007Y-169254040D01*
X261733459Y-169428324D01*
X261881676Y-169576541D01*
X262055960Y-169692993D01*
X262249613Y-169773207D01*
X262455195Y-169814100D01*
X262455196Y-169814100D01*
X262664804Y-169814100D01*
X262664805Y-169814100D01*
X262870387Y-169773207D01*
X263064040Y-169692993D01*
X263238324Y-169576541D01*
X263386541Y-169428324D01*
X263502993Y-169254040D01*
X263583207Y-169060387D01*
X263624100Y-168854805D01*
X263624100Y-168645195D01*
X263624099Y-168645192D01*
X264035900Y-168645192D01*
X264035900Y-168854807D01*
X264076792Y-169060385D01*
X264157006Y-169254039D01*
X264157007Y-169254040D01*
X264273459Y-169428324D01*
X264421676Y-169576541D01*
X264595960Y-169692993D01*
X264789613Y-169773207D01*
X264995195Y-169814100D01*
X264995196Y-169814100D01*
X265204804Y-169814100D01*
X265204805Y-169814100D01*
X265410387Y-169773207D01*
X265604040Y-169692993D01*
X265778324Y-169576541D01*
X265926541Y-169428324D01*
X266042993Y-169254040D01*
X266123207Y-169060387D01*
X266164100Y-168854805D01*
X266164100Y-168645195D01*
X266123207Y-168439613D01*
X266042993Y-168245960D01*
X265926541Y-168071676D01*
X265778324Y-167923459D01*
X265604040Y-167807007D01*
X265604041Y-167807007D01*
X265604039Y-167807006D01*
X265410385Y-167726792D01*
X265204807Y-167685900D01*
X265204805Y-167685900D01*
X264995195Y-167685900D01*
X264995192Y-167685900D01*
X264789614Y-167726792D01*
X264595960Y-167807006D01*
X264421679Y-167923456D01*
X264273456Y-168071679D01*
X264157006Y-168245960D01*
X264076792Y-168439614D01*
X264035900Y-168645192D01*
X263624099Y-168645192D01*
X263583207Y-168439613D01*
X263502993Y-168245960D01*
X263386541Y-168071676D01*
X263238324Y-167923459D01*
X263064040Y-167807007D01*
X263064041Y-167807007D01*
X263064039Y-167807006D01*
X262870385Y-167726792D01*
X262664807Y-167685900D01*
X262664805Y-167685900D01*
X262455195Y-167685900D01*
X262455192Y-167685900D01*
X262249614Y-167726792D01*
X262055960Y-167807006D01*
X261881679Y-167923456D01*
X261733456Y-168071679D01*
X261617006Y-168245960D01*
X261536792Y-168439614D01*
X261495900Y-168645192D01*
X261084099Y-168645192D01*
X261043207Y-168439613D01*
X260962993Y-168245960D01*
X260846541Y-168071676D01*
X260698324Y-167923459D01*
X260524040Y-167807007D01*
X260524041Y-167807007D01*
X260524039Y-167807006D01*
X260330385Y-167726792D01*
X260124807Y-167685900D01*
X260124805Y-167685900D01*
X259915195Y-167685900D01*
X259915192Y-167685900D01*
X259709614Y-167726792D01*
X259515960Y-167807006D01*
X259341679Y-167923456D01*
X259193456Y-168071679D01*
X259077006Y-168245960D01*
X258996792Y-168439614D01*
X258955900Y-168645192D01*
X191164099Y-168645192D01*
X191123207Y-168439613D01*
X191042993Y-168245960D01*
X190926541Y-168071676D01*
X190778324Y-167923459D01*
X190604040Y-167807007D01*
X190604041Y-167807007D01*
X190604039Y-167807006D01*
X190410385Y-167726792D01*
X190204807Y-167685900D01*
X190204805Y-167685900D01*
X189995195Y-167685900D01*
X189995192Y-167685900D01*
X189789614Y-167726792D01*
X189595960Y-167807006D01*
X189421679Y-167923456D01*
X189273456Y-168071679D01*
X189157006Y-168245960D01*
X189076792Y-168439614D01*
X189035900Y-168645192D01*
X188624099Y-168645192D01*
X188583207Y-168439613D01*
X188502993Y-168245960D01*
X188386541Y-168071676D01*
X188238324Y-167923459D01*
X188064040Y-167807007D01*
X188064041Y-167807007D01*
X188064039Y-167807006D01*
X187870385Y-167726792D01*
X187664807Y-167685900D01*
X187664805Y-167685900D01*
X187455195Y-167685900D01*
X187455192Y-167685900D01*
X187249614Y-167726792D01*
X187055960Y-167807006D01*
X186881679Y-167923456D01*
X186733456Y-168071679D01*
X186617006Y-168245960D01*
X186536792Y-168439614D01*
X186495900Y-168645192D01*
X186084099Y-168645192D01*
X186043207Y-168439613D01*
X185962993Y-168245960D01*
X185846541Y-168071676D01*
X185698324Y-167923459D01*
X185524040Y-167807007D01*
X185524041Y-167807007D01*
X185524039Y-167807006D01*
X185330385Y-167726792D01*
X185124807Y-167685900D01*
X185124805Y-167685900D01*
X184915195Y-167685900D01*
X184915192Y-167685900D01*
X184709614Y-167726792D01*
X184515960Y-167807006D01*
X184341679Y-167923456D01*
X184193456Y-168071679D01*
X184077006Y-168245960D01*
X183996792Y-168439614D01*
X183955900Y-168645192D01*
X116164099Y-168645192D01*
X116123207Y-168439613D01*
X116042993Y-168245960D01*
X115926541Y-168071676D01*
X115778324Y-167923459D01*
X115604040Y-167807007D01*
X115604041Y-167807007D01*
X115604039Y-167807006D01*
X115410385Y-167726792D01*
X115204807Y-167685900D01*
X115204805Y-167685900D01*
X114995195Y-167685900D01*
X114995192Y-167685900D01*
X114789614Y-167726792D01*
X114595960Y-167807006D01*
X114421679Y-167923456D01*
X114273456Y-168071679D01*
X114157006Y-168245960D01*
X114076792Y-168439614D01*
X114035900Y-168645192D01*
X113624099Y-168645192D01*
X113583207Y-168439613D01*
X113502993Y-168245960D01*
X113386541Y-168071676D01*
X113238324Y-167923459D01*
X113064040Y-167807007D01*
X113064041Y-167807007D01*
X113064039Y-167807006D01*
X112870385Y-167726792D01*
X112664807Y-167685900D01*
X112664805Y-167685900D01*
X112455195Y-167685900D01*
X112455192Y-167685900D01*
X112249614Y-167726792D01*
X112055960Y-167807006D01*
X111881679Y-167923456D01*
X111733456Y-168071679D01*
X111617006Y-168245960D01*
X111536792Y-168439614D01*
X111495900Y-168645192D01*
X111084099Y-168645192D01*
X111043207Y-168439613D01*
X110962993Y-168245960D01*
X110846541Y-168071676D01*
X110698324Y-167923459D01*
X110524040Y-167807007D01*
X110524041Y-167807007D01*
X110524039Y-167807006D01*
X110330385Y-167726792D01*
X110124807Y-167685900D01*
X110124805Y-167685900D01*
X109915195Y-167685900D01*
X109915192Y-167685900D01*
X109709614Y-167726792D01*
X109515960Y-167807006D01*
X109341679Y-167923456D01*
X109193456Y-168071679D01*
X109077006Y-168245960D01*
X108996792Y-168439614D01*
X108955900Y-168645192D01*
X41164099Y-168645192D01*
X41123207Y-168439613D01*
X41042993Y-168245960D01*
X40926541Y-168071676D01*
X40778324Y-167923459D01*
X40604040Y-167807007D01*
X40604041Y-167807007D01*
X40604039Y-167807006D01*
X40410385Y-167726792D01*
X40204807Y-167685900D01*
X40204805Y-167685900D01*
X39995195Y-167685900D01*
X39995192Y-167685900D01*
X39789614Y-167726792D01*
X39595960Y-167807006D01*
X39421679Y-167923456D01*
X39273456Y-168071679D01*
X39157006Y-168245960D01*
X39076792Y-168439614D01*
X39035900Y-168645192D01*
X38624099Y-168645192D01*
X38583207Y-168439613D01*
X38502993Y-168245960D01*
X38386541Y-168071676D01*
X38238324Y-167923459D01*
X38064040Y-167807007D01*
X38064041Y-167807007D01*
X38064039Y-167807006D01*
X37870385Y-167726792D01*
X37664807Y-167685900D01*
X37664805Y-167685900D01*
X37455195Y-167685900D01*
X37455192Y-167685900D01*
X37249614Y-167726792D01*
X37055960Y-167807006D01*
X36881679Y-167923456D01*
X36733456Y-168071679D01*
X36617006Y-168245960D01*
X36536792Y-168439614D01*
X36495900Y-168645192D01*
X36084099Y-168645192D01*
X36043207Y-168439613D01*
X35962993Y-168245960D01*
X35846541Y-168071676D01*
X35698324Y-167923459D01*
X35524040Y-167807007D01*
X35524041Y-167807007D01*
X35524039Y-167807006D01*
X35330385Y-167726792D01*
X35124807Y-167685900D01*
X35124805Y-167685900D01*
X34915195Y-167685900D01*
X34915192Y-167685900D01*
X34709614Y-167726792D01*
X34515960Y-167807006D01*
X34341679Y-167923456D01*
X34193456Y-168071679D01*
X34077006Y-168245960D01*
X33996792Y-168439614D01*
X33955900Y-168645192D01*
X250500Y-168645192D01*
X250500Y-71690001D01*
X33956400Y-71690001D01*
X33956400Y-72173300D01*
X33968003Y-72231636D01*
X34012206Y-72297789D01*
X34012210Y-72297793D01*
X34078363Y-72341996D01*
X34136699Y-72353599D01*
X34136703Y-72353600D01*
X34619999Y-72353600D01*
X34620000Y-72353599D01*
X34620000Y-71690001D01*
X34619999Y-71690000D01*
X33956401Y-71690000D01*
X33956400Y-71690001D01*
X250500Y-71690001D01*
X250500Y-71223120D01*
X34512000Y-71223120D01*
X34512000Y-71356880D01*
X34546619Y-71486081D01*
X34613498Y-71601920D01*
X34708080Y-71696502D01*
X34823919Y-71763381D01*
X34953120Y-71798000D01*
X35086880Y-71798000D01*
X35216081Y-71763381D01*
X35331920Y-71696502D01*
X35338421Y-71690001D01*
X35420000Y-71690001D01*
X35420000Y-72353599D01*
X35420001Y-72353600D01*
X35903297Y-72353600D01*
X35903300Y-72353599D01*
X35961636Y-72341996D01*
X36027789Y-72297793D01*
X36027793Y-72297789D01*
X36071996Y-72231636D01*
X36083599Y-72173300D01*
X36083600Y-72173297D01*
X36083600Y-71690001D01*
X36083599Y-71690000D01*
X35420001Y-71690000D01*
X35420000Y-71690001D01*
X35338421Y-71690001D01*
X35426502Y-71601920D01*
X35493381Y-71486081D01*
X35528000Y-71356880D01*
X35528000Y-71223120D01*
X35517837Y-71185192D01*
X36495900Y-71185192D01*
X36495900Y-71394807D01*
X36536792Y-71600385D01*
X36617006Y-71794039D01*
X36694563Y-71910112D01*
X36733459Y-71968324D01*
X36881676Y-72116541D01*
X37055960Y-72232993D01*
X37249613Y-72313207D01*
X37455195Y-72354100D01*
X37455196Y-72354100D01*
X37664804Y-72354100D01*
X37664805Y-72354100D01*
X37870387Y-72313207D01*
X38064040Y-72232993D01*
X38238324Y-72116541D01*
X38386541Y-71968324D01*
X38502993Y-71794040D01*
X38583207Y-71600387D01*
X38624100Y-71394805D01*
X38624100Y-71185195D01*
X38624099Y-71185192D01*
X39035900Y-71185192D01*
X39035900Y-71394807D01*
X39076792Y-71600385D01*
X39157006Y-71794039D01*
X39234563Y-71910112D01*
X39273459Y-71968324D01*
X39421676Y-72116541D01*
X39595960Y-72232993D01*
X39789613Y-72313207D01*
X39995195Y-72354100D01*
X39995196Y-72354100D01*
X40204804Y-72354100D01*
X40204805Y-72354100D01*
X40410387Y-72313207D01*
X40604040Y-72232993D01*
X40778324Y-72116541D01*
X40926541Y-71968324D01*
X41042993Y-71794040D01*
X41086088Y-71690001D01*
X108956400Y-71690001D01*
X108956400Y-72173300D01*
X108968003Y-72231636D01*
X109012206Y-72297789D01*
X109012210Y-72297793D01*
X109078363Y-72341996D01*
X109136699Y-72353599D01*
X109136703Y-72353600D01*
X109619999Y-72353600D01*
X109620000Y-72353599D01*
X109620000Y-71690001D01*
X109619999Y-71690000D01*
X108956401Y-71690000D01*
X108956400Y-71690001D01*
X41086088Y-71690001D01*
X41123207Y-71600387D01*
X41164100Y-71394805D01*
X41164100Y-71223120D01*
X109512000Y-71223120D01*
X109512000Y-71356880D01*
X109546619Y-71486081D01*
X109613498Y-71601920D01*
X109708080Y-71696502D01*
X109823919Y-71763381D01*
X109953120Y-71798000D01*
X110086880Y-71798000D01*
X110216081Y-71763381D01*
X110331920Y-71696502D01*
X110338421Y-71690001D01*
X110420000Y-71690001D01*
X110420000Y-72353599D01*
X110420001Y-72353600D01*
X110903297Y-72353600D01*
X110903300Y-72353599D01*
X110961636Y-72341996D01*
X111027789Y-72297793D01*
X111027793Y-72297789D01*
X111071996Y-72231636D01*
X111083599Y-72173300D01*
X111083600Y-72173297D01*
X111083600Y-71690001D01*
X111083599Y-71690000D01*
X110420001Y-71690000D01*
X110420000Y-71690001D01*
X110338421Y-71690001D01*
X110426502Y-71601920D01*
X110493381Y-71486081D01*
X110528000Y-71356880D01*
X110528000Y-71223120D01*
X110517837Y-71185192D01*
X111495900Y-71185192D01*
X111495900Y-71394807D01*
X111536792Y-71600385D01*
X111617006Y-71794039D01*
X111694563Y-71910112D01*
X111733459Y-71968324D01*
X111881676Y-72116541D01*
X112055960Y-72232993D01*
X112249613Y-72313207D01*
X112455195Y-72354100D01*
X112455196Y-72354100D01*
X112664804Y-72354100D01*
X112664805Y-72354100D01*
X112870387Y-72313207D01*
X113064040Y-72232993D01*
X113238324Y-72116541D01*
X113386541Y-71968324D01*
X113502993Y-71794040D01*
X113583207Y-71600387D01*
X113624100Y-71394805D01*
X113624100Y-71185195D01*
X113624099Y-71185192D01*
X114035900Y-71185192D01*
X114035900Y-71394807D01*
X114076792Y-71600385D01*
X114157006Y-71794039D01*
X114234563Y-71910112D01*
X114273459Y-71968324D01*
X114421676Y-72116541D01*
X114595960Y-72232993D01*
X114789613Y-72313207D01*
X114995195Y-72354100D01*
X114995196Y-72354100D01*
X115204804Y-72354100D01*
X115204805Y-72354100D01*
X115410387Y-72313207D01*
X115604040Y-72232993D01*
X115778324Y-72116541D01*
X115926541Y-71968324D01*
X116042993Y-71794040D01*
X116086088Y-71690001D01*
X183956400Y-71690001D01*
X183956400Y-72173300D01*
X183968003Y-72231636D01*
X184012206Y-72297789D01*
X184012210Y-72297793D01*
X184078363Y-72341996D01*
X184136699Y-72353599D01*
X184136703Y-72353600D01*
X184619999Y-72353600D01*
X184620000Y-72353599D01*
X184620000Y-71690001D01*
X184619999Y-71690000D01*
X183956401Y-71690000D01*
X183956400Y-71690001D01*
X116086088Y-71690001D01*
X116123207Y-71600387D01*
X116164100Y-71394805D01*
X116164100Y-71223120D01*
X184512000Y-71223120D01*
X184512000Y-71356880D01*
X184546619Y-71486081D01*
X184613498Y-71601920D01*
X184708080Y-71696502D01*
X184823919Y-71763381D01*
X184953120Y-71798000D01*
X185086880Y-71798000D01*
X185216081Y-71763381D01*
X185331920Y-71696502D01*
X185338421Y-71690001D01*
X185420000Y-71690001D01*
X185420000Y-72353599D01*
X185420001Y-72353600D01*
X185903297Y-72353600D01*
X185903300Y-72353599D01*
X185961636Y-72341996D01*
X186027789Y-72297793D01*
X186027793Y-72297789D01*
X186071996Y-72231636D01*
X186083599Y-72173300D01*
X186083600Y-72173297D01*
X186083600Y-71690001D01*
X186083599Y-71690000D01*
X185420001Y-71690000D01*
X185420000Y-71690001D01*
X185338421Y-71690001D01*
X185426502Y-71601920D01*
X185493381Y-71486081D01*
X185528000Y-71356880D01*
X185528000Y-71223120D01*
X185517837Y-71185192D01*
X186495900Y-71185192D01*
X186495900Y-71394807D01*
X186536792Y-71600385D01*
X186617006Y-71794039D01*
X186694563Y-71910112D01*
X186733459Y-71968324D01*
X186881676Y-72116541D01*
X187055960Y-72232993D01*
X187249613Y-72313207D01*
X187455195Y-72354100D01*
X187455196Y-72354100D01*
X187664804Y-72354100D01*
X187664805Y-72354100D01*
X187870387Y-72313207D01*
X188064040Y-72232993D01*
X188238324Y-72116541D01*
X188386541Y-71968324D01*
X188502993Y-71794040D01*
X188583207Y-71600387D01*
X188624100Y-71394805D01*
X188624100Y-71185195D01*
X188624099Y-71185192D01*
X189035900Y-71185192D01*
X189035900Y-71394807D01*
X189076792Y-71600385D01*
X189157006Y-71794039D01*
X189234563Y-71910112D01*
X189273459Y-71968324D01*
X189421676Y-72116541D01*
X189595960Y-72232993D01*
X189789613Y-72313207D01*
X189995195Y-72354100D01*
X189995196Y-72354100D01*
X190204804Y-72354100D01*
X190204805Y-72354100D01*
X190410387Y-72313207D01*
X190604040Y-72232993D01*
X190778324Y-72116541D01*
X190926541Y-71968324D01*
X191042993Y-71794040D01*
X191123207Y-71600387D01*
X191157733Y-71426816D01*
X258514252Y-71426816D01*
X258514252Y-71910115D01*
X258525855Y-71968451D01*
X258570058Y-72034604D01*
X258570062Y-72034608D01*
X258636215Y-72078811D01*
X258694551Y-72090414D01*
X258694555Y-72090415D01*
X259177851Y-72090415D01*
X259177852Y-72090414D01*
X259177852Y-71426816D01*
X259177851Y-71426815D01*
X258514253Y-71426815D01*
X258514252Y-71426816D01*
X191157733Y-71426816D01*
X191164100Y-71394805D01*
X191164100Y-71185195D01*
X191123207Y-70979613D01*
X191115056Y-70959935D01*
X259069852Y-70959935D01*
X259069852Y-71093695D01*
X259104471Y-71222896D01*
X259171350Y-71338735D01*
X259265932Y-71433317D01*
X259381771Y-71500196D01*
X259510972Y-71534815D01*
X259644732Y-71534815D01*
X259773933Y-71500196D01*
X259889772Y-71433317D01*
X259896273Y-71426816D01*
X259977852Y-71426816D01*
X259977852Y-72090414D01*
X259977853Y-72090415D01*
X260461149Y-72090415D01*
X260461152Y-72090414D01*
X260519488Y-72078811D01*
X260585641Y-72034608D01*
X260585645Y-72034604D01*
X260629848Y-71968451D01*
X260641451Y-71910115D01*
X260641452Y-71910112D01*
X260641452Y-71426816D01*
X260641451Y-71426815D01*
X259977853Y-71426815D01*
X259977852Y-71426816D01*
X259896273Y-71426816D01*
X259984354Y-71338735D01*
X260051233Y-71222896D01*
X260085852Y-71093695D01*
X260085852Y-70959935D01*
X260075689Y-70922007D01*
X261053752Y-70922007D01*
X261053752Y-71131622D01*
X261094644Y-71337200D01*
X261174858Y-71530854D01*
X261281196Y-71690001D01*
X261291311Y-71705139D01*
X261439528Y-71853356D01*
X261613812Y-71969808D01*
X261807465Y-72050022D01*
X262013047Y-72090915D01*
X262013048Y-72090915D01*
X262222656Y-72090915D01*
X262222657Y-72090915D01*
X262428239Y-72050022D01*
X262621892Y-71969808D01*
X262796176Y-71853356D01*
X262944393Y-71705139D01*
X263060845Y-71530855D01*
X263141059Y-71337202D01*
X263181952Y-71131620D01*
X263181952Y-70922010D01*
X263181951Y-70922007D01*
X263593752Y-70922007D01*
X263593752Y-71131622D01*
X263634644Y-71337200D01*
X263714858Y-71530854D01*
X263821196Y-71690001D01*
X263831311Y-71705139D01*
X263979528Y-71853356D01*
X264153812Y-71969808D01*
X264347465Y-72050022D01*
X264553047Y-72090915D01*
X264553048Y-72090915D01*
X264762656Y-72090915D01*
X264762657Y-72090915D01*
X264968239Y-72050022D01*
X265161892Y-71969808D01*
X265336176Y-71853356D01*
X265484393Y-71705139D01*
X265600845Y-71530855D01*
X265681059Y-71337202D01*
X265721952Y-71131620D01*
X265721952Y-70922010D01*
X265681059Y-70716428D01*
X265600845Y-70522775D01*
X265484393Y-70348491D01*
X265336176Y-70200274D01*
X265251233Y-70143517D01*
X265161891Y-70083821D01*
X264968237Y-70003607D01*
X264762659Y-69962715D01*
X264762657Y-69962715D01*
X264553047Y-69962715D01*
X264553044Y-69962715D01*
X264347466Y-70003607D01*
X264153812Y-70083821D01*
X263979531Y-70200271D01*
X263831308Y-70348494D01*
X263714858Y-70522775D01*
X263634644Y-70716429D01*
X263593752Y-70922007D01*
X263181951Y-70922007D01*
X263141059Y-70716428D01*
X263060845Y-70522775D01*
X262944393Y-70348491D01*
X262796176Y-70200274D01*
X262711233Y-70143517D01*
X262621891Y-70083821D01*
X262428237Y-70003607D01*
X262222659Y-69962715D01*
X262222657Y-69962715D01*
X262013047Y-69962715D01*
X262013044Y-69962715D01*
X261807466Y-70003607D01*
X261613812Y-70083821D01*
X261439531Y-70200271D01*
X261291308Y-70348494D01*
X261174858Y-70522775D01*
X261094644Y-70716429D01*
X261053752Y-70922007D01*
X260075689Y-70922007D01*
X260051233Y-70830734D01*
X259984354Y-70714895D01*
X259889772Y-70620313D01*
X259773933Y-70553434D01*
X259644732Y-70518815D01*
X259510972Y-70518815D01*
X259381771Y-70553434D01*
X259265932Y-70620313D01*
X259171350Y-70714895D01*
X259104471Y-70830734D01*
X259069852Y-70959935D01*
X191115056Y-70959935D01*
X191099347Y-70922011D01*
X191042993Y-70785960D01*
X190926543Y-70611679D01*
X190926541Y-70611676D01*
X190778324Y-70463459D01*
X190693381Y-70406702D01*
X190604039Y-70347006D01*
X190410385Y-70266792D01*
X190254335Y-70235752D01*
X190204807Y-70225900D01*
X190204805Y-70225900D01*
X189995195Y-70225900D01*
X189995192Y-70225900D01*
X189789614Y-70266792D01*
X189595960Y-70347006D01*
X189421679Y-70463456D01*
X189273456Y-70611679D01*
X189157006Y-70785960D01*
X189076792Y-70979614D01*
X189035900Y-71185192D01*
X188624099Y-71185192D01*
X188583207Y-70979613D01*
X188502993Y-70785960D01*
X188386541Y-70611676D01*
X188238324Y-70463459D01*
X188153381Y-70406702D01*
X188064039Y-70347006D01*
X187870385Y-70266792D01*
X187664807Y-70225900D01*
X187664805Y-70225900D01*
X187455195Y-70225900D01*
X187455192Y-70225900D01*
X187249614Y-70266792D01*
X187055960Y-70347006D01*
X186881679Y-70463456D01*
X186733456Y-70611679D01*
X186617006Y-70785960D01*
X186536792Y-70979614D01*
X186495900Y-71185192D01*
X185517837Y-71185192D01*
X185493381Y-71093919D01*
X185426502Y-70978080D01*
X185331920Y-70883498D01*
X185216081Y-70816619D01*
X185086880Y-70782000D01*
X184953120Y-70782000D01*
X184823919Y-70816619D01*
X184708080Y-70883498D01*
X184613498Y-70978080D01*
X184546619Y-71093919D01*
X184512000Y-71223120D01*
X116164100Y-71223120D01*
X116164100Y-71185195D01*
X116123207Y-70979613D01*
X116042993Y-70785960D01*
X115926541Y-70611676D01*
X115778324Y-70463459D01*
X115693381Y-70406702D01*
X115693377Y-70406699D01*
X183956400Y-70406699D01*
X183956400Y-70889999D01*
X183956401Y-70890000D01*
X184619999Y-70890000D01*
X184620000Y-70889999D01*
X184620000Y-70226401D01*
X185420000Y-70226401D01*
X185420000Y-70889999D01*
X185420001Y-70890000D01*
X186083599Y-70890000D01*
X186083600Y-70889999D01*
X186083600Y-70406702D01*
X186083599Y-70406699D01*
X186071996Y-70348363D01*
X186027793Y-70282210D01*
X186027789Y-70282206D01*
X185961636Y-70238003D01*
X185903300Y-70226400D01*
X185420001Y-70226400D01*
X185420000Y-70226401D01*
X184620000Y-70226401D01*
X184619999Y-70226400D01*
X184136699Y-70226400D01*
X184078363Y-70238003D01*
X184012210Y-70282206D01*
X184012206Y-70282210D01*
X183968003Y-70348363D01*
X183956400Y-70406699D01*
X115693377Y-70406699D01*
X115604039Y-70347006D01*
X115410385Y-70266792D01*
X115204807Y-70225900D01*
X115204805Y-70225900D01*
X114995195Y-70225900D01*
X114995192Y-70225900D01*
X114789614Y-70266792D01*
X114595960Y-70347006D01*
X114421679Y-70463456D01*
X114273456Y-70611679D01*
X114157006Y-70785960D01*
X114076792Y-70979614D01*
X114035900Y-71185192D01*
X113624099Y-71185192D01*
X113583207Y-70979613D01*
X113502993Y-70785960D01*
X113386541Y-70611676D01*
X113238324Y-70463459D01*
X113153381Y-70406702D01*
X113064039Y-70347006D01*
X112870385Y-70266792D01*
X112664807Y-70225900D01*
X112664805Y-70225900D01*
X112455195Y-70225900D01*
X112455192Y-70225900D01*
X112249614Y-70266792D01*
X112055960Y-70347006D01*
X111881679Y-70463456D01*
X111733456Y-70611679D01*
X111617006Y-70785960D01*
X111536792Y-70979614D01*
X111495900Y-71185192D01*
X110517837Y-71185192D01*
X110493381Y-71093919D01*
X110426502Y-70978080D01*
X110331920Y-70883498D01*
X110216081Y-70816619D01*
X110086880Y-70782000D01*
X109953120Y-70782000D01*
X109823919Y-70816619D01*
X109708080Y-70883498D01*
X109613498Y-70978080D01*
X109546619Y-71093919D01*
X109512000Y-71223120D01*
X41164100Y-71223120D01*
X41164100Y-71185195D01*
X41123207Y-70979613D01*
X41042993Y-70785960D01*
X40926541Y-70611676D01*
X40778324Y-70463459D01*
X40693381Y-70406702D01*
X40693377Y-70406699D01*
X108956400Y-70406699D01*
X108956400Y-70889999D01*
X108956401Y-70890000D01*
X109619999Y-70890000D01*
X109620000Y-70889999D01*
X109620000Y-70226401D01*
X110420000Y-70226401D01*
X110420000Y-70889999D01*
X110420001Y-70890000D01*
X111083599Y-70890000D01*
X111083600Y-70889999D01*
X111083600Y-70406702D01*
X111083599Y-70406699D01*
X111071996Y-70348363D01*
X111027793Y-70282210D01*
X111027789Y-70282206D01*
X110961636Y-70238003D01*
X110903300Y-70226400D01*
X110420001Y-70226400D01*
X110420000Y-70226401D01*
X109620000Y-70226401D01*
X109619999Y-70226400D01*
X109136699Y-70226400D01*
X109078363Y-70238003D01*
X109012210Y-70282206D01*
X109012206Y-70282210D01*
X108968003Y-70348363D01*
X108956400Y-70406699D01*
X40693377Y-70406699D01*
X40604039Y-70347006D01*
X40410385Y-70266792D01*
X40204807Y-70225900D01*
X40204805Y-70225900D01*
X39995195Y-70225900D01*
X39995192Y-70225900D01*
X39789614Y-70266792D01*
X39595960Y-70347006D01*
X39421679Y-70463456D01*
X39273456Y-70611679D01*
X39157006Y-70785960D01*
X39076792Y-70979614D01*
X39035900Y-71185192D01*
X38624099Y-71185192D01*
X38583207Y-70979613D01*
X38502993Y-70785960D01*
X38386541Y-70611676D01*
X38238324Y-70463459D01*
X38153381Y-70406702D01*
X38064039Y-70347006D01*
X37870385Y-70266792D01*
X37664807Y-70225900D01*
X37664805Y-70225900D01*
X37455195Y-70225900D01*
X37455192Y-70225900D01*
X37249614Y-70266792D01*
X37055960Y-70347006D01*
X36881679Y-70463456D01*
X36733456Y-70611679D01*
X36617006Y-70785960D01*
X36536792Y-70979614D01*
X36495900Y-71185192D01*
X35517837Y-71185192D01*
X35493381Y-71093919D01*
X35426502Y-70978080D01*
X35331920Y-70883498D01*
X35216081Y-70816619D01*
X35086880Y-70782000D01*
X34953120Y-70782000D01*
X34823919Y-70816619D01*
X34708080Y-70883498D01*
X34613498Y-70978080D01*
X34546619Y-71093919D01*
X34512000Y-71223120D01*
X250500Y-71223120D01*
X250500Y-70406699D01*
X33956400Y-70406699D01*
X33956400Y-70889999D01*
X33956401Y-70890000D01*
X34619999Y-70890000D01*
X34620000Y-70889999D01*
X34620000Y-70226401D01*
X35420000Y-70226401D01*
X35420000Y-70889999D01*
X35420001Y-70890000D01*
X36083599Y-70890000D01*
X36083600Y-70889999D01*
X36083600Y-70406702D01*
X36083599Y-70406699D01*
X36071996Y-70348363D01*
X36027793Y-70282210D01*
X36027789Y-70282206D01*
X35961636Y-70238003D01*
X35903300Y-70226400D01*
X35420001Y-70226400D01*
X35420000Y-70226401D01*
X34620000Y-70226401D01*
X34619999Y-70226400D01*
X34136699Y-70226400D01*
X34078363Y-70238003D01*
X34012210Y-70282206D01*
X34012206Y-70282210D01*
X33968003Y-70348363D01*
X33956400Y-70406699D01*
X250500Y-70406699D01*
X250500Y-70143514D01*
X258514252Y-70143514D01*
X258514252Y-70626814D01*
X258514253Y-70626815D01*
X259177851Y-70626815D01*
X259177852Y-70626814D01*
X259177852Y-69963216D01*
X259977852Y-69963216D01*
X259977852Y-70626814D01*
X259977853Y-70626815D01*
X260641451Y-70626815D01*
X260641452Y-70626814D01*
X260641452Y-70143517D01*
X260641451Y-70143514D01*
X260629848Y-70085178D01*
X260585645Y-70019025D01*
X260585641Y-70019021D01*
X260519488Y-69974818D01*
X260461152Y-69963215D01*
X259977853Y-69963215D01*
X259977852Y-69963216D01*
X259177852Y-69963216D01*
X259177851Y-69963215D01*
X258694551Y-69963215D01*
X258636215Y-69974818D01*
X258570062Y-70019021D01*
X258570058Y-70019025D01*
X258525855Y-70085178D01*
X258514252Y-70143514D01*
X250500Y-70143514D01*
X250500Y-68645192D01*
X33955900Y-68645192D01*
X33955900Y-68854807D01*
X33996792Y-69060385D01*
X34077006Y-69254039D01*
X34193456Y-69428320D01*
X34193459Y-69428324D01*
X34341676Y-69576541D01*
X34515960Y-69692993D01*
X34709613Y-69773207D01*
X34915195Y-69814100D01*
X34915196Y-69814100D01*
X35124804Y-69814100D01*
X35124805Y-69814100D01*
X35330387Y-69773207D01*
X35524040Y-69692993D01*
X35698324Y-69576541D01*
X35846541Y-69428324D01*
X35962993Y-69254040D01*
X36043207Y-69060387D01*
X36084100Y-68854805D01*
X36084100Y-68645195D01*
X36084099Y-68645192D01*
X36495900Y-68645192D01*
X36495900Y-68854807D01*
X36536792Y-69060385D01*
X36617006Y-69254039D01*
X36733456Y-69428320D01*
X36733459Y-69428324D01*
X36881676Y-69576541D01*
X37055960Y-69692993D01*
X37249613Y-69773207D01*
X37455195Y-69814100D01*
X37455196Y-69814100D01*
X37664804Y-69814100D01*
X37664805Y-69814100D01*
X37870387Y-69773207D01*
X38064040Y-69692993D01*
X38238324Y-69576541D01*
X38386541Y-69428324D01*
X38502993Y-69254040D01*
X38583207Y-69060387D01*
X38624100Y-68854805D01*
X38624100Y-68645195D01*
X38624099Y-68645192D01*
X39035900Y-68645192D01*
X39035900Y-68854807D01*
X39076792Y-69060385D01*
X39157006Y-69254039D01*
X39273456Y-69428320D01*
X39273459Y-69428324D01*
X39421676Y-69576541D01*
X39595960Y-69692993D01*
X39789613Y-69773207D01*
X39995195Y-69814100D01*
X39995196Y-69814100D01*
X40204804Y-69814100D01*
X40204805Y-69814100D01*
X40410387Y-69773207D01*
X40604040Y-69692993D01*
X40778324Y-69576541D01*
X40926541Y-69428324D01*
X41042993Y-69254040D01*
X41123207Y-69060387D01*
X41164100Y-68854805D01*
X41164100Y-68645195D01*
X41164099Y-68645192D01*
X108955900Y-68645192D01*
X108955900Y-68854807D01*
X108996792Y-69060385D01*
X109077006Y-69254039D01*
X109193456Y-69428320D01*
X109193459Y-69428324D01*
X109341676Y-69576541D01*
X109515960Y-69692993D01*
X109709613Y-69773207D01*
X109915195Y-69814100D01*
X109915196Y-69814100D01*
X110124804Y-69814100D01*
X110124805Y-69814100D01*
X110330387Y-69773207D01*
X110524040Y-69692993D01*
X110698324Y-69576541D01*
X110846541Y-69428324D01*
X110962993Y-69254040D01*
X111043207Y-69060387D01*
X111084100Y-68854805D01*
X111084100Y-68645195D01*
X111084099Y-68645192D01*
X111495900Y-68645192D01*
X111495900Y-68854807D01*
X111536792Y-69060385D01*
X111617006Y-69254039D01*
X111733456Y-69428320D01*
X111733459Y-69428324D01*
X111881676Y-69576541D01*
X112055960Y-69692993D01*
X112249613Y-69773207D01*
X112455195Y-69814100D01*
X112455196Y-69814100D01*
X112664804Y-69814100D01*
X112664805Y-69814100D01*
X112870387Y-69773207D01*
X113064040Y-69692993D01*
X113238324Y-69576541D01*
X113386541Y-69428324D01*
X113502993Y-69254040D01*
X113583207Y-69060387D01*
X113624100Y-68854805D01*
X113624100Y-68645195D01*
X113624099Y-68645192D01*
X114035900Y-68645192D01*
X114035900Y-68854807D01*
X114076792Y-69060385D01*
X114157006Y-69254039D01*
X114273456Y-69428320D01*
X114273459Y-69428324D01*
X114421676Y-69576541D01*
X114595960Y-69692993D01*
X114789613Y-69773207D01*
X114995195Y-69814100D01*
X114995196Y-69814100D01*
X115204804Y-69814100D01*
X115204805Y-69814100D01*
X115410387Y-69773207D01*
X115604040Y-69692993D01*
X115778324Y-69576541D01*
X115926541Y-69428324D01*
X116042993Y-69254040D01*
X116123207Y-69060387D01*
X116164100Y-68854805D01*
X116164100Y-68645195D01*
X116164099Y-68645192D01*
X183955900Y-68645192D01*
X183955900Y-68854807D01*
X183996792Y-69060385D01*
X184077006Y-69254039D01*
X184193456Y-69428320D01*
X184193459Y-69428324D01*
X184341676Y-69576541D01*
X184515960Y-69692993D01*
X184709613Y-69773207D01*
X184915195Y-69814100D01*
X184915196Y-69814100D01*
X185124804Y-69814100D01*
X185124805Y-69814100D01*
X185330387Y-69773207D01*
X185524040Y-69692993D01*
X185698324Y-69576541D01*
X185846541Y-69428324D01*
X185962993Y-69254040D01*
X186043207Y-69060387D01*
X186084100Y-68854805D01*
X186084100Y-68645195D01*
X186084099Y-68645192D01*
X186495900Y-68645192D01*
X186495900Y-68854807D01*
X186536792Y-69060385D01*
X186617006Y-69254039D01*
X186733456Y-69428320D01*
X186733459Y-69428324D01*
X186881676Y-69576541D01*
X187055960Y-69692993D01*
X187249613Y-69773207D01*
X187455195Y-69814100D01*
X187455196Y-69814100D01*
X187664804Y-69814100D01*
X187664805Y-69814100D01*
X187870387Y-69773207D01*
X188064040Y-69692993D01*
X188238324Y-69576541D01*
X188386541Y-69428324D01*
X188502993Y-69254040D01*
X188583207Y-69060387D01*
X188624100Y-68854805D01*
X188624100Y-68645195D01*
X188624099Y-68645192D01*
X189035900Y-68645192D01*
X189035900Y-68854807D01*
X189076792Y-69060385D01*
X189157006Y-69254039D01*
X189273456Y-69428320D01*
X189273459Y-69428324D01*
X189421676Y-69576541D01*
X189595960Y-69692993D01*
X189789613Y-69773207D01*
X189995195Y-69814100D01*
X189995196Y-69814100D01*
X190204804Y-69814100D01*
X190204805Y-69814100D01*
X190410387Y-69773207D01*
X190604040Y-69692993D01*
X190778324Y-69576541D01*
X190926541Y-69428324D01*
X191042993Y-69254040D01*
X191123207Y-69060387D01*
X191164100Y-68854805D01*
X191164100Y-68645195D01*
X191123207Y-68439613D01*
X191099347Y-68382011D01*
X191099345Y-68382007D01*
X258513752Y-68382007D01*
X258513752Y-68591622D01*
X258554644Y-68797200D01*
X258634858Y-68990854D01*
X258634859Y-68990855D01*
X258751311Y-69165139D01*
X258899528Y-69313356D01*
X259073812Y-69429808D01*
X259267465Y-69510022D01*
X259473047Y-69550915D01*
X259473048Y-69550915D01*
X259682656Y-69550915D01*
X259682657Y-69550915D01*
X259888239Y-69510022D01*
X260081892Y-69429808D01*
X260256176Y-69313356D01*
X260404393Y-69165139D01*
X260520845Y-68990855D01*
X260601059Y-68797202D01*
X260641952Y-68591620D01*
X260641952Y-68382010D01*
X260641951Y-68382007D01*
X261053752Y-68382007D01*
X261053752Y-68591622D01*
X261094644Y-68797200D01*
X261174858Y-68990854D01*
X261174859Y-68990855D01*
X261291311Y-69165139D01*
X261439528Y-69313356D01*
X261613812Y-69429808D01*
X261807465Y-69510022D01*
X262013047Y-69550915D01*
X262013048Y-69550915D01*
X262222656Y-69550915D01*
X262222657Y-69550915D01*
X262428239Y-69510022D01*
X262621892Y-69429808D01*
X262796176Y-69313356D01*
X262944393Y-69165139D01*
X263060845Y-68990855D01*
X263141059Y-68797202D01*
X263181952Y-68591620D01*
X263181952Y-68382010D01*
X263181951Y-68382007D01*
X263593752Y-68382007D01*
X263593752Y-68591622D01*
X263634644Y-68797200D01*
X263714858Y-68990854D01*
X263714859Y-68990855D01*
X263831311Y-69165139D01*
X263979528Y-69313356D01*
X264153812Y-69429808D01*
X264347465Y-69510022D01*
X264553047Y-69550915D01*
X264553048Y-69550915D01*
X264762656Y-69550915D01*
X264762657Y-69550915D01*
X264968239Y-69510022D01*
X265161892Y-69429808D01*
X265336176Y-69313356D01*
X265484393Y-69165139D01*
X265600845Y-68990855D01*
X265681059Y-68797202D01*
X265721952Y-68591620D01*
X265721952Y-68382010D01*
X265681059Y-68176428D01*
X265600845Y-67982775D01*
X265484393Y-67808491D01*
X265336176Y-67660274D01*
X265161892Y-67543822D01*
X265161893Y-67543822D01*
X265161891Y-67543821D01*
X264968237Y-67463607D01*
X264762659Y-67422715D01*
X264762657Y-67422715D01*
X264553047Y-67422715D01*
X264553044Y-67422715D01*
X264347466Y-67463607D01*
X264153812Y-67543821D01*
X263979531Y-67660271D01*
X263831308Y-67808494D01*
X263714858Y-67982775D01*
X263634644Y-68176429D01*
X263593752Y-68382007D01*
X263181951Y-68382007D01*
X263141059Y-68176428D01*
X263060845Y-67982775D01*
X262944393Y-67808491D01*
X262796176Y-67660274D01*
X262621892Y-67543822D01*
X262621893Y-67543822D01*
X262621891Y-67543821D01*
X262428237Y-67463607D01*
X262222659Y-67422715D01*
X262222657Y-67422715D01*
X262013047Y-67422715D01*
X262013044Y-67422715D01*
X261807466Y-67463607D01*
X261613812Y-67543821D01*
X261439531Y-67660271D01*
X261291308Y-67808494D01*
X261174858Y-67982775D01*
X261094644Y-68176429D01*
X261053752Y-68382007D01*
X260641951Y-68382007D01*
X260601059Y-68176428D01*
X260520845Y-67982775D01*
X260404393Y-67808491D01*
X260256176Y-67660274D01*
X260081892Y-67543822D01*
X260081893Y-67543822D01*
X260081891Y-67543821D01*
X259888237Y-67463607D01*
X259682659Y-67422715D01*
X259682657Y-67422715D01*
X259473047Y-67422715D01*
X259473044Y-67422715D01*
X259267466Y-67463607D01*
X259073812Y-67543821D01*
X258899531Y-67660271D01*
X258751308Y-67808494D01*
X258634858Y-67982775D01*
X258554644Y-68176429D01*
X258513752Y-68382007D01*
X191099345Y-68382007D01*
X191042993Y-68245960D01*
X190926543Y-68071679D01*
X190926541Y-68071676D01*
X190778324Y-67923459D01*
X190778320Y-67923456D01*
X190604039Y-67807006D01*
X190410385Y-67726792D01*
X190204807Y-67685900D01*
X190204805Y-67685900D01*
X189995195Y-67685900D01*
X189995192Y-67685900D01*
X189789614Y-67726792D01*
X189595960Y-67807006D01*
X189421679Y-67923456D01*
X189273456Y-68071679D01*
X189157006Y-68245960D01*
X189076792Y-68439614D01*
X189035900Y-68645192D01*
X188624099Y-68645192D01*
X188583207Y-68439613D01*
X188502993Y-68245960D01*
X188386541Y-68071676D01*
X188238324Y-67923459D01*
X188238320Y-67923456D01*
X188064039Y-67807006D01*
X187870385Y-67726792D01*
X187664807Y-67685900D01*
X187664805Y-67685900D01*
X187455195Y-67685900D01*
X187455192Y-67685900D01*
X187249614Y-67726792D01*
X187055960Y-67807006D01*
X186881679Y-67923456D01*
X186733456Y-68071679D01*
X186617006Y-68245960D01*
X186536792Y-68439614D01*
X186495900Y-68645192D01*
X186084099Y-68645192D01*
X186043207Y-68439613D01*
X185962993Y-68245960D01*
X185846541Y-68071676D01*
X185698324Y-67923459D01*
X185698320Y-67923456D01*
X185524039Y-67807006D01*
X185330385Y-67726792D01*
X185124807Y-67685900D01*
X185124805Y-67685900D01*
X184915195Y-67685900D01*
X184915192Y-67685900D01*
X184709614Y-67726792D01*
X184515960Y-67807006D01*
X184341679Y-67923456D01*
X184193456Y-68071679D01*
X184077006Y-68245960D01*
X183996792Y-68439614D01*
X183955900Y-68645192D01*
X116164099Y-68645192D01*
X116123207Y-68439613D01*
X116042993Y-68245960D01*
X115926541Y-68071676D01*
X115778324Y-67923459D01*
X115778320Y-67923456D01*
X115604039Y-67807006D01*
X115410385Y-67726792D01*
X115204807Y-67685900D01*
X115204805Y-67685900D01*
X114995195Y-67685900D01*
X114995192Y-67685900D01*
X114789614Y-67726792D01*
X114595960Y-67807006D01*
X114421679Y-67923456D01*
X114273456Y-68071679D01*
X114157006Y-68245960D01*
X114076792Y-68439614D01*
X114035900Y-68645192D01*
X113624099Y-68645192D01*
X113583207Y-68439613D01*
X113502993Y-68245960D01*
X113386541Y-68071676D01*
X113238324Y-67923459D01*
X113238320Y-67923456D01*
X113064039Y-67807006D01*
X112870385Y-67726792D01*
X112664807Y-67685900D01*
X112664805Y-67685900D01*
X112455195Y-67685900D01*
X112455192Y-67685900D01*
X112249614Y-67726792D01*
X112055960Y-67807006D01*
X111881679Y-67923456D01*
X111733456Y-68071679D01*
X111617006Y-68245960D01*
X111536792Y-68439614D01*
X111495900Y-68645192D01*
X111084099Y-68645192D01*
X111043207Y-68439613D01*
X110962993Y-68245960D01*
X110846541Y-68071676D01*
X110698324Y-67923459D01*
X110698320Y-67923456D01*
X110524039Y-67807006D01*
X110330385Y-67726792D01*
X110124807Y-67685900D01*
X110124805Y-67685900D01*
X109915195Y-67685900D01*
X109915192Y-67685900D01*
X109709614Y-67726792D01*
X109515960Y-67807006D01*
X109341679Y-67923456D01*
X109193456Y-68071679D01*
X109077006Y-68245960D01*
X108996792Y-68439614D01*
X108955900Y-68645192D01*
X41164099Y-68645192D01*
X41123207Y-68439613D01*
X41042993Y-68245960D01*
X40926541Y-68071676D01*
X40778324Y-67923459D01*
X40778320Y-67923456D01*
X40604039Y-67807006D01*
X40410385Y-67726792D01*
X40204807Y-67685900D01*
X40204805Y-67685900D01*
X39995195Y-67685900D01*
X39995192Y-67685900D01*
X39789614Y-67726792D01*
X39595960Y-67807006D01*
X39421679Y-67923456D01*
X39273456Y-68071679D01*
X39157006Y-68245960D01*
X39076792Y-68439614D01*
X39035900Y-68645192D01*
X38624099Y-68645192D01*
X38583207Y-68439613D01*
X38502993Y-68245960D01*
X38386541Y-68071676D01*
X38238324Y-67923459D01*
X38238320Y-67923456D01*
X38064039Y-67807006D01*
X37870385Y-67726792D01*
X37664807Y-67685900D01*
X37664805Y-67685900D01*
X37455195Y-67685900D01*
X37455192Y-67685900D01*
X37249614Y-67726792D01*
X37055960Y-67807006D01*
X36881679Y-67923456D01*
X36733456Y-68071679D01*
X36617006Y-68245960D01*
X36536792Y-68439614D01*
X36495900Y-68645192D01*
X36084099Y-68645192D01*
X36043207Y-68439613D01*
X35962993Y-68245960D01*
X35846541Y-68071676D01*
X35698324Y-67923459D01*
X35698320Y-67923456D01*
X35524039Y-67807006D01*
X35330385Y-67726792D01*
X35124807Y-67685900D01*
X35124805Y-67685900D01*
X34915195Y-67685900D01*
X34915192Y-67685900D01*
X34709614Y-67726792D01*
X34515960Y-67807006D01*
X34341679Y-67923456D01*
X34193456Y-68071679D01*
X34077006Y-68245960D01*
X33996792Y-68439614D01*
X33955900Y-68645192D01*
X250500Y-68645192D01*
X250500Y-4885265D01*
X3249500Y-4885265D01*
X3249500Y-5114734D01*
X3279452Y-5342238D01*
X3338841Y-5563885D01*
X3426653Y-5775883D01*
X3426656Y-5775888D01*
X3541389Y-5974612D01*
X3681081Y-6156661D01*
X3843339Y-6318919D01*
X4025388Y-6458611D01*
X4224112Y-6573344D01*
X4224113Y-6573344D01*
X4224116Y-6573346D01*
X4320167Y-6613131D01*
X4436113Y-6661158D01*
X4657762Y-6720548D01*
X4885266Y-6750500D01*
X4885267Y-6750500D01*
X5114733Y-6750500D01*
X5114734Y-6750500D01*
X5342238Y-6720548D01*
X5563887Y-6661158D01*
X5775888Y-6573344D01*
X5974612Y-6458611D01*
X6156661Y-6318919D01*
X6318919Y-6156661D01*
X6458611Y-5974612D01*
X6573344Y-5775888D01*
X6661158Y-5563887D01*
X6720548Y-5342238D01*
X6750500Y-5114734D01*
X6750500Y-4885266D01*
X6750500Y-4885265D01*
X293249500Y-4885265D01*
X293249500Y-5114734D01*
X293279452Y-5342238D01*
X293338841Y-5563885D01*
X293426653Y-5775883D01*
X293426656Y-5775888D01*
X293541389Y-5974612D01*
X293681081Y-6156661D01*
X293843339Y-6318919D01*
X294025388Y-6458611D01*
X294224112Y-6573344D01*
X294224113Y-6573344D01*
X294224116Y-6573346D01*
X294320167Y-6613131D01*
X294436113Y-6661158D01*
X294657762Y-6720548D01*
X294885266Y-6750500D01*
X294885267Y-6750500D01*
X295114733Y-6750500D01*
X295114734Y-6750500D01*
X295342238Y-6720548D01*
X295563887Y-6661158D01*
X295775888Y-6573344D01*
X295974612Y-6458611D01*
X296156661Y-6318919D01*
X296318919Y-6156661D01*
X296458611Y-5974612D01*
X296573344Y-5775888D01*
X296661158Y-5563887D01*
X296720548Y-5342238D01*
X296750500Y-5114734D01*
X296750500Y-4885266D01*
X296720548Y-4657762D01*
X296661158Y-4436113D01*
X296573344Y-4224112D01*
X296458611Y-4025388D01*
X296318919Y-3843339D01*
X296156661Y-3681081D01*
X295974612Y-3541389D01*
X295974613Y-3541389D01*
X295974611Y-3541388D01*
X295775883Y-3426653D01*
X295563885Y-3338841D01*
X295342238Y-3279452D01*
X295114734Y-3249500D01*
X294885266Y-3249500D01*
X294885265Y-3249500D01*
X294657761Y-3279452D01*
X294436114Y-3338841D01*
X294224116Y-3426653D01*
X294025388Y-3541388D01*
X293843342Y-3681078D01*
X293681078Y-3843342D01*
X293541388Y-4025388D01*
X293426653Y-4224116D01*
X293338841Y-4436114D01*
X293279452Y-4657761D01*
X293249500Y-4885265D01*
X6750500Y-4885265D01*
X6720548Y-4657762D01*
X6661158Y-4436113D01*
X6573344Y-4224112D01*
X6458611Y-4025388D01*
X6318919Y-3843339D01*
X6156661Y-3681081D01*
X5974612Y-3541389D01*
X5974613Y-3541389D01*
X5974611Y-3541388D01*
X5775883Y-3426653D01*
X5563885Y-3338841D01*
X5342238Y-3279452D01*
X5114734Y-3249500D01*
X4885266Y-3249500D01*
X4885265Y-3249500D01*
X4657761Y-3279452D01*
X4436114Y-3338841D01*
X4224116Y-3426653D01*
X4025388Y-3541388D01*
X3843342Y-3681078D01*
X3681078Y-3843342D01*
X3541388Y-4025388D01*
X3426653Y-4224116D01*
X3338841Y-4436114D01*
X3279452Y-4657761D01*
X3249500Y-4885265D01*
X250500Y-4885265D01*
X250500Y-349500D01*
X269407Y-291309D01*
X318907Y-255345D01*
X349500Y-250500D01*
X299650500Y-250500D01*
X299708691Y-269407D01*
G37*
%TD.AperFunction*%
%TD*%
M02*
