M48
; DRILL file KiCad 10.0.1 date 2026-04-27T16:35:07
; FORMAT={-:-/ absolute / metric / decimal}
; #@! TF.CreationDate,2026-04-27T16:35:07+02:00
; #@! TF.GenerationSoftware,Kicad,Pcbnew,10.0.1
; #@! TF.FileFunction,Plated,1,2,PTH
FMAT,2
METRIC
; #@! TA.AperFunction,Plated,PTH,ViaDrill
T1C0.400
; #@! TA.AperFunction,Plated,PTH,ComponentDrill
T2C1.016
%
G90
G05
T1
X33.15Y-369.35
X33.2Y-370.9
X33.25Y-270.75
X33.3Y-169.25
X33.3Y-269.35
X33.35Y-170.9
X33.4Y-69.6
X33.4Y-70.55
X36.65Y-367.5
X37.6Y-172.95
X38.9Y-272.35
X38.9Y-372.25
X41.5Y-267.9
X41.55Y-69.6
X41.55Y-168.1
X41.65Y-372.05
X41.7Y-369.8
X41.8Y-270.65
X42.1Y-70.4
X43.2Y-169.25
X43.2Y-171.2
X96.18Y-230.66
X96.3Y-286.56
X96.99Y-289.09
X97.13Y-233.22
X108.2Y-269.2
X108.2Y-270.85
X108.25Y-369.15
X108.25Y-370.7
X108.3Y-70.55
X108.35Y-69.5
X108.35Y-169.0
X108.35Y-170.5
X111.8Y-367.35
X113.8Y-270.05
X113.9Y-172.35
X114.35Y-272.9
X116.65Y-70.0
X116.75Y-72.2
X117.1Y-270.9
X117.15Y-269.3
X117.75Y-170.9
X117.8Y-169.35
X117.95Y-369.5
X117.95Y-371.4
X183.0Y-369.1
X183.0Y-370.9
X183.1Y-269.55
X183.1Y-270.95
X183.3Y-169.0
X183.3Y-170.6
X183.35Y-69.35
X183.35Y-70.55
X187.4Y-172.8
X188.8Y-72.35
X188.9Y-367.65
X190.8Y-72.6
X191.5Y-269.95
X191.75Y-369.9
X191.75Y-372.2
X191.8Y-169.4
X191.8Y-171.45
X191.8Y-367.75
X191.9Y-69.25
X192.2Y-70.7
X202.9Y-230.69
X203.01Y-286.53
X203.67Y-289.09
X203.79Y-233.18
X257.65Y-68.9
X257.7Y-70.5
X258.1Y-369.25
X258.15Y-269.4
X258.15Y-270.75
X258.15Y-370.6
X258.35Y-169.35
X258.35Y-170.7
X261.65Y-267.45
X261.7Y-367.5
X263.85Y-172.55
X263.95Y-272.35
X267.5Y-68.95
X267.5Y-70.6
X267.8Y-169.0
X267.8Y-170.65
X267.8Y-369.4
X267.85Y-269.4
X267.85Y-370.9
X267.95Y-271.1
T2
X35.02Y-68.75
X35.02Y-71.29
X35.02Y-168.75
X35.02Y-171.29
X35.02Y-268.75
X35.02Y-271.29
X35.02Y-368.75
X35.02Y-371.29
X37.56Y-68.75
X37.56Y-71.29
X37.56Y-168.75
X37.56Y-171.29
X37.56Y-268.75
X37.56Y-271.29
X37.56Y-368.75
X37.56Y-371.29
X40.1Y-68.75
X40.1Y-71.29
X40.1Y-168.75
X40.1Y-171.29
X40.1Y-268.75
X40.1Y-271.29
X40.1Y-368.75
X40.1Y-371.29
X110.02Y-68.75
X110.02Y-71.29
X110.02Y-168.75
X110.02Y-171.29
X110.02Y-268.75
X110.02Y-271.29
X110.02Y-368.75
X110.02Y-371.29
X112.56Y-68.75
X112.56Y-71.29
X112.56Y-168.75
X112.56Y-171.29
X112.56Y-268.75
X112.56Y-271.29
X112.56Y-368.75
X112.56Y-371.29
X115.1Y-68.75
X115.1Y-71.29
X115.1Y-168.75
X115.1Y-171.29
X115.1Y-268.75
X115.1Y-271.29
X115.1Y-368.75
X115.1Y-371.29
X185.02Y-68.75
X185.02Y-71.29
X185.02Y-168.75
X185.02Y-171.29
X185.02Y-268.75
X185.02Y-271.29
X185.02Y-368.75
X185.02Y-371.29
X187.56Y-68.75
X187.56Y-71.29
X187.56Y-168.75
X187.56Y-171.29
X187.56Y-268.75
X187.56Y-271.29
X187.56Y-368.75
X187.56Y-371.29
X190.1Y-68.75
X190.1Y-71.29
X190.1Y-168.75
X190.1Y-171.29
X190.1Y-268.75
X190.1Y-271.29
X190.1Y-368.75
X190.1Y-371.29
X259.578Y-68.487
X259.578Y-71.027
X260.02Y-168.75
X260.02Y-171.29
X260.02Y-268.75
X260.02Y-271.29
X260.02Y-368.75
X260.02Y-371.29
X262.118Y-68.487
X262.118Y-71.027
X262.56Y-168.75
X262.56Y-171.29
X262.56Y-268.75
X262.56Y-271.29
X262.56Y-368.75
X262.56Y-371.29
X264.658Y-68.487
X264.658Y-71.027
X265.1Y-168.75
X265.1Y-171.29
X265.1Y-268.75
X265.1Y-271.29
X265.1Y-368.75
X265.1Y-371.29
M30
